<svg xmlns="http://www.w3.org/2000/svg" x="0px" y="0px" width="48" height="48" viewBox="0 0 48 48">
    <path fill="#eceff1" d="M16,42h16c5.523,0,10-4.477,10-10V16c0-5.523-4.477-10-10-10H16C10.477,6,6,10.477,6,16v16C6,37.523,10.477,42,16,42z"></path><path fill="#ffc107" d="M12.783 17.974A0.762 0.762 0 1 0 12.783 19.498A0.762 0.762 0 1 0 12.783 17.974Z"></path><path fill="#ff5722" d="M15.982 21.81l1.444-.61c.68-1.22 1.835-1.927 3.332-1.927.34 0 .659.043.962.113l1.372-.579c-.676-.333-1.451-.526-2.334-.526C18.368 18.281 16.663 19.594 15.982 21.81zM13.297 22.944L13.297 21.375 12.273 21.375 12.273 23.377z"></path><path fill="#f44336" d="M13.297 25.733L13.297 22.944 12.273 23.377 12.273 26.165zM16.742 24.148c0-1.169.246-2.163.684-2.948l-1.444.61c-.214.696-.333 1.476-.333 2.338 0 .201.028.382.04.574l1.062-.449C16.75 24.23 16.742 24.192 16.742 24.148zM30.421 18.5c-.279.086-.537.195-.774.327L30.421 18.5zM23.092 18.807l-1.372.579c1.027.237 1.828.863 2.35 1.796l1.022-.432C24.624 19.878 23.941 19.226 23.092 18.807z"></path><path fill="#e91e63" d="M13.297 28.521L13.297 25.733 12.273 26.165 12.273 28.953zM30.421 18.5l-.774.327c-.983.547-1.577 1.464-1.577 2.58 0 .302.046.571.117.825l1.032-.436c-.034-.132-.056-.27-.056-.42 0-1.227 1.117-2.117 2.734-2.117.796 0 1.467.213 1.958.579l1.048-.443c-.694-.684-1.735-1.113-2.974-1.113C31.381 18.281 30.876 18.36 30.421 18.5zM16.75 24.274l-1.062.449c.059.959.26 1.811.597 2.536l1.004-.424C16.954 26.121 16.766 25.26 16.75 24.274zM25.092 20.751l-1.022.432c.381.682.603 1.532.658 2.51l1.061-.448C25.695 22.297 25.467 21.452 25.092 20.751z"></path><g><path fill="#9c27b0" d="M25.609 26.108c.146-.602.242-1.247.242-1.96 0-.316-.033-.609-.063-.904l-1.061.448c.009.153.03.296.03.456 0 .968-.177 1.809-.481 2.523L25.609 26.108zM17.29 26.834l-1.004.424c.408.879 1.008 1.568 1.777 2.038l1.258-.531C18.42 28.427 17.727 27.764 17.29 26.834zM13.297 28.521L12.273 28.953 12.273 29.789 13.297 29.789zM29.22 21.795l-1.032.436c.245.866.915 1.471 2.129 1.889l1.6-.676-.338-.085C30.122 22.995 29.406 22.527 29.22 21.795zM34.719 21.273h1.078c-.05-.731-.379-1.373-.893-1.879l-1.048.443C34.328 20.189 34.635 20.684 34.719 21.273z"></path></g><g><path fill="#3f51b5" d="M25.609 26.108l-1.333.563c-.629 1.476-1.85 2.36-3.519 2.36-.528 0-1.001-.103-1.437-.267l-1.258.531c.752.459 1.648.728 2.695.728C23.3 30.023 25.019 28.541 25.609 26.108zM28.828 26.859H27.75c.026.368.127.705.264 1.021l.989-.418C28.919 27.273 28.853 27.074 28.828 26.859zM32.695 23.641l-.779-.196-1.6.676c.234.081.487.156.762.224l1.289.328c.714.176 1.257.399 1.659.669l1.205-.509C34.703 24.318 33.878 23.934 32.695 23.641z"></path></g><g><path fill="#03a9f4" d="M29.003 27.463l-.989.418c.377.87 1.139 1.531 2.166 1.873l1.692-.714C30.493 29.007 29.415 28.396 29.003 27.463zM35.914 27.333c.035-.193.063-.39.063-.598 0-.784-.234-1.404-.745-1.902l-1.205.509c.579.39.856.883.856 1.51 0 .393-.131.75-.348 1.063L35.914 27.333z"></path></g><path fill="#009688" d="M35.914,27.333l-1.379,0.583c-0.472,0.682-1.394,1.132-2.55,1.132c-0.039,0-0.074-0.006-0.112-0.007l-1.692,0.714c0.514,0.171,1.086,0.269,1.71,0.269C34.098,30.023,35.615,28.964,35.914,27.333z"></path>
</svg>
