<?xml version="1.0" encoding="UTF-8" standalone="no"?>
<svg
   xmlns:dc="http://purl.org/dc/elements/1.1/"
   xmlns:cc="http://creativecommons.org/ns#"
   xmlns:rdf="http://www.w3.org/1999/02/22-rdf-syntax-ns#"
   xmlns:svg="http://www.w3.org/2000/svg"
   xmlns="http://www.w3.org/2000/svg"
   xmlns:sodipodi="http://sodipodi.sourceforge.net/DTD/sodipodi-0.dtd"
   xmlns:inkscape="http://www.inkscape.org/namespaces/inkscape"
   inkscape:version="1.0 (4035a4fb49, 2020-05-01)"
   sodipodi:docname="color.svg"
   version="1.1"
   width="240"
   viewBox="0 0 231.83437 231.83437"
   height="240"
   enable-background="new 0 0 494.58 494.58"
   id="Capa_1">
  <metadata
     id="metadata915">
    <rdf:RDF>
      <cc:Work
         rdf:about="">
        <dc:format>image/svg+xml</dc:format>
        <dc:type
           rdf:resource="http://purl.org/dc/dcmitype/StillImage" />
        <dc:title></dc:title>
      </cc:Work>
    </rdf:RDF>
  </metadata>
  <defs
     id="defs913" />
  <sodipodi:namedview
     inkscape:current-layer="Capa_1"
     inkscape:window-maximized="1"
     inkscape:window-y="28"
     inkscape:window-x="45"
     inkscape:cy="256"
     inkscape:cx="256"
     inkscape:zoom="1.0703125"
     inkscape:pagecheckerboard="true"
     showgrid="false"
     id="namedview911"
     inkscape:window-height="740"
     inkscape:window-width="1321"
     inkscape:pageshadow="2"
     inkscape:pageopacity="0"
     guidetolerance="10"
     gridtolerance="10"
     objecttolerance="10"
     borderopacity="1"
     bordercolor="#666666"
     pagecolor="#ffffff" />
  <g
     transform="matrix(0.39062499,0,0,0.39062499,19.319531,19.319531)"
     id="g926">
    <path
       d="M 144.884,196.025 86.07,175.855 C 34.87,203.045 0,256.925 0,318.945 c 0,89.43 72.5,161.93 161.93,161.93 31.32,0 60.57,-8.9 85.36,-24.3 l 15.844,-119.699 z"
       fill="#00f2a6"
       id="path893" />
    <path
       d="m 409.93,176.615 c 0,0 -137.486,86.219 -138.023,87.829 -0.537,1.61 -30.046,164.717 -30.046,164.717 l 5.429,27.414 c 24.79,15.4 54.04,24.3 85.36,24.3 89.43,0 161.93,-72.5 161.93,-161.93 0,-61.44 -34.22,-114.89 -84.65,-142.33 z"
       fill="#01c0fa"
       id="path895" />
    <g
       id="XMLID_736_">
      <g
         id="g907">
        <path
           d="m 409.93,175.635 c 0,-89.43 -72.5,-161.93 -161.93,-161.93 -89.43,0 -161.93,72.5 -161.93,161.93 v 0.22 c 0.051,-0.027 0.103,-0.052 0.154,-0.079 l 51.756,47.385 250.817,-16.808 20.638,-29.998 c 0.164,0.089 0.332,0.171 0.495,0.26 0,-0.32 0,-0.65 0,-0.98 z"
           fill="#ee6161"
           id="path897" />
        <path
           d="m 161.93,157.015 c -27.41,0 -53.23,6.81 -75.86,18.84 0.08,61.36 34.29,114.72 84.65,142.12 l 25.996,-2.805 50.574,-70.675 v -63.18 c -24.79,-15.4 -54.04,-24.3 -85.36,-24.3 z"
           fill="#fedf30"
           id="path899" />
        <path
           d="m 332.65,157.015 c -31.32,0 -60.57,8.9 -85.36,24.3 l -8.134,41.846 51.599,95.584 h 33.106 c 50.93,-27.06 85.7,-80.51 86.07,-142.13 -22.961,-12.5 -49.291,-19.6 -77.281,-19.6 z"
           fill="#feaee1"
           id="path901" />
        <path
           d="m 323.86,318.745 c -22.63,12.02 -48.45,18.83 -75.86,18.83 -27.99,0 -54.31,-7.1 -77.28,-19.6 0.34,-57.7 30.86,-108.25 76.57,-136.66 45.91,28.54 76.5,79.41 76.57,137.43 z"
           fill="#f9f7f8"
           id="path903" />
        <path
           d="m 248,337.575 c 27.41,0 53.23,-6.81 75.86,-18.83 v 0.2 c 0,58.1 -30.6,109.06 -76.57,137.63 -45.97,-28.57 -76.57,-79.53 -76.57,-137.63 0,-0.32 0,-0.65 0,-0.97 22.97,12.5 49.29,19.6 77.28,19.6 z"
           fill="#99e6fc"
           id="path905" />
      </g>
    </g>
  </g>
</svg>
