<?xml version="1.0" encoding="UTF-8" standalone="no"?>
<svg
   xmlns:dc="http://purl.org/dc/elements/1.1/"
   xmlns:cc="http://creativecommons.org/ns#"
   xmlns:rdf="http://www.w3.org/1999/02/22-rdf-syntax-ns#"
   xmlns:svg="http://www.w3.org/2000/svg"
   xmlns="http://www.w3.org/2000/svg"
   xmlns:sodipodi="http://sodipodi.sourceforge.net/DTD/sodipodi-0.dtd"
   xmlns:inkscape="http://www.inkscape.org/namespaces/inkscape"
   inkscape:version="1.0 (4035a4fb49, 2020-05-01)"
   height="240"
   width="240"
   sodipodi:docname="weather.svg"
   xml:space="preserve"
   viewBox="0 0 240 240"
   y="0px"
   x="0px"
   id="Layer_1"
   version="1.1"><metadata
   id="metadata49"><rdf:RDF><cc:Work
       rdf:about=""><dc:format>image/svg+xml</dc:format><dc:type
         rdf:resource="http://purl.org/dc/dcmitype/StillImage" /><dc:title></dc:title></cc:Work></rdf:RDF></metadata><defs
   id="defs47" /><sodipodi:namedview
   inkscape:current-layer="Layer_1"
   inkscape:window-maximized="0"
   inkscape:window-y="28"
   inkscape:window-x="0"
   inkscape:cy="252.258"
   inkscape:cx="252.258"
   inkscape:zoom="1.1416883"
   inkscape:pagecheckerboard="true"
   showgrid="false"
   id="namedview45"
   inkscape:window-height="692"
   inkscape:window-width="1366"
   inkscape:pageshadow="2"
   inkscape:pageopacity="0"
   guidetolerance="10"
   gridtolerance="10"
   objecttolerance="10"
   borderopacity="1"
   bordercolor="#666666"
   pagecolor="#ffffff" />




















<g
   transform="matrix(0.39641968,0,0,0.39641968,20.000026,20.00011)"
   id="g895"><path
     style="fill:#4681a0"
     d="M 146.811,411.089 125.937,391.791 82.22,435.114 c -14.966,14.966 -34.658,18.905 -49.625,3.545 -10.24,-10.24 -5.514,-29.932 9.058,-45.292 5.12,-5.514 6.302,-13.785 1.575,-19.692 -5.514,-7.089 -15.36,-7.483 -21.662,-1.182 0,0 -10.634,12.997 -14.178,21.268 -10.24,23.237 -11.422,45.292 6.695,63.803 12.997,12.997 29.932,18.511 47.262,16.935 14.572,-1.182 27.569,-8.271 38.203,-18.117 0.002,-0.001 47.263,-45.293 47.263,-45.293 z M 442.984,91.679 c -3.151,-3.151 -7.877,-3.545 -11.422,-0.788 l -41.748,32.689 c -0.394,0 -0.394,0.394 0,0.788 l 20.48,20.874 c 0.394,0.394 0.394,0 0.788,0 L 443.377,103.1 c 2.757,-3.544 2.364,-8.27 -0.393,-11.421 z"
     id="path2" /><path
     style="fill:#dadfe1"
     d="m 146.811,411.089 -20.874,-19.298 170.535,-171.717 20.086,20.086 c 0.001,-0.001 -169.747,170.929 -169.747,170.929 z"
     id="path4" /><path
     style="fill:#c4c8ca"
     d="m 260.633,256.701 20.086,20.086 27.963,-28.751 -19.692,-20.086 z"
     id="path6" /><path
     style="fill:#e2574c"
     d="m 413.445,366.978 c 28.751,28.751 41.748,63.409 30.72,80.345 2.757,-2.363 5.908,-5.12 8.665,-7.877 C 533.175,359.101 518.208,213.772 419.353,114.917 320.498,16.062 175.168,1.095 94.824,81.439 c -2.757,2.757 -5.12,5.514 -7.877,8.665 16.935,-11.028 51.594,1.969 80.345,30.72 27.963,27.963 40.566,61.046 31.902,78.769 -1.575,3.545 -1.575,7.483 1.182,10.24 l 1.182,1.182 c 2.757,2.757 6.695,3.151 10.24,1.182 17.723,-9.058 50.806,3.938 78.769,31.902 27.963,27.963 40.566,61.046 31.902,78.769 -1.575,3.545 -1.575,7.483 1.182,10.24 l 1.182,1.182 c 2.757,2.757 6.695,3.151 10.24,1.182 17.326,-9.454 50.803,3.543 78.372,31.506 z"
     id="path8" /><path
     style="fill:#c74c43"
     d="m 436.288,396.122 c 11.815,20.086 15.36,39.778 7.877,51.2 2.757,-2.363 5.908,-5.12 8.665,-7.877 78.769,-78.769 65.772,-220.554 -28.357,-319.015 h -2.363 c 63.409,88.222 67.348,202.437 14.178,275.692 z"
     id="path10" /><path
     style="fill:#f2f1ef"
     d="M 407.538,103.889 C 347.28,101.92 270.873,136.578 206.676,200.775 l -7.089,7.483 1.182,1.575 1.182,1.182 c 2.757,2.757 6.695,3.151 10.24,1.182 17.723,-9.058 50.806,3.938 78.769,31.902 27.963,27.964 40.566,61.046 31.902,78.769 -1.575,3.545 -1.575,7.483 1.182,10.24 l 1.182,1.182 c 0.394,0.394 0.788,0.788 1.575,1.182 l 7.483,-7.089 c 64.197,-64.197 98.855,-140.997 96.492,-200.862 -3.545,-3.938 -7.089,-7.877 -11.028,-11.815 -4.333,-4.334 -8.272,-7.879 -12.21,-11.817 z"
     id="path12" /><g
     id="g14">
</g><g
     id="g16">
</g><g
     id="g18">
</g><g
     id="g20">
</g><g
     id="g22">
</g><g
     id="g24">
</g><g
     id="g26">
</g><g
     id="g28">
</g><g
     id="g30">
</g><g
     id="g32">
</g><g
     id="g34">
</g><g
     id="g36">
</g><g
     id="g38">
</g><g
     id="g40">
</g><g
     id="g42">
</g></g>
</svg>
