<?xml version="1.0" encoding="UTF-8" standalone="no"?>
<svg
   xmlns:dc="http://purl.org/dc/elements/1.1/"
   xmlns:cc="http://creativecommons.org/ns#"
   xmlns:rdf="http://www.w3.org/1999/02/22-rdf-syntax-ns#"
   xmlns:svg="http://www.w3.org/2000/svg"
   xmlns="http://www.w3.org/2000/svg"
   xmlns:sodipodi="http://sodipodi.sourceforge.net/DTD/sodipodi-0.dtd"
   xmlns:inkscape="http://www.inkscape.org/namespaces/inkscape"
   width="240"
   height="240"
   version="1.1"
   id="svg4546"
   sodipodi:docname="weather-error.svg"
   inkscape:version="0.92.4 5da689c313, 2019-01-14">
  <metadata
     id="metadata4550">
    <rdf:RDF>
      <cc:Work
         rdf:about="">
        <dc:format>image/svg+xml</dc:format>
        <dc:type
           rdf:resource="http://purl.org/dc/dcmitype/StillImage" />
        <dc:title />
      </cc:Work>
    </rdf:RDF>
  </metadata>
  <sodipodi:namedview
     pagecolor="#ffffff"
     bordercolor="#666666"
     borderopacity="1"
     objecttolerance="10"
     gridtolerance="10"
     guidetolerance="10"
     inkscape:pageopacity="0"
     inkscape:pageshadow="2"
     inkscape:window-width="1321"
     inkscape:window-height="740"
     id="namedview4548"
     showgrid="false"
     inkscape:zoom="0.27972903"
     inkscape:cx="-362.69146"
     inkscape:cy="-47.096806"
     inkscape:window-x="45"
     inkscape:window-y="28"
     inkscape:window-maximized="0"
     inkscape:current-layer="svg4546"
     inkscape:pagecheckerboard="true" />
  <defs
     id="defs4538">
    <style
       id="current-color-scheme"
       type="text/css">
   .ColorScheme-Text { color:#dfdfdf; } .ColorScheme-Highlight { color:#4285f4; }
  </style>
  </defs>
  <g
     id="g11"
     transform="matrix(12.5,0,0,12.5,13.75,-2773.7499)">
    <path
       style="color:#4285f4;fill:#df3d30;fill-opacity:1"
       class="ColorScheme-Highlight"
       d="m 7.5002,229.99993 v 4 l 3e-5,2 h 2 l -3e-5,-2 v -4 z m 0,7 v 2 h 2 v -2 z"
       id="path4540"
       inkscape:connector-curvature="0" />
    <path
       style="color:#dfdfdf;fill:currentColor"
       class="ColorScheme-Text"
       d="m 8.5,224.00006 c -2.07107,0 -3.83471,1.26792 -4.59375,3.0625 -1.92783,0.2866 -3.40625,1.92992 -3.40625,3.9375 0,2.20914 1.79086,4 4,4 h 2 v -6 h 4 v 6 H 13 c 1.933,0 3.5,-1.567 3.5,-3.5 0,-1.79654 -1.35079,-3.2687 -3.09375,-3.46875 -0.45457,-2.29339 -2.47938,-4.03125 -4.90625,-4.03125 z"
       id="path4542"
       inkscape:connector-curvature="0" />
  </g>
</svg>
