<?xml version="1.0" encoding="UTF-8" standalone="no"?>
<!-- Created with Inkscape (http://www.inkscape.org/) -->

<svg
   xmlns:dc="http://purl.org/dc/elements/1.1/"
   xmlns:cc="http://creativecommons.org/ns#"
   xmlns:rdf="http://www.w3.org/1999/02/22-rdf-syntax-ns#"
   xmlns:svg="http://www.w3.org/2000/svg"
   xmlns="http://www.w3.org/2000/svg"
   xmlns:sodipodi="http://sodipodi.sourceforge.net/DTD/sodipodi-0.dtd"
   xmlns:inkscape="http://www.inkscape.org/namespaces/inkscape"
   width="240"
   height="240"
   viewBox="0 0 63.499999 63.500002"
   version="1.1"
   id="svg5414"
   inkscape:version="0.92.5 (2060ec1f9f, 2020-04-08)"
   sodipodi:docname="dshower_rain.svg">
  <defs
     id="defs5408" />
  <sodipodi:namedview
     id="base"
     pagecolor="#ffffff"
     bordercolor="#666666"
     borderopacity="1.0"
     inkscape:pageopacity="0.0"
     inkscape:pageshadow="2"
     inkscape:zoom="0.98994949"
     inkscape:cx="124.66507"
     inkscape:cy="210.24722"
     inkscape:document-units="mm"
     inkscape:current-layer="layer1"
     showgrid="false"
     units="px"
     inkscape:pagecheckerboard="true"
     inkscape:window-width="1321"
     inkscape:window-height="740"
     inkscape:window-x="45"
     inkscape:window-y="28"
     inkscape:window-maximized="1" />
  <metadata
     id="metadata5411">
    <rdf:RDF>
      <cc:Work
         rdf:about="">
        <dc:format>image/svg+xml</dc:format>
        <dc:type
           rdf:resource="http://purl.org/dc/dcmitype/StillImage" />
        <dc:title></dc:title>
      </cc:Work>
    </rdf:RDF>
  </metadata>
  <g
     inkscape:label="Layer 1"
     inkscape:groupmode="layer"
     id="layer1"
     transform="translate(0,-233.49998)">
    <g
       id="g5496"
       transform="matrix(4.7632636,0,0,4.7632636,-168.12283,-1024.6778)">
      <path
         id="path78"
         d="m 40.373816,274.19608 -0.600604,0.82947 0.373062,0.27226 0.60325,-0.82974 z m 1.354667,1.06442 -0.60325,0.82947 0.373062,0.27226 0.60325,-0.82974 z m 1.49225,0.30798 0.60325,-0.82974 0.373062,0.27226 -0.60325,0.82947 z m 2.518833,-1.01812 -0.60325,0.8292 0.373063,0.27226 0.60325,-0.82921 z"
         style="clip-rule:evenodd;fill:#5ac8fa;fill-rule:evenodd;stroke-width:0.26458332"
         inkscape:connector-curvature="0" />
      <path
         id="path80"
         d="m 47.252982,271.73519 c 0,-1.0959 -0.888999,-1.98437 -1.984374,-1.98437 -0.03969,0 -0.07673,0.004 -0.116417,0.006 -0.301625,-0.92499 -1.172104,-1.59332 -2.198687,-1.59332 -1.277938,0 -2.315105,1.03663 -2.315105,2.3151 0,0.0302 0.0027,0.0595 0.0053,0.0894 -0.754062,0.12435 -1.328208,0.77655 -1.328208,1.56422 0,0.87656 0.711729,1.5875 1.5875,1.5875 h 4.497918 v -0.007 c 1.034521,-0.0683 1.852083,-0.9263 1.852083,-1.97776 z"
         style="clip-rule:evenodd;opacity:0.8;fill:#ffffff;fill-rule:evenodd;stroke-width:0.26458332"
         inkscape:connector-curvature="0" />
      <path
         id="path82"
         d="m 40.902983,265.2529 h -0.529167 v 1.32292 h 0.529167 z m -4.233334,3.70417 v 0.52916 h 1.322917 v -0.52916 z m 0.92075,-2.35374 0.373063,-0.37438 0.936625,0.93556 -0.373063,0.37413 z m 0.05556,5.29246 0.373062,0.37412 0.936625,-0.9353 -0.373062,-0.37412 z m 5.050896,-4.30344 -0.373063,-0.37412 0.933979,-0.93557 0.375709,0.37412 z m -2.569104,2.57095 c -0.26723,0.10425 -0.502709,0.26326 -0.701146,0.45694 -0.391584,-0.33973 -0.640292,-0.83953 -0.640292,-1.39885 0,-1.02288 0.828146,-1.85209 1.852083,-1.85209 0.47625,0 0.910167,0.18204 1.23825,0.4781 -0.941916,0.38735 -1.635125,1.26551 -1.748895,2.3159 z"
         style="clip-rule:evenodd;fill:#fcde00;fill-rule:evenodd;stroke-width:0.26458332"
         inkscape:connector-curvature="0" />
    </g>
  </g>
</svg>
