<?xml version="1.0" standalone="no"?>
<!DOCTYPE svg PUBLIC "-//W3C//DTD SVG 20010904//EN"
 "http://www.w3.org/TR/2001/REC-SVG-20010904/DTD/svg10.dtd">
<svg version="1.0" xmlns="http://www.w3.org/2000/svg"
 width="747.000000pt" height="747.000000pt" viewBox="0 0 747.000000 747.000000"
 preserveAspectRatio="xMidYMid meet">
<metadata>
Created by potrace 1.14, written by Peter Selinger 2001-2017
</metadata>
<g transform="translate(0.000000,747.000000) scale(0.100000,-0.100000)"
fill="#000000" stroke="none">
<path d="M58 7454 c-60 -32 -58 -8 -58 -771 l0 -698 957 -957 958 -958 -947
-948 c-520 -521 -951 -957 -957 -969 -8 -15 -11 -229 -11 -713 0 -634 1 -694
17 -721 29 -49 99 -72 146 -48 12 6 356 345 764 752 468 467 744 736 746 727
3 -8 10 -35 17 -60 50 -186 223 -354 416 -405 75 -20 210 -19 288 1 145 37
171 58 562 447 l362 359 17 -58 c60 -210 217 -366 420 -419 76 -19 210 -19
289 1 136 35 182 69 441 326 l240 237 1285 -1284 c880 -879 1294 -1286 1313
-1291 38 -9 72 2 110 35 l32 29 3 689 c1 378 0 699 -3 713 -4 16 -366 385
-961 980 l-954 955 946 945 c520 520 952 957 960 972 12 23 14 135 14 708 0
611 -2 686 -16 716 -28 60 -111 83 -164 48 -14 -9 -356 -347 -761 -752 l-736
-734 -7 46 c-4 25 -26 83 -48 129 -127 254 -434 387 -691 298 -143 -50 -161
-65 -543 -444 l-361 -358 -7 43 c-4 24 -25 81 -48 128 -70 145 -205 259 -363
306 -81 24 -229 24 -310 0 -139 -41 -184 -74 -438 -325 l-238 -235 -1287 1287
c-1284 1284 -1287 1287 -1327 1287 -22 -1 -52 -7 -67 -16z m2269 -2971 l-247
-248 -920 920 -920 920 0 495 0 495 1167 -1167 1168 -1168 -248 -247z m3341
-620 c-1721 -1721 -1603 -1612 -1744 -1621 -173 -11 -313 87 -360 252 -20 72
-14 153 17 229 20 46 227 257 1833 1865 l1811 1812 3 -487 2 -488 -1562 -1562z
m-315 1677 c102 -38 188 -148 207 -264 10 -66 -4 -155 -35 -215 -17 -33 -441
-463 -1557 -1577 -1492 -1491 -1535 -1532 -1593 -1554 -111 -40 -239 -24 -332
43 -91 65 -151 198 -139 309 14 136 -94 20 1570 1686 875 876 1540 1534 1565
1550 95 56 203 63 314 22z m-1623 -345 c165 -83 232 -296 145 -463 -17 -34
-508 -532 -1829 -1852 l-1806 -1805 0 490 0 490 1563 1561 c1676 1675 1594
1598 1712 1613 71 9 157 -4 215 -34z m3500 -4295 l0 -495 -1170 1170 -1170
1170 247 247 248 248 922 -922 923 -923 0 -495z"/>
</g>
</svg>
