<?xml version="1.0" encoding="UTF-8" standalone="no"?>
<svg
   xmlns:dc="http://purl.org/dc/elements/1.1/"
   xmlns:cc="http://creativecommons.org/ns#"
   xmlns:rdf="http://www.w3.org/1999/02/22-rdf-syntax-ns#"
   xmlns:svg="http://www.w3.org/2000/svg"
   xmlns="http://www.w3.org/2000/svg"
   xmlns:sodipodi="http://sodipodi.sourceforge.net/DTD/sodipodi-0.dtd"
   xmlns:inkscape="http://www.inkscape.org/namespaces/inkscape"
   inkscape:version="1.0 (4035a4fb49, 2020-05-01)"
   sodipodi:docname="google-calendar.svg"
   version="1.1"
   width="240"
   viewBox="0 0 240 240"
   height="240"
   enable-background="new 0 0 512 512"
   id="Capa_1">
  <metadata
     id="metadata44">
    <rdf:RDF>
      <cc:Work
         rdf:about="">
        <dc:format>image/svg+xml</dc:format>
        <dc:type
           rdf:resource="http://purl.org/dc/dcmitype/StillImage" />
        <dc:title></dc:title>
      </cc:Work>
    </rdf:RDF>
  </metadata>
  <defs
     id="defs42" />
  <sodipodi:namedview
     inkscape:current-layer="Capa_1"
     inkscape:window-maximized="0"
     inkscape:window-y="28"
     inkscape:window-x="45"
     inkscape:cy="256"
     inkscape:cx="256"
     inkscape:zoom="1.125"
     inkscape:pagecheckerboard="true"
     showgrid="false"
     id="namedview40"
     inkscape:window-height="740"
     inkscape:window-width="1321"
     inkscape:pageshadow="2"
     inkscape:pageopacity="0"
     guidetolerance="10"
     gridtolerance="10"
     objecttolerance="10"
     borderopacity="1"
     bordercolor="#666666"
     pagecolor="#ffffff" />
  <g
     transform="matrix(0.390625,0,0,0.390625,20.000001,20)"
     id="g888">
    <g
       id="g37">
      <g
         id="g4">
        <path
           d="m 466.414,152 h -420 c -8.291,0 -15,-6.709 -15,-15 V 45 c 0,-24.814 20.186,-45 45,-45 h 360 c 24.814,0 45,20.186 45,45 v 92 c 0,8.291 -6.709,15 -15,15 z"
           fill="#e3e7ea"
           id="path2" />
      </g>
      <path
         d="m 436.414,0 h -180 v 152 h 210 c 8.291,0 15,-6.709 15,-15 V 45 c 0,-24.814 -20.186,-45 -45,-45 z"
         fill="#babac0"
         id="path6" />
      <g
         id="Calendar_1_">
        <g
           id="g12">
          <g
             id="g10">
            <path
               d="m 30.835,316.998 c 0.005,-0.022 0.007,-0.033 0.007,-0.033 L 1,174.8 C -1.1,161.3 2.5,147.799 10.901,137.899 19.6,127.7 32.199,122 45.399,122 H 466.6 c 13.2,0 25.8,5.7 34.499,15.899 C 509.5,147.8 513.1,161.3 511,174.2 L 481.158,317.036 511,459.2 c 2.1,13.5 -1.5,27.001 -9.901,36.899 C 492.4,506.3 479.801,512 466.601,512 H 45.399 C 32.199,512 19.599,506.3 10.9,496.099 2.5,486.2 -1.1,472.7 1,459.8 c 0,0 29.317,-140.325 29.835,-142.802 z"
               fill="#4086f4"
               id="path8" />
          </g>
        </g>
        <path
           d="m 30.842,316.965 c 0,0 -0.002,0.011 -0.007,0.033 H 481.166 L 511,174.2 c 2.1,-12.9 -1.5,-26.4 -9.901,-36.301 C 492.4,127.7 479.801,122 466.601,122 H 45.399 c -13.2,0 -25.8,5.7 -34.499,15.899 C 2.5,147.8 -1.1,161.3 1,174.8 Z"
           fill="#4175df"
           id="path14" />
        <g
           id="g18">
          <circle
             cx="106"
             cy="75"
             fill="#fff5f5"
             r="15"
             id="circle16" />
        </g>
        <g
           id="g22">
          <circle
             cx="406"
             cy="75"
             fill="#e3e7ea"
             r="15"
             id="circle20" />
        </g>
        <g
           id="g26">
          <path
             d="m 196,422 c -25.371,0 -48.12,-16.069 -56.572,-40.005 -2.769,-7.808 1.318,-16.377 9.141,-19.131 7.778,-2.783 16.377,1.333 19.131,9.141 4.233,11.953 15.614,19.995 28.3,19.995 16.538,0 30,-13.462 30,-30 0,-16.538 -13.462,-30 -30,-30 h -18.647 c -8.276,0 -15,-6.709 -15,-15 0,-8.291 6.724,-15 15,-15 H 196 c 16.538,0 30,-13.462 30,-30 0,-16.538 -13.462,-30 -30,-30 -12.686,0 -24.067,8.042 -28.301,19.995 -2.754,7.822 -11.367,11.924 -19.131,9.141 -7.822,-2.754 -11.909,-11.323 -9.141,-19.131 C 147.88,228.069 170.629,212 196,212 c 33.091,0 60,26.909 60,60 0,17.9 -7.881,33.999 -20.361,45 12.48,11.001 20.361,27.1 20.361,45 0,33.091 -26.909,60 -60,60 z"
             fill="#fff5f5"
             id="path24" />
        </g>
        <path
           d="m 148.568,271.136 c 7.764,2.783 16.377,-1.318 19.131,-9.141 C 171.933,250.042 183.315,242 196,242 c 16.538,0 30,13.462 30,30 0,16.538 -13.462,30 -30,30 h -18.647 c -8.276,0 -14.999,6.708 -15,14.998 h 73.288 C 248.12,305.997 256,289.899 256,272 c 0,-33.091 -26.909,-60 -60,-60 -25.371,0 -48.12,16.069 -56.572,40.005 -2.769,7.808 1.318,16.377 9.14,19.131 z"
           fill="#e3e7ea"
           id="path28" />
        <g
           id="g32">
          <path
             d="m 346,422 c -8.291,0 -15,-6.709 -15,-15 V 255.022 l -21.68,14.458 c -6.914,4.57 -16.216,2.725 -20.801,-4.16 -4.6,-6.899 -2.739,-16.201 4.16,-20.801 l 45,-30 c 4.6,-3.062 10.532,-3.354 15.396,-0.747 4.878,2.608 7.925,7.691 7.925,13.228 v 180 c 0,8.291 -6.709,15 -15,15 z"
             fill="#fff5f5"
             id="path30" />
        </g>
        <path
           d="M 309.32,269.48 331,255.022 v 61.975 h 30 V 227 c 0,-5.537 -3.047,-10.62 -7.925,-13.228 -4.863,-2.607 -10.796,-2.314 -15.396,0.747 l -45,30 c -6.899,4.6 -8.76,13.901 -4.16,20.801 4.586,6.885 13.887,8.731 20.801,4.16 z"
           fill="#e3e7ea"
           id="path34" />
      </g>
    </g>
  </g>
</svg>
