<?xml version="1.0" encoding="UTF-8" standalone="no"?>
<svg
   xmlns:dc="http://purl.org/dc/elements/1.1/"
   xmlns:cc="http://creativecommons.org/ns#"
   xmlns:rdf="http://www.w3.org/1999/02/22-rdf-syntax-ns#"
   xmlns:svg="http://www.w3.org/2000/svg"
   xmlns="http://www.w3.org/2000/svg"
   xmlns:sodipodi="http://sodipodi.sourceforge.net/DTD/sodipodi-0.dtd"
   xmlns:inkscape="http://www.inkscape.org/namespaces/inkscape"
   inkscape:version="1.0 (4035a4fb49, 2020-05-01)"
   height="240"
   width="240"
   sodipodi:docname="ebay.svg"
   xml:space="preserve"
   viewBox="0 0 240 240"
   y="0px"
   x="0px"
   id="Capa_1"
   version="1.1"><metadata
   id="metadata53"><rdf:RDF><cc:Work
       rdf:about=""><dc:format>image/svg+xml</dc:format><dc:type
         rdf:resource="http://purl.org/dc/dcmitype/StillImage" /><dc:title></dc:title></cc:Work></rdf:RDF></metadata><defs
   id="defs51" /><sodipodi:namedview
   inkscape:current-layer="Capa_1"
   inkscape:window-maximized="0"
   inkscape:window-y="28"
   inkscape:window-x="45"
   inkscape:cy="236.97"
   inkscape:cx="236.97"
   inkscape:zoom="1.2153437"
   inkscape:pagecheckerboard="true"
   showgrid="false"
   id="namedview49"
   inkscape:window-height="740"
   inkscape:window-width="1321"
   inkscape:pageshadow="2"
   inkscape:pageopacity="0"
   guidetolerance="10"
   gridtolerance="10"
   objecttolerance="10"
   borderopacity="1"
   bordercolor="#666666"
   pagecolor="#ffffff" />




















<g
   transform="matrix(0.42199434,0,0,0.42199434,20.000001,20.000001)"
   id="g901"><circle
     style="fill:#f3f2f2"
     cx="236.97"
     cy="236.97"
     r="236.97"
     id="circle2" /><path
     style="fill:#ee3b3f"
     d="m 103.876,196.159 c -46.2,-0.007 -47.992,35.951 -47.76,45.291 0,0 -2.26,42.043 46.63,42.043 42.005,0 44.071,-26.38 44.071,-26.38 l -19.326,0.034 c 0,0 -3.764,14.537 -24.67,14.148 -26.874,-0.498 -27.917,-26.537 -27.917,-26.537 h 74.45 c 0.003,0 5.653,-48.587 -45.478,-48.599 z m -28.355,35.847 c 0,0 1.325,-23.543 27.899,-23.555 26.473,-0.007 26.473,23.555 26.473,23.555 z"
     id="path4" /><path
     style="fill:#0468b2"
     d="m 201.076,196.159 c -23.229,-0.131 -33.223,13.751 -33.223,13.751 V 163.456 H 149.23 l 0.314,98.188 c 0,0 -0.112,11.435 -0.816,18.99 h 18.084 l 0.775,-11.027 c 0,0 8.438,13.886 33.092,13.886 24.662,0 44.127,-15.18 44.647,-43.341 0.517,-28.161 -21.021,-43.869 -44.25,-43.993 z m -4.269,74.78 c -29.336,0.374 -28.86,-31.105 -28.86,-31.105 0,0 -1.066,-30.308 28.812,-31.083 29.874,-0.778 28.909,31.727 28.909,31.727 0,0 0.474,30.094 -28.861,30.461 z"
     id="path6" /><path
     style="fill:#f7ab1b"
     d="m 331.365,261.259 c 0.045,-12.703 0.415,-24.041 0,-32.041 -0.49,-9.276 0.389,-31.659 -39.712,-33.317 0,0 -38.443,-3.502 -42.436,25.111 h 19.663 c 0,0 1.527,-13.107 21.478,-12.73 18.881,0.359 22.324,9.616 22.222,21.003 0,0 -16.187,0.052 -21.586,0.075 -9.736,0.049 -43.79,1.13 -46.971,21.874 -3.783,24.67 18.23,32.359 35.457,32.265 17.231,-0.094 27.053,-5.253 34.361,-14.499 l 0.778,11.484 17.134,-0.101 c 0.001,-0.007 -0.44,-6.428 -0.388,-19.124 z M 282.7,271.62 c 0,0 -18.66,0.026 -19.76,-14.889 -1.167,-15.914 28.714,-14.952 28.714,-14.952 l 21.115,-0.026 c -0.004,0 3.412,30.301 -30.069,29.867 z"
     id="path8" /><polygon
     style="fill:#6bb745"
     points="364.065,280.376 321.176,199.273 342.785,199.273 374.381,262.281 406.048,199.273 425.583,199.273 368.409,311.594 347.519,311.594 "
     id="polygon10" /><g
     id="g16">
	<path
   style="fill:#231f20"
   d="m 432.891,203.767 v -2.327 h -0.715 v -0.864 h 0.715 v -1.212 h 1.302 v 1.212 h 1.523 v 0.864 h -1.523 v 2.166 c 0,0.397 0.254,0.554 0.696,0.554 0.292,0 0.55,-0.052 0.812,-0.15 v 0.831 c -0.322,0.138 -0.681,0.228 -1.171,0.228 -0.965,0 -1.639,-0.326 -1.639,-1.302 z"
   id="path12" />
	<path
   style="fill:#231f20"
   d="m 437.037,200.575 h 1.298 v 0.67 c 0.367,-0.393 0.857,-0.76 1.732,-0.76 0.812,0 1.396,0.311 1.695,0.778 0.453,-0.468 1.051,-0.778 1.916,-0.778 1.227,0 1.983,0.61 1.983,1.691 v 2.821 h -1.298 v -2.514 c 0,-0.703 -0.419,-1.081 -1.156,-1.081 -0.703,0 -1.209,0.389 -1.209,1.096 v 2.5 h -1.302 v -2.518 c 0,-0.688 -0.427,-1.078 -1.152,-1.078 -0.715,0 -1.212,0.419 -1.212,1.096 v 2.5 h -1.298 v -4.423 z"
   id="path14" />
</g><g
     id="g18">
</g><g
     id="g20">
</g><g
     id="g22">
</g><g
     id="g24">
</g><g
     id="g26">
</g><g
     id="g28">
</g><g
     id="g30">
</g><g
     id="g32">
</g><g
     id="g34">
</g><g
     id="g36">
</g><g
     id="g38">
</g><g
     id="g40">
</g><g
     id="g42">
</g><g
     id="g44">
</g><g
     id="g46">
</g></g>
</svg>
