<?xml version="1.0" encoding="UTF-8" standalone="no"?>
<svg
   xmlns:dc="http://purl.org/dc/elements/1.1/"
   xmlns:cc="http://creativecommons.org/ns#"
   xmlns:rdf="http://www.w3.org/1999/02/22-rdf-syntax-ns#"
   xmlns:svg="http://www.w3.org/2000/svg"
   xmlns="http://www.w3.org/2000/svg"
   xmlns:sodipodi="http://sodipodi.sourceforge.net/DTD/sodipodi-0.dtd"
   xmlns:inkscape="http://www.inkscape.org/namespaces/inkscape"
   inkscape:version="1.0 (4035a4fb49, 2020-05-01)"
   sodipodi:docname="ecosia.svg"
   id="svg8"
   version="1.1"
   height="240"
   width="240"
   viewBox="0 0 240 240">
  <metadata
     id="metadata14">
    <rdf:RDF>
      <cc:Work
         rdf:about="">
        <dc:format>image/svg+xml</dc:format>
        <dc:type
           rdf:resource="http://purl.org/dc/dcmitype/StillImage" />
        <dc:title></dc:title>
      </cc:Work>
    </rdf:RDF>
  </metadata>
  <defs
     id="defs12" />
  <sodipodi:namedview
     inkscape:current-layer="svg8"
     inkscape:window-maximized="0"
     inkscape:window-y="28"
     inkscape:window-x="45"
     inkscape:cy="105.47883"
     inkscape:cx="-231.40339"
     inkscape:zoom="0.64840344"
     inkscape:pagecheckerboard="true"
     showgrid="false"
     id="namedview10"
     inkscape:window-height="740"
     inkscape:window-width="1321"
     inkscape:pageshadow="2"
     inkscape:pageopacity="0"
     guidetolerance="10"
     gridtolerance="10"
     objecttolerance="10"
     borderopacity="1"
     bordercolor="#666666"
     pagecolor="#ffffff" />
  <g
     transform="matrix(4.3478261,0,0,4.3478261,15.652174,15.652174)"
     id="g842">
    <path
       fill="#0097a7"
       d="m 24,35 c -6.1,0 -11,-4.9 -11,-11 0,-6.1 4.9,-11 11,-11 6.1,0 11,4.9 11,11 0,6.1 -4.9,11 -11,11 z M 22.9,8 C 22.9,8 21.5,6.8 21.5,4.5 21.5,2.4 22.6,1 22.6,1 22.6,1 24,2.2 24,4.5 24,7.2 22.9,8 22.9,8 Z m 7.2,1 c 0,0 -0.6,-2 0.7,-3.8 1.2,-1.7 3,-2.2 3,-2.2 0,0 0.6,1.9 -0.7,3.8 -1.5,2.3 -3,2.2 -3,2.2 z m 5.9,2.9 c 0,0 0,-1.4 1.4,-2.3 C 38.6,8.8 40,9 40,9 40,9 40,10.3 38.6,11.2 37,12.3 36,11.9 36,11.9 Z M 16.9,8 C 16.9,8 15.4,7.8 14.5,6.5 13.7,5.2 14.1,4 14.1,4 c 0,0 1.4,0.2 2.3,1.5 1,1.6 0.5,2.5 0.5,2.5 z M 12,12 C 12,12 10.5,12.2 9.3,11.2 8.1,10.3 8,9 8,9 8,9 9.4,8.8 10.7,9.8 12.2,11 12,12 12,12 Z m 12.4,28 c 0,0 1.4,1 1.2,3.6 -0.1,2.2 -1.5,3.4 -1.5,3.4 0,0 -1.4,-1.4 -1.2,-3.5 0.2,-2.6 1.5,-3.5 1.5,-3.5 z m -7.6,-1 c 0,0 0.4,1.6 -0.6,3.2 C 15.3,43.6 14,44 14,44 14,44 13.5,42.3 14.5,40.8 15.7,38.9 16.8,39 16.8,39 Z M 12,35 c 0,0 -0.1,1.4 -1.4,2.3 C 9.4,38.2 8,38 8,38 8,38 8,36.7 9.4,35.7 10.8,34.8 12,35 12,35 Z m 20.1,4 c 0,0 1.5,0.2 2.4,1.5 C 35.3,41.7 35,43 35,43 35,43 33.6,42.8 32.7,41.5 31.6,39.9 32.1,39 32.1,39 Z M 36,35 c 0,0 1.5,-0.3 2.7,0.8 1.2,0.9 1.3,2.2 1.3,2.2 0,0 -1.4,0.3 -2.7,-0.8 C 35.8,36 36,35 36,35 Z"
       id="path2" />
    <path
       fill="#e65100"
       d="M 24,39 C 15.7,39 9,32.3 9,24 9,15.7 15.7,9 24,9 c 8.3,0 15,6.7 15,15 0,8.3 -6.7,15 -15,15 z m 0,-28 c -7.2,0 -13,5.8 -13,13 0,7.2 5.8,13 13,13 7.2,0 13,-5.8 13,-13 0,-7.2 -5.8,-13 -13,-13 z"
       id="path4" />
    <path
       fill="#cddc39"
       d="m 16.8,25.4 c 0.1,0.4 -0.4,0.8 -0.5,1.2 -0.1,0.4 -0.2,0.7 -0.4,0.8 -0.2,0.2 -0.5,0.3 -0.7,0.5 -0.2,0.2 -0.8,1.2 -1,1.3 C 13.5,27.6 13,25.9 13,24 c 0,-0.6 0.1,-1.1 0.1,-1.6 0.1,0 0.7,0.3 1.1,0.6 0.5,0.3 0.8,1.3 1.2,1.5 0.4,0.2 1.3,0.6 1.4,0.9 z m -2,-7.4 c 0.6,0 0.9,-0.5 1.1,-0.5 0.2,0 0.3,0.1 0.5,0.1 0.1,0 0.4,-0.1 0.4,-0.4 0,-0.3 -0.4,-1 -0.4,-1.1 -0.6,0.6 -1.2,1.2 -1.6,1.9 z m 3.5,-3.1 c 0,0.1 -0.3,0.4 -0.3,0.7 0,0.3 0.2,0.6 0.5,0.6 0.5,0 0.9,-0.5 1.6,-0.5 0.6,0 1.8,-0.5 1.8,-1.2 0,-0.3 -0.3,-0.4 -0.6,-0.4 -0.3,0 -1.3,0 -1.7,-0.2 -0.5,0.2 -1,0.5 -1.5,0.8 0.1,0 0.2,0.1 0.2,0.2 z m 8.3,14.6 c 0,0.1 0.1,0.2 0.2,0.2 0.1,0 0.2,-0.1 0.3,-0.2 0.2,-0.2 0.3,-0.5 0.3,-0.8 0,-0.1 0,-0.2 0,-0.2 -0.1,-0.1 -0.2,-0.1 -0.2,-0.1 -0.3,0 -0.5,0.5 -0.6,0.8 0,0.2 0,0.3 0,0.3 z M 35,24 c 0,1.3 -0.2,2.5 -0.6,3.6 -0.1,-0.1 -0.3,-0.5 -0.3,-0.8 0,-0.2 0.2,-0.7 0.2,-1.1 0,-0.4 -0.4,-1.5 -1.2,-1.5 -1,0 -0.9,1.5 -1.4,1.5 -0.7,0 -0.7,-2.5 -1.6,-2.5 -0.3,0 -0.7,0.5 -1.1,0.8 -0.3,0.3 -1,0.3 -1,1.2 0,0.7 -1.5,0.9 -1.5,2.5 0,0.5 -0.6,1.1 -1,1.4 -0.3,0.3 -0.7,1.6 -1.8,1.6 -0.6,0 -1.2,-1.2 -1.2,-2.4 0,-0.7 0.2,-0.9 0.2,-1.6 0,-0.7 -0.3,-2 -1.7,-2 -0.7,0 -1.4,-0.4 -1.4,-2 0,-1.5 1.6,-1.5 1.6,-2.9 0,-0.4 0.9,-0.8 0.9,-1 0,-0.2 -0.3,-0.6 -0.3,-0.8 0,-0.2 0.3,-0.4 0.5,-0.4 0.2,0 0.7,0.5 0.9,0.5 0.2,0 0.3,-0.5 0.4,-0.9 0.1,-0.4 1.3,-1 1.8,-1 0.5,0 1.8,0.7 2.6,0.7 0.7,0 3.2,-0.4 4,-0.4 1.1,1.2 1.9,2.6 2.4,4.1 0,0.1 0.1,0.2 0.1,0.3 0.1,0.2 0.1,0.5 0.2,0.7 0,0.2 0.1,0.3 0.1,0.5 0,0.2 0.1,0.5 0.1,0.7 0,0.1 0,0.3 0,0.4 C 35,23.5 35,23.7 35,24 Z M 26.2,21.3 C 26.2,21.2 26,21 25.7,21 c -0.3,0 -0.6,-0.4 -1,-0.5 -0.3,-0.1 -1.2,-0.7 -1.5,-0.7 -0.3,0 -0.2,0 -0.2,0.2 0,0 0.8,1 1.3,1.3 0.5,0.2 0.6,0.1 0.8,0.1 0.2,0 0.3,0.2 0.6,0.2 0.4,-0.1 0.5,-0.2 0.5,-0.3 z"
       id="path6" />
  </g>
</svg>
