<?xml version="1.0" encoding="UTF-8" standalone="no"?>
<svg
   xmlns:dc="http://purl.org/dc/elements/1.1/"
   xmlns:cc="http://creativecommons.org/ns#"
   xmlns:rdf="http://www.w3.org/1999/02/22-rdf-syntax-ns#"
   xmlns:svg="http://www.w3.org/2000/svg"
   xmlns="http://www.w3.org/2000/svg"
   xmlns:sodipodi="http://sodipodi.sourceforge.net/DTD/sodipodi-0.dtd"
   xmlns:inkscape="http://www.inkscape.org/namespaces/inkscape"
   inkscape:version="1.0 (4035a4fb49, 2020-05-01)"
   sodipodi:docname="brands-and-logotypes.svg"
   version="1.1"
   width="240"
   viewBox="0 0 240 240"
   height="240"
   enable-background="new 0 0 512 512"
   id="Capa_1">
  <metadata
     id="metadata21">
    <rdf:RDF>
      <cc:Work
         rdf:about="">
        <dc:format>image/svg+xml</dc:format>
        <dc:type
           rdf:resource="http://purl.org/dc/dcmitype/StillImage" />
        <dc:title></dc:title>
      </cc:Work>
    </rdf:RDF>
  </metadata>
  <defs
     id="defs19" />
  <sodipodi:namedview
     inkscape:current-layer="Capa_1"
     inkscape:window-maximized="0"
     inkscape:window-y="28"
     inkscape:window-x="45"
     inkscape:cy="256"
     inkscape:cx="256"
     inkscape:zoom="1.125"
     inkscape:pagecheckerboard="true"
     showgrid="false"
     id="namedview17"
     inkscape:window-height="740"
     inkscape:window-width="1321"
     inkscape:pageshadow="2"
     inkscape:pageopacity="0"
     guidetolerance="10"
     gridtolerance="10"
     objecttolerance="10"
     borderopacity="1"
     bordercolor="#666666"
     pagecolor="#ffffff" />
  <g
     transform="matrix(0.390625,0,0,0.390625,20,20)"
     id="g14">
    <path
       id="path2"
       fill="#fbbd00"
       d="m 120,256 c 0,-25.367 6.989,-49.13 19.131,-69.477 V 100.215 H 52.823 C 18.568,144.703 0,198.922 0,256 0,313.078 18.568,367.297 52.823,411.785 h 86.308 V 325.477 C 126.989,305.13 120,281.367 120,256 Z" />
    <path
       id="path4"
       fill="#0f9d58"
       d="m 256,392 -60,60 60,60 c 57.079,0 111.297,-18.568 155.785,-52.823 V 372.961 H 325.569 C 305.044,385.147 281.181,392 256,392 Z" />
    <path
       id="path6"
       fill="#31aa52"
       d="m 139.131,325.477 -86.308,86.308 c 6.782,8.808 14.167,17.243 22.158,25.235 C 123.333,485.371 187.62,512 256,512 V 392 c -49.624,0 -93.117,-26.72 -116.869,-66.523 z" />
    <path
       id="path8"
       fill="#3c79e6"
       d="m 512,256 c 0,-15.575 -1.41,-31.179 -4.192,-46.377 l -2.251,-12.299 H 256 v 120 h 121.452 c -11.794,23.461 -29.928,42.602 -51.884,55.638 l 86.216,86.216 c 8.808,-6.782 17.243,-14.167 25.235,-22.158 C 485.371,388.667 512,324.38 512,256 Z" />
    <path
       id="path10"
       fill="#cf2d48"
       d="M 352.167,159.833 362.773,170.439 447.626,85.587 437.02,74.981 C 388.668,26.629 324.381,0 256,0 l -60,60 60,60 c 36.326,0 70.479,14.146 96.167,39.833 z" />
    <path
       id="path12"
       fill="#eb4132"
       d="M 256,120 V 0 C 187.62,0 123.333,26.629 74.98,74.98 66.989,82.971 59.604,91.406 52.822,100.215 l 86.308,86.308 C 162.883,146.72 206.376,120 256,120 Z" />
  </g>
</svg>
