<?xml version="1.0" encoding="UTF-8" standalone="no"?>
<svg
   xmlns:dc="http://purl.org/dc/elements/1.1/"
   xmlns:cc="http://creativecommons.org/ns#"
   xmlns:rdf="http://www.w3.org/1999/02/22-rdf-syntax-ns#"
   xmlns:svg="http://www.w3.org/2000/svg"
   xmlns="http://www.w3.org/2000/svg"
   xmlns:sodipodi="http://sodipodi.sourceforge.net/DTD/sodipodi-0.dtd"
   xmlns:inkscape="http://www.inkscape.org/namespaces/inkscape"
   inkscape:version="1.0 (4035a4fb49, 2020-05-01)"
   height="240"
   width="240"
   sodipodi:docname="jsfiddle.svg"
   id="svg4"
   version="1.1"
   viewBox="0 0 240 240">
  <metadata
     id="metadata10">
    <rdf:RDF>
      <cc:Work
         rdf:about="">
        <dc:format>image/svg+xml</dc:format>
        <dc:type
           rdf:resource="http://purl.org/dc/dcmitype/StillImage" />
        <dc:title></dc:title>
      </cc:Work>
    </rdf:RDF>
  </metadata>
  <defs
     id="defs8" />
  <sodipodi:namedview
     inkscape:current-layer="svg4"
     inkscape:window-maximized="0"
     inkscape:window-y="28"
     inkscape:window-x="45"
     inkscape:cy="127.13241"
     inkscape:cx="127.38564"
     inkscape:zoom="1.5909903"
     inkscape:pagecheckerboard="true"
     showgrid="false"
     id="namedview6"
     inkscape:window-height="740"
     inkscape:window-width="1321"
     inkscape:pageshadow="2"
     inkscape:pageopacity="0"
     guidetolerance="10"
     gridtolerance="10"
     objecttolerance="10"
     borderopacity="1"
     bordercolor="#666666"
     pagecolor="#ffffff" />
  <path
     style="stroke-width:12.4914"
     id="path2"
     d="m 195.66673,113.76072 c 0.075,-1.17419 0.17488,-2.3234 0.17488,-3.4976 0,-32.352756 -26.60671,-58.584721 -59.45912,-58.584721 A 59.496596,59.496596 0 0 0 82.706889,85.080435 27.556055,27.556055 0 0 0 65.968397,79.409334 c -15.164575,0 -27.456124,12.091687 -27.456124,27.006436 0,2.81057 0.437199,5.5212 1.249141,8.05696 A 39.510337,39.510337 0 0 0 20,148.57428 c 0,21.6851 17.700331,39.29799 39.660234,39.62276 H 178.4036 c 0.74948,0 1.49897,0.12492 2.24845,0.12492 21.73506,0 39.34795,-17.36307 39.34795,-38.84829 A 38.785835,38.785835 0 0 0 195.76666,113.74823 Z M 73.675598,158.35506 c -3.997252,-3.62251 -6.495534,-7.9945 -7.494847,-13.17844 a 28.942602,28.942602 0 0 1 -0.499657,-5.43376 c 0,-7.36994 2.685654,-13.44076 8.056961,-18.23747 5.371307,-4.7967 12.179127,-7.19505 20.460933,-7.19505 8.494162,0 16.488662,3.18531 23.583782,9.54344 1.7488,1.58641 3.47262,3.37268 5.12148,5.34632 l 9.09375,10.70514 c 1.57392,2.14853 3.24777,3.99726 4.99657,5.58366 4.68428,4.19712 9.7433,6.29568 14.04034,6.29568 3.6475,0 6.68291,-1.12423 9.11873,-3.3477 a 11.279745,11.279745 0 0 0 3.62251,-7.29499 l 0.0625,-1.22416 a 11.14234,11.14234 0 0 0 -0.53713,-3.47261 12.716258,12.716258 0 0 0 -12.3665,-8.34426 c -4.53438,0 -9.0188,1.52395 -13.94041,6.29567 l -8.05696,-9.49347 -0.8744,-1.07426 c 7.1201,-6.90775 14.11529,-9.49348 23.60877,-9.49348 8.36924,0 15.23952,2.37337 20.361,7.12011 l 0.12491,0.12491 c 5.37131,4.74674 7.99451,10.86753 7.99451,18.39985 0,1.7488 -0.12492,3.62251 -0.49966,5.24639 -0.99931,5.12148 -3.4976,9.36856 -7.36993,12.99107 a 26.819062,26.819062 0 0 1 -14.24021,6.74537 c -1.87372,0.24982 -3.74743,0.37474 -5.87097,0.37474 -8.61907,0 -16.73849,-3.12285 -23.60877,-9.36856 a 46.842796,46.842796 0 0 1 -5.3713,-5.74605 l -9.11873,-10.6177 a 35.013428,35.013428 0 0 0 -4.87166,-5.62114 c -4.62182,-4.24708 -9.743297,-6.2457 -14.240206,-6.2457 a 14.989695,14.989695 0 0 0 -3.872337,0.49965 11.929299,11.929299 0 0 0 -5.246394,2.87303 11.279745,11.279745 0 0 0 -3.622509,8.36925 c 0,3.24776 1.124227,5.99587 3.497595,8.24433 l 0.124914,0.12491 c 2.498283,2.24846 5.621136,3.37268 9.243645,3.37268 4.621823,0 9.118732,-1.62388 13.990382,-6.37062 l 7.9945,9.36856 0.8744,0.99932 c -7.24502,6.99519 -14.24021,9.61838 -23.358938,9.61838 -8.369246,0 -15.239523,-2.37337 -20.485916,-7.1201 z"
     fill="#4679a4" />
</svg>
