<?xml version="1.0" encoding="UTF-8" standalone="no"?>
<svg
   xmlns:dc="http://purl.org/dc/elements/1.1/"
   xmlns:cc="http://creativecommons.org/ns#"
   xmlns:rdf="http://www.w3.org/1999/02/22-rdf-syntax-ns#"
   xmlns:svg="http://www.w3.org/2000/svg"
   xmlns="http://www.w3.org/2000/svg"
   xmlns:sodipodi="http://sodipodi.sourceforge.net/DTD/sodipodi-0.dtd"
   xmlns:inkscape="http://www.inkscape.org/namespaces/inkscape"
   inkscape:version="1.0 (4035a4fb49, 2020-05-01)"
   sodipodi:docname="keyboard.svg"
   version="1.1"
   width="240"
   viewBox="0 0 240 240"
   height="240"
   enable-background="new 0 0 512 512"
   id="Capa_1">
  <metadata
     id="metadata81">
    <rdf:RDF>
      <cc:Work
         rdf:about="">
        <dc:format>image/svg+xml</dc:format>
        <dc:type
           rdf:resource="http://purl.org/dc/dcmitype/StillImage" />
        <dc:title></dc:title>
      </cc:Work>
    </rdf:RDF>
  </metadata>
  <defs
     id="defs79" />
  <sodipodi:namedview
     inkscape:current-layer="Capa_1"
     inkscape:window-maximized="0"
     inkscape:window-y="28"
     inkscape:window-x="45"
     inkscape:cy="138.85108"
     inkscape:cx="366.51146"
     inkscape:zoom="0.6175058"
     inkscape:pagecheckerboard="true"
     showgrid="false"
     id="namedview77"
     inkscape:window-height="740"
     inkscape:window-width="1321"
     inkscape:pageshadow="2"
     inkscape:pageopacity="0"
     guidetolerance="10"
     gridtolerance="10"
     objecttolerance="10"
     borderopacity="1"
     bordercolor="#666666"
     pagecolor="#ffffff" />
  <g
     transform="matrix(0.3906249,0,0,0.3906249,20.000001,20.000109)"
     id="g74">
    <g
       id="g6">
      <path
         id="path2"
         fill="#a6aec4"
         d="m 20.645,379.383 h 467.612 l 14.161,-14.161 V 143.68 c 0,-17.426 -18.242,-20.644 -29.643,-20.645 H 20.645 C 9.243,123.035 0,132.279 0,143.68 v 206.057 c 0,11.402 2.259,29.646 20.645,29.646 z" />
      <path
         id="path4"
         fill="#959db0"
         d="m 491.354,123.035 h -18.581 c 11.402,0 20.645,9.243 20.645,20.645 v 221.541 c 0,2.85 -2.311,5.161 -5.161,5.161 H 20.645 C 9.243,370.383 0,361.139 0,349.737 v 18.581 c 0,11.402 9.243,20.645 20.645,20.645 h 470.709 c 11.139,0.142 20.766,-9.342 20.645,-20.645 V 143.68 c 0,-11.402 -9.243,-20.645 -20.645,-20.645 z" />
    </g>
    <g
       id="g72">
      <g
         id="g70"
         fill="#eceaec">
        <path
           id="path8"
           d="m 330.669,176.17 h -17.98 c -2.851,0 -5.161,2.311 -5.161,5.161 v 17.98 c 0,2.85 2.311,5.161 5.161,5.161 h 17.98 c 2.85,0 5.161,-2.311 5.161,-5.161 v -17.98 c 0.001,-2.851 -2.31,-5.161 -5.161,-5.161 z" />
        <path
           id="path10"
           d="m 268.903,292.044 h 17.98 c 2.85,0 5.161,-2.311 5.161,-5.161 v -17.98 c 0,-2.85 -2.311,-5.161 -5.161,-5.161 h -17.98 c -2.85,0 -5.161,2.311 -5.161,5.161 v 17.98 c 0,2.851 2.311,5.161 5.161,5.161 z" />
        <path
           id="path12"
           d="m 312.69,292.044 h 17.98 c 2.85,0 5.161,-2.311 5.161,-5.161 v -17.98 c 0,-2.85 -2.311,-5.161 -5.161,-5.161 h -17.98 c -2.851,0 -5.161,2.311 -5.161,5.161 v 17.98 c -10e-4,2.851 2.31,5.161 5.161,5.161 z" />
        <path
           id="path14"
           d="m 286.883,219.956 h -17.98 c -2.85,0 -5.161,2.311 -5.161,5.161 v 17.98 c 0,2.85 2.311,5.161 5.161,5.161 h 17.98 c 2.85,0 5.161,-2.311 5.161,-5.161 v -17.98 c 0,-2.851 -2.31,-5.161 -5.161,-5.161 z" />
        <path
           id="path16"
           d="m 243.097,176.17 h -17.98 c -2.851,0 -5.161,2.311 -5.161,5.161 v 17.98 c 0,2.85 2.311,5.161 5.161,5.161 h 17.98 c 2.851,0 5.161,-2.311 5.161,-5.161 v -17.98 c 0,-2.851 -2.311,-5.161 -5.161,-5.161 z" />
        <path
           id="path18"
           d="m 243.097,219.956 h -17.98 c -2.851,0 -5.161,2.311 -5.161,5.161 v 17.98 c 0,2.85 2.311,5.161 5.161,5.161 h 17.98 c 2.851,0 5.161,-2.311 5.161,-5.161 v -17.98 c 0,-2.851 -2.311,-5.161 -5.161,-5.161 z" />
        <path
           id="path20"
           d="m 225.117,292.044 h 17.98 c 2.851,0 5.161,-2.311 5.161,-5.161 v -17.98 c 0,-2.85 -2.311,-5.161 -5.161,-5.161 h -17.98 c -2.851,0 -5.161,2.311 -5.161,5.161 v 17.98 c 0,2.851 2.31,5.161 5.161,5.161 z" />
        <path
           id="path22"
           d="m 400.262,335.83 h 17.98 c 2.85,0 5.161,-2.311 5.161,-5.161 v -17.98 c 0,-2.851 -2.311,-5.161 -5.161,-5.161 h -17.98 c -2.85,0 -5.161,2.311 -5.161,5.161 v 17.98 c 0,2.851 2.311,5.161 5.161,5.161 z" />
        <path
           id="path24"
           d="m 111.738,176.17 h -17.98 c -2.851,0 -5.161,2.311 -5.161,5.161 v 17.98 c 0,2.85 2.311,5.161 5.161,5.161 h 17.98 c 2.851,0 5.161,-2.311 5.161,-5.161 v -17.98 c 0.001,-2.851 -2.31,-5.161 -5.161,-5.161 z" />
        <path
           id="path26"
           d="m 199.31,219.956 h -17.98 c -2.851,0 -5.161,2.311 -5.161,5.161 v 17.98 c 0,2.85 2.311,5.161 5.161,5.161 h 17.98 c 2.851,0 5.161,-2.311 5.161,-5.161 v -17.98 c 0.001,-2.851 -2.31,-5.161 -5.161,-5.161 z" />
        <path
           id="path28"
           d="m 400.262,248.258 h 61.772 c 2.85,0 5.161,-2.311 5.161,-5.161 v -17.98 c 0,-2.85 -2.311,-5.161 -5.161,-5.161 h -61.772 c -2.85,0 -5.161,2.311 -5.161,5.161 v 17.98 c 0,2.85 2.311,5.161 5.161,5.161 z" />
        <path
           id="path30"
           d="m 374.456,176.17 h -17.98 c -2.85,0 -5.161,2.311 -5.161,5.161 v 17.98 c 0,2.85 2.311,5.161 5.161,5.161 h 17.98 c 2.85,0 5.161,-2.311 5.161,-5.161 v -17.98 c 0,-2.851 -2.311,-5.161 -5.161,-5.161 z" />
        <path
           id="path32"
           d="m 356.476,248.258 h 17.98 c 2.85,0 5.161,-2.311 5.161,-5.161 v -17.98 c 0,-2.85 -2.311,-5.161 -5.161,-5.161 h -17.98 c -2.85,0 -5.161,2.311 -5.161,5.161 v 17.98 c 0,2.85 2.31,5.161 5.161,5.161 z" />
        <path
           id="path34"
           d="m 395.101,181.331 v 17.98 c 0,2.85 2.311,5.161 5.161,5.161 h 17.98 c 2.85,0 5.161,-2.311 5.161,-5.161 v -17.98 c 0,-2.85 -2.311,-5.161 -5.161,-5.161 h -17.98 c -2.85,0 -5.161,2.31 -5.161,5.161 z" />
        <path
           id="path36"
           d="m 330.669,219.956 h -17.98 c -2.851,0 -5.161,2.311 -5.161,5.161 v 17.98 c 0,2.85 2.311,5.161 5.161,5.161 h 17.98 c 2.85,0 5.161,-2.311 5.161,-5.161 v -17.98 c 0.001,-2.851 -2.31,-5.161 -5.161,-5.161 z" />
        <path
           id="path38"
           d="m 286.883,176.17 h -17.98 c -2.85,0 -5.161,2.311 -5.161,5.161 v 17.98 c 0,2.85 2.311,5.161 5.161,5.161 h 17.98 c 2.85,0 5.161,-2.311 5.161,-5.161 v -17.98 c 0,-2.851 -2.31,-5.161 -5.161,-5.161 z" />
        <path
           id="path40"
           d="M 462.034,263.742 H 356.476 c -2.85,0 -5.161,2.311 -5.161,5.161 v 17.98 c 0,2.85 2.311,5.161 5.161,5.161 h 105.559 c 2.85,0 5.161,-2.311 5.161,-5.161 v -17.98 c 0,-2.85 -2.311,-5.161 -5.162,-5.161 z" />
        <path
           id="path42"
           d="m 444.048,204.472 h 17.986 c 2.85,0 5.161,-2.311 5.161,-5.161 v -17.98 c 0,-2.85 -2.311,-5.161 -5.161,-5.161 h -17.986 c -2.85,0 -5.161,2.311 -5.161,5.161 v 17.98 c 0,2.85 2.311,5.161 5.161,5.161 z" />
        <path
           id="path44"
           d="m 181.331,292.044 h 17.98 c 2.851,0 5.161,-2.311 5.161,-5.161 v -17.98 c 0,-2.85 -2.311,-5.161 -5.161,-5.161 h -17.98 c -2.851,0 -5.161,2.311 -5.161,5.161 v 17.98 c -10e-4,2.851 2.31,5.161 5.161,5.161 z" />
        <path
           id="path46"
           d="m 73.113,199.311 v -17.98 c 0,-2.85 -2.311,-5.161 -5.161,-5.161 H 49.966 c -2.85,0 -5.161,2.311 -5.161,5.161 v 17.98 c 0,2.85 2.311,5.161 5.161,5.161 h 17.986 c 2.851,0 5.161,-2.311 5.161,-5.161 z" />
        <path
           id="path48"
           d="m 438.887,312.69 v 17.98 c 0,2.85 2.311,5.161 5.161,5.161 h 17.986 c 2.85,0 5.161,-2.311 5.161,-5.161 v -17.98 c 0,-2.851 -2.311,-5.161 -5.161,-5.161 h -17.986 c -2.85,-10e-4 -5.161,2.31 -5.161,5.161 z" />
        <path
           id="path50"
           d="M 67.952,307.528 H 49.966 c -2.85,0 -5.161,2.311 -5.161,5.161 v 17.98 c 0,2.85 2.311,5.161 5.161,5.161 h 17.986 c 2.851,0 5.161,-2.311 5.161,-5.161 v -17.98 c 0,-2.85 -2.31,-5.161 -5.161,-5.161 z" />
        <path
           id="path52"
           d="M 330.669,307.528 H 181.331 c -2.851,0 -5.161,2.311 -5.161,5.161 v 17.98 c 0,2.85 2.311,5.161 5.161,5.161 H 330.67 c 2.85,0 5.161,-2.311 5.161,-5.161 v -17.98 c 0,-2.85 -2.311,-5.161 -5.162,-5.161 z" />
        <path
           id="path54"
           d="m 374.456,307.528 h -17.98 c -2.85,0 -5.161,2.311 -5.161,5.161 v 17.98 c 0,2.85 2.311,5.161 5.161,5.161 h 17.98 c 2.85,0 5.161,-2.311 5.161,-5.161 v -17.98 c 0,-2.85 -2.311,-5.161 -5.161,-5.161 z" />
        <path
           id="path56"
           d="m 155.524,307.528 h -17.979 c -2.85,0 -5.161,2.311 -5.161,5.161 v 17.98 c 0,2.85 2.311,5.161 5.161,5.161 h 17.979 c 2.85,0 5.161,-2.311 5.161,-5.161 v -17.98 c 0,-2.85 -2.31,-5.161 -5.161,-5.161 z" />
        <path
           id="path58"
           d="m 155.524,176.17 h -17.979 c -2.85,0 -5.161,2.311 -5.161,5.161 v 17.98 c 0,2.85 2.311,5.161 5.161,5.161 h 17.979 c 2.85,0 5.161,-2.311 5.161,-5.161 v -17.98 c 0,-2.851 -2.31,-5.161 -5.161,-5.161 z" />
        <path
           id="path60"
           d="m 199.31,176.17 h -17.98 c -2.851,0 -5.161,2.311 -5.161,5.161 v 17.98 c 0,2.85 2.311,5.161 5.161,5.161 h 17.98 c 2.851,0 5.161,-2.311 5.161,-5.161 v -17.98 c 0.001,-2.851 -2.31,-5.161 -5.161,-5.161 z" />
        <path
           id="path62"
           d="m 137.545,248.258 h 17.979 c 2.85,0 5.161,-2.311 5.161,-5.161 v -17.98 c 0,-2.85 -2.311,-5.161 -5.161,-5.161 h -17.979 c -2.85,0 -5.161,2.311 -5.161,5.161 v 17.98 c 0,2.85 2.31,5.161 5.161,5.161 z" />
        <path
           id="path64"
           d="m 116.9,330.669 v -17.98 c 0,-2.851 -2.311,-5.161 -5.161,-5.161 h -17.98 c -2.851,0 -5.161,2.311 -5.161,5.161 v 17.98 c 0,2.85 2.311,5.161 5.161,5.161 h 17.98 c 2.85,0 5.161,-2.31 5.161,-5.161 z" />
        <path
           id="path66"
           d="m 49.966,248.258 h 61.773 c 2.851,0 5.161,-2.311 5.161,-5.161 v -17.98 c 0,-2.85 -2.311,-5.161 -5.161,-5.161 H 49.966 c -2.85,0 -5.161,2.311 -5.161,5.161 v 17.98 c -10e-4,2.85 2.31,5.161 5.161,5.161 z" />
        <path
           id="path68"
           d="M 155.524,263.742 H 49.966 c -2.85,0 -5.161,2.311 -5.161,5.161 v 17.98 c 0,2.85 2.311,5.161 5.161,5.161 h 105.559 c 2.85,0 5.161,-2.311 5.161,-5.161 v -17.98 c -0.001,-2.85 -2.311,-5.161 -5.162,-5.161 z" />
      </g>
    </g>
  </g>
</svg>
