<?xml version="1.0" encoding="UTF-8" standalone="no"?>
<svg
   xmlns:dc="http://purl.org/dc/elements/1.1/"
   xmlns:cc="http://creativecommons.org/ns#"
   xmlns:rdf="http://www.w3.org/1999/02/22-rdf-syntax-ns#"
   xmlns:svg="http://www.w3.org/2000/svg"
   xmlns="http://www.w3.org/2000/svg"
   xmlns:sodipodi="http://sodipodi.sourceforge.net/DTD/sodipodi-0.dtd"
   xmlns:inkscape="http://www.inkscape.org/namespaces/inkscape"
   inkscape:version="1.0 (4035a4fb49, 2020-05-01)"
   sodipodi:docname="MDN_Web_Docs.svg"
   version="1.1"
   data-name="MDN Web Docs"
   viewBox="0 0 240 240"
   preserveAspectRatio="xMaxYMid"
   height="240"
   width="240"
   id="MDN_Web_Docs">
  <metadata
     id="metadata8">
    <rdf:RDF>
      <cc:Work
         rdf:about="">
        <dc:format>image/svg+xml</dc:format>
        <dc:type
           rdf:resource="http://purl.org/dc/dcmitype/StillImage" />
        <dc:title></dc:title>
      </cc:Work>
    </rdf:RDF>
  </metadata>
  <sodipodi:namedview
     inkscape:current-layer="MDN_Web_Docs"
     inkscape:window-maximized="0"
     inkscape:window-y="28"
     inkscape:window-x="45"
     inkscape:cy="147.90125"
     inkscape:cx="-18.691963"
     inkscape:zoom="0.7089875"
     inkscape:pagecheckerboard="true"
     showgrid="false"
     id="namedview6"
     inkscape:window-height="740"
     inkscape:window-width="1321"
     inkscape:pageshadow="2"
     inkscape:pageopacity="0"
     guidetolerance="10"
     gridtolerance="10"
     objecttolerance="10"
     borderopacity="1"
     bordercolor="#666666"
     pagecolor="#ffffff" />
  <defs
     id="defs4">
    <style
       id="style2">
      .cls-1{fill:#fff;}
    </style>
    <clipPath
       id="clipPath888"
       clipPathUnits="userSpaceOnUse">
      <rect
         y="31.118671"
         x="-141.63414"
         height="96.256516"
         width="220.51848"
         id="rect890"
         style="fill:#0000ff;fill-rule:evenodd;stroke-width:1.09918" />
    </clipPath>
  </defs>
  <g
     clip-path="url(#clipPath888)"
     transform="matrix(4.0853784,0,0,4.0853784,-102.08572,-207.26513)"
     style="opacity:1"
     id="g836">
    <path
       inkscape:original-d="m 79.97328,86.952481 h 59.917 v 17.131999 h -59.919 z m 57.23,12.299998 c -0.103,0.03 -0.21,0.048 -0.316,0.05 -0.338,0 -0.514,-0.15 -0.514,-0.582 v -3.256 c 0,-1.709998 -1.352,-2.542998 -2.976,-2.542998 -1.107,-0.025 -2.205,0.207 -3.21,0.676 l -0.29,1.723998 1.71,0.182 0.245,-0.841998 c 0.358,-0.168 0.753,-0.242 1.147,-0.216 1.214,0 1.23,0.912998 1.23,1.689998 v 0.234 c -0.407,-0.048 -0.818,-0.07 -1.23,-0.068 -1.71,0 -3.49,0.433 -3.49,2.276 0,1.563001 1.23,2.144001 2.31,2.144001 1.022,-0.003 1.954,-0.58 2.41,-1.494001 0.018,0.880001 0.77,1.563001 1.648,1.494001 0.472,0 0.936,-0.117 1.353,-0.338 z m -4.604,-0.05 c -0.504,0.063 -0.936,-0.362 -0.88,-0.867 0,-0.815 0.677,-1.015 1.432,-1.015 0.36,0.008 0.722,0.04 1.078,0.098 -0.05,1.235 -0.852,1.783 -1.63,1.783 z m -4.99,-10.073998 -3.24,11.432999 h 2.11 l 3.242,-11.430999 z m -4.353,0 -3.24,11.432999 h 2.11 l 3.24,-11.432999 z m -6.89,6.644998 h 2.243 v -2.704998 h -2.242 z m 0,4.802001 h 2.243 v -2.706001 h -2.242 z m -3.617,-1.640001 h -2.428 l 4.156,-4.735998 -0.166,-1.13 h -6.58 l -0.268,2.629998 1.546,0.164 0.338,-1.162998 h 2.343 l -4.123,4.733998 0.216,1.130001 h 6.544 l 0.467,-2.630001 -1.69,-0.164 z m -10.385,-6.016998 c -2.706,0 -4.02,1.812 -4.02,4.003998 0,2.394 1.595,3.804001 3.905,3.804001 2.394,0 4.122,-1.510001 4.122,-3.905001 -0.003,-2.092998 -1.32,-3.905998 -4.01,-3.905998 z m -0.054,6.153998 c -1.165,0 -1.763,-0.997 -1.763,-2.292 0,-1.414 0.676,-2.229998 1.778,-2.229998 1.015,0 1.83,0.677 1.83,2.195998 0,1.438 -0.73,2.327 -1.846,2.327 z m -5.906,-3.564 c 0,-1.779998 -1.224,-2.593998 -2.577,-2.593998 -1.075,-0.04 -2.057,0.607 -2.44,1.612 -0.367,-1.1 -1.364,-1.613 -2.443,-1.613 -0.94,-0.04 -1.82,0.455 -2.276,1.278 v -1.13 h -3.14 v 1.63 h 0.996 v 4.239998 h -0.997 v 1.630001 h 4.572 v -1.630001 h -1.432 v -2.603 c 0,-1.048 0.433,-1.779998 1.448,-1.779998 0.845,0 1.278,0.502 1.278,1.796998 v 4.224001 h 3.14 v -1.630001 h -0.996 v -2.612 c 0,-1.048 0.433,-1.779998 1.447,-1.779998 0.846,0 1.278,0.502 1.278,1.796998 v 4.214001 h 3.142 v -1.630001 h -0.998 z m 78.791,-22.389998 h -6.29 c 0.23,-1.935 1.16,-3.558 3.274,-3.558 2.245,0 3.2,1.857 3.016,3.558 z m 73.978,-16.99 v 29.137 h -169.2 v -29.137 z m -147.246,6.885 h -3.85 l -6.346,13.125 h -0.104 l -6.524,-13.126 h -3.84 v 1.65 h 2.19 v 13.446 h -2.112 v 1.65 h 5.927 v -1.65 h -2.012 v -10.74 h 0.1 l 5.75,11.553 h 1.015 l 5.62,-11.474 h 0.105 v 10.66 h -1.962 v 1.65 h 5.942 v -1.65 h -2.09 v -13.443 h 2.19 z m 9.993,16.76 c 5.285,0 8.484,-3.48 8.484,-8.42 0,-4.847 -3.094,-8.353 -8.56,-8.353 h -7.503 v 1.623 h 2.114 v 13.527 h -2.114 v 1.623 z m 27.05,-16.76 h -6.426 v 1.65 h 2.526 v 11.268 h -0.1 l -9.539,-12.918 h -3.61 v 1.65 h 2.22 v 13.445 h -1.935 v 1.65 h 6.385 v -1.65 h -2.655 v -11.536 h 0.1 l 9.724,13.202 h 1.21 v -15.111 h 2.09 z m 26.71,5.29 h -5.156 v 1.467 h 1.83 l -1.857,7.247 h -0.128 l -3.586,-8.716 h -1.21 l -3.423,8.718 h -0.127 l -2.14,-7.247 h 1.933 v -1.47 h -5.41 v 1.467 h 1.522 l 3.25,10.003 h 1.352 l 3.432,-8.766 h 0.13 l 3.496,8.765 h 1.393 l 3.122,-10.003 h 1.573 z m 6.704,11.727 c 2.837,0 4.514,-1.583 4.83,-3.568 l -1.523,-0.338 c -0.36,1.42 -1.365,2.347 -3.17,2.347 -2.283,0 -3.53,-1.468 -3.636,-4.02 h 8.058 c 0.1,-0.445 0.153,-0.898 0.156,-1.354 -0.024,-2.71 -1.728,-5.03 -4.873,-5.03 -3.246,0 -5.26,2.58 -5.26,6.14 0,3.712 2.162,5.825 5.412,5.825 z m 13.408,0 c 3.663,0 5.134,-3.25 5.134,-6.294 0,-3.642 -2.063,-5.67 -4.924,-5.67 -2.19,0 -3.402,1.186 -4.1,2.603 v -8.636 h -3.53 v 1.47 h 1.692 v 12.923 c -0.03,1.124 -0.143,2.244 -0.338,3.35 h 1.805 c 0.028,-0.127 0.235,-1.778 0.235,-1.906 0.747,1.39 2.242,2.165 4.02,2.165 z m 26.198,-1.728 h -1.985 v -16.27 h -4.6 v 1.47 h 2.798 v 6.653 c -0.748,-1.342 -2.15,-2.09 -3.842,-2.09 -3.74,0 -5.183,3.2 -5.183,6.267 0,3.584 1.958,5.698 4.924,5.698 2.087,0 3.352,-1.224 4.1,-2.577 v 2.323 h 3.784 z m 6.963,1.728 c 3.53,0 5.75,-2.526 5.742,-6.006 0,-3.25 -1.934,-5.982 -5.647,-5.982 -3.713,0 -5.67,2.735 -5.67,6.087 0,3.457 2.09,5.905 5.568,5.905 z m 12.942,0 c 3.172,0 4.538,-2.114 4.866,-4.112 l -1.548,-0.34 c -0.334,1.885 -1.315,2.917 -3.094,2.917 -2.27,0 -3.507,-1.637 -3.507,-4.397 0,-2.475 0.982,-4.487 3.43,-4.487 0.862,-0.03 1.713,0.195 2.45,0.646 l 0.42,1.936 1.496,-0.18 -0.44,-2.758 c -1.16,-0.876 -2.397,-1.187 -3.92,-1.187 -3.556,0 -5.362,2.966 -5.362,6.14 0,3.685 2.036,5.825 5.208,5.825 z m 11.166,0 c 2.76,0 4.874,-1.34 4.847,-3.595 0,-4.565 -7.1,-2.195 -7.1,-5.184 0,-1.177 1.03,-1.69 2.474,-1.69 0.826,-0.015 1.64,0.18 2.368,0.567 l 0.267,1.864 1.495,-0.18 -0.284,-2.68 c -1.22,-0.692 -2.596,-1.057 -3.997,-1.06 -2.088,0 -4.255,0.903 -4.255,3.328 0,4.46 7.193,2.063 7.193,5.208 0,1.315 -1.495,1.934 -3.095,1.934 -0.883,0.007 -1.756,-0.187 -2.553,-0.568 l 0.078,-1.522 -1.444,-0.156 -0.362,2.604 c 0.977,0.643 2.736,1.133 4.36,1.133 z m -54.042,-6.11 c 0,2.373 -1.058,4.564 -3.584,4.564 -1.94,0.044 -3.534,-1.516 -3.534,-3.456 v -1.728 c 0.05,-1.7 1.444,-3.686 3.635,-3.686 1.948,0 3.48,1.444 3.483,4.305 z m 19.18,-1.06 v 1.833 c -0.076,1.73 -1.57,3.79 -3.634,3.79 -1.985,0 -3.48,-1.47 -3.48,-4.28 0,-2.425 1.133,-4.59 3.686,-4.59 1.84,-0.04 3.37,1.41 3.43,3.248 z m 14.597,1.133 c 0,2.58 -1.34,4.488 -3.79,4.488 -2.453,0 -3.74,-1.958 -3.74,-4.46 0,-2.55 1.34,-4.434 3.74,-4.434 2.397,0 3.79,1.778 3.79,4.405 z m -104.39,-2.593 c 0,4.16 -2.32,6.763 -6.574,6.763 h -3.478 v -13.527 h 3.466 c 4.254,0 6.574,2.71 6.587,6.764 z m -88.069,-15.272 h 47.956 v 47.955999 h -47.956 z m 41.894,22.02 c -0.036,-0.723 -0.12,-1.448 -0.17,-2.166 -0.027,-0.36 -0.165,-0.702 -0.395,-0.98 -0.272,-0.332 -0.626,-0.587 -1.026,-0.74 -0.808,-0.314 -1.622,-0.664 -2.435,-0.975 -1.152,-0.395 -2.27,-0.886 -3.342,-1.472 -0.72,-0.415 -1.2,-1.147 -1.296,-1.972 -0.106,-0.933 -0.654,-1.762 -1.47,-2.228 -0.906,-0.487 -1.963,-0.612 -2.958,-0.35 -0.734,0.176 -1.5,0.165 -2.23,-0.033 l -1.112,-0.34 -0.302,-0.09 -0.873,-0.26 c -1.57,-0.468 -2.228,-0.713 -4.773,-0.278 -2.682,0.608 -5.137,1.96 -7.09,3.897 l -6.37,6.76 h 5.72 l -3.504,3.71 h 6.026 l -3.503,3.71 h 4.844 l -1.548,4.06 c 5.93,6.07 12.25,7.294998 12.25,7.294998 0,-1.672998 0.38,-8.239998 0.826,-9.339998 0.167,-0.552 0.425,-1.07 0.762,-1.54 0.827,-1.014 2.082,-1.588 3.393,-1.547 1.303,0 2.597,0.238 3.815,0.702 0.74,0.31 1.577,0.264 2.277,-0.122 0.507,-0.3 1.007,-0.618 1.498,-0.94 0.157,-0.125 0.355,-0.188 0.556,-0.18 0.54,0.06 1.054,-0.237 1.27,-0.734 0.16,-0.33 0.35,-0.64 0.524,-0.97 0.472,-0.884 0.69,-1.88 0.633,-2.88 z"
       id="path838"
       d="m 79.97328,86.952481 h 59.917 v 17.131999 h -59.919 z m 57.23,12.299998 c -0.103,0.03 -0.21,0.048 -0.316,0.05 -0.338,0 -0.514,-0.15 -0.514,-0.582 v -3.256 c 0,-1.709998 -1.352,-2.542998 -2.976,-2.542998 -1.107,-0.025 -2.205,0.207 -3.21,0.676 l -0.29,1.723998 1.71,0.182 0.245,-0.841998 c 0.358,-0.168 0.753,-0.242 1.147,-0.216 1.214,0 1.23,0.912998 1.23,1.689998 v 0.234 c -0.407,-0.048 -0.818,-0.07 -1.23,-0.068 -1.71,0 -3.49,0.433 -3.49,2.276 0,1.563001 1.23,2.144001 2.31,2.144001 1.022,-0.003 1.954,-0.58 2.41,-1.494001 0.018,0.880001 0.77,1.563001 1.648,1.494001 0.472,0 0.936,-0.117 1.353,-0.338 z m -4.604,-0.05 c -0.504,0.063 -0.936,-0.362 -0.88,-0.867 0,-0.815 0.677,-1.015 1.432,-1.015 0.36,0.008 0.722,0.04 1.078,0.098 -0.05,1.235 -0.852,1.783 -1.63,1.783 z m -4.99,-10.073998 -3.24,11.432999 h 2.11 l 3.242,-11.430999 z m -4.353,0 -3.24,11.432999 h 2.11 l 3.24,-11.432999 z m -6.89,6.644998 h 2.243 v -2.704998 h -2.242 z m 0,4.802001 h 2.243 v -2.706001 h -2.242 z m -3.617,-1.640001 h -2.428 l 4.156,-4.735998 -0.166,-1.13 h -6.58 l -0.268,2.629998 1.546,0.164 0.338,-1.162998 h 2.343 l -4.123,4.733998 0.216,1.130001 h 6.544 l 0.467,-2.630001 -1.69,-0.164 z m -10.385,-6.016998 c -2.706,0 -4.02,1.812 -4.02,4.003998 0,2.394 1.595,3.804001 3.905,3.804001 2.394,0 4.122,-1.510001 4.122,-3.905001 -0.003,-2.092998 -1.32,-3.905998 -4.01,-3.905998 z m -0.054,6.153998 c -1.165,0 -1.763,-0.997 -1.763,-2.292 0,-1.414 0.676,-2.229998 1.778,-2.229998 1.015,0 1.83,0.677 1.83,2.195998 0,1.438 -0.73,2.327 -1.846,2.327 z m -5.906,-3.564 c 0,-1.779998 -1.224,-2.593998 -2.577,-2.593998 -1.075,-0.04 -2.057,0.607 -2.44,1.612 -0.367,-1.1 -1.364,-1.613 -2.443,-1.613 -0.94,-0.04 -1.82,0.455 -2.276,1.278 v -1.13 h -3.14 v 1.63 h 0.996 v 4.239998 h -0.997 v 1.630001 h 4.572 v -1.630001 h -1.432 v -2.603 c 0,-1.048 0.433,-1.779998 1.448,-1.779998 0.845,0 1.278,0.502 1.278,1.796998 v 4.224001 h 3.14 v -1.630001 h -0.996 v -2.612 c 0,-1.048 0.433,-1.779998 1.447,-1.779998 0.846,0 1.278,0.502 1.278,1.796998 v 4.214001 h 3.142 v -1.630001 h -0.998 z m 78.791,-22.389998 h -6.29 c 0.23,-1.935 1.16,-3.558 3.274,-3.558 2.245,0 3.2,1.857 3.016,3.558 z m 73.978,-16.99 v 29.137 h -169.2 v -29.137 z m -147.246,6.885 h -3.85 l -6.346,13.125 h -0.104 l -6.524,-13.126 h -3.84 v 1.65 h 2.19 v 13.446 h -2.112 v 1.65 h 5.927 v -1.65 h -2.012 v -10.74 h 0.1 l 5.75,11.553 h 1.015 l 5.62,-11.474 h 0.105 v 10.66 h -1.962 v 1.65 h 5.942 v -1.65 h -2.09 v -13.443 h 2.19 z m 9.993,16.76 c 5.285,0 8.484,-3.48 8.484,-8.42 0,-4.847 -3.094,-8.353 -8.56,-8.353 h -7.503 v 1.623 h 2.114 v 13.527 h -2.114 v 1.623 z m 27.05,-16.76 h -6.426 v 1.65 h 2.526 v 11.268 h -0.1 l -9.539,-12.918 h -3.61 v 1.65 h 2.22 v 13.445 h -1.935 v 1.65 h 6.385 v -1.65 h -2.655 v -11.536 h 0.1 l 9.724,13.202 h 1.21 v -15.111 h 2.09 z m 26.71,5.29 h -5.156 v 1.467 h 1.83 l -1.857,7.247 h -0.128 l -3.586,-8.716 h -1.21 l -3.423,8.718 h -0.127 l -2.14,-7.247 h 1.933 v -1.47 h -5.41 v 1.467 h 1.522 l 3.25,10.003 h 1.352 l 3.432,-8.766 h 0.13 l 3.496,8.765 h 1.393 l 3.122,-10.003 h 1.573 z m 6.704,11.727 c 2.837,0 4.514,-1.583 4.83,-3.568 l -1.523,-0.338 c -0.36,1.42 -1.365,2.347 -3.17,2.347 -2.283,0 -3.53,-1.468 -3.636,-4.02 h 8.058 c 0.1,-0.445 0.153,-0.898 0.156,-1.354 -0.024,-2.71 -1.728,-5.03 -4.873,-5.03 -3.246,0 -5.26,2.58 -5.26,6.14 0,3.712 2.162,5.825 5.412,5.825 z m 13.408,0 c 3.663,0 5.134,-3.25 5.134,-6.294 0,-3.642 -2.063,-5.67 -4.924,-5.67 -2.19,0 -3.402,1.186 -4.1,2.603 v -8.636 h -3.53 v 1.47 h 1.692 v 12.923 c -0.03,1.124 -0.143,2.244 -0.338,3.35 h 1.805 c 0.028,-0.127 0.235,-1.778 0.235,-1.906 0.747,1.39 2.242,2.165 4.02,2.165 z m 26.198,-1.728 h -1.985 v -16.27 h -4.6 v 1.47 h 2.798 v 6.653 c -0.748,-1.342 -2.15,-2.09 -3.842,-2.09 -3.74,0 -5.183,3.2 -5.183,6.267 0,3.584 1.958,5.698 4.924,5.698 2.087,0 3.352,-1.224 4.1,-2.577 v 2.323 h 3.784 z m 6.963,1.728 c 3.53,0 5.75,-2.526 5.742,-6.006 0,-3.25 -1.934,-5.982 -5.647,-5.982 -3.713,0 -5.67,2.735 -5.67,6.087 0,3.457 2.09,5.905 5.568,5.905 z m 12.942,0 c 3.172,0 4.538,-2.114 4.866,-4.112 l -1.548,-0.34 c -0.334,1.885 -1.315,2.917 -3.094,2.917 -2.27,0 -3.507,-1.637 -3.507,-4.397 0,-2.475 0.982,-4.487 3.43,-4.487 0.862,-0.03 1.713,0.195 2.45,0.646 l 0.42,1.936 1.496,-0.18 -0.44,-2.758 c -1.16,-0.876 -2.397,-1.187 -3.92,-1.187 -3.556,0 -5.362,2.966 -5.362,6.14 0,3.685 2.036,5.825 5.208,5.825 z m 11.166,0 c 2.76,0 4.874,-1.34 4.847,-3.595 0,-4.565 -7.1,-2.195 -7.1,-5.184 0,-1.177 1.03,-1.69 2.474,-1.69 0.826,-0.015 1.64,0.18 2.368,0.567 l 0.267,1.864 1.495,-0.18 -0.284,-2.68 c -1.22,-0.692 -2.596,-1.057 -3.997,-1.06 -2.088,0 -4.255,0.903 -4.255,3.328 0,4.46 7.193,2.063 7.193,5.208 0,1.315 -1.495,1.934 -3.095,1.934 -0.883,0.007 -1.756,-0.187 -2.553,-0.568 l 0.078,-1.522 -1.444,-0.156 -0.362,2.604 c 0.977,0.643 2.736,1.133 4.36,1.133 z m -54.042,-6.11 c 0,2.373 -1.058,4.564 -3.584,4.564 -1.94,0.044 -3.534,-1.516 -3.534,-3.456 v -1.728 c 0.05,-1.7 1.444,-3.686 3.635,-3.686 1.948,0 3.48,1.444 3.483,4.305 z m 19.18,-1.06 v 1.833 c -0.076,1.73 -1.57,3.79 -3.634,3.79 -1.985,0 -3.48,-1.47 -3.48,-4.28 0,-2.425 1.133,-4.59 3.686,-4.59 1.84,-0.04 3.37,1.41 3.43,3.248 z m 14.597,1.133 c 0,2.58 -1.34,4.488 -3.79,4.488 -2.453,0 -3.74,-1.958 -3.74,-4.46 0,-2.55 1.34,-4.434 3.74,-4.434 2.397,0 3.79,1.778 3.79,4.405 z m -104.39,-2.593 c 0,4.16 -2.32,6.763 -6.574,6.763 h -3.478 v -13.527 h 3.466 c 4.254,0 6.574,2.71 6.587,6.764 z m -88.069,-15.272 h 47.956 v 47.955999 h -47.956 z m 41.894,22.02 c -0.036,-0.723 -0.12,-1.448 -0.17,-2.166 -0.027,-0.36 -0.165,-0.702 -0.395,-0.98 -0.272,-0.332 -0.626,-0.587 -1.026,-0.74 -0.808,-0.314 -1.622,-0.664 -2.435,-0.975 -1.152,-0.395 -2.27,-0.886 -3.342,-1.472 -0.72,-0.415 -1.2,-1.147 -1.296,-1.972 -0.106,-0.933 -0.654,-1.762 -1.47,-2.228 -0.906,-0.487 -1.963,-0.612 -2.958,-0.35 -0.734,0.176 -1.5,0.165 -2.23,-0.033 l -1.112,-0.34 -0.302,-0.09 -0.873,-0.26 c -1.57,-0.468 -2.228,-0.713 -4.773,-0.278 -2.682,0.608 -5.137,1.96 -7.09,3.897 l -6.37,6.76 h 5.72 l -3.504,3.71 h 6.026 l -3.503,3.71 h 4.844 l -1.548,4.06 c 5.93,6.07 12.25,7.294998 12.25,7.294998 0,-1.672998 0.38,-8.239998 0.826,-9.339998 0.167,-0.552 0.425,-1.07 0.762,-1.54 0.827,-1.014 2.082,-1.588 3.393,-1.547 1.303,0 2.597,0.238 3.815,0.702 0.74,0.31 1.577,0.264 2.277,-0.122 0.507,-0.3 1.007,-0.618 1.498,-0.94 0.157,-0.125 0.355,-0.188 0.556,-0.18 0.54,0.06 1.054,-0.237 1.27,-0.734 0.16,-0.33 0.35,-0.64 0.524,-0.97 0.472,-0.884 0.69,-1.88 0.633,-2.88 z"
       style="color:#000000;font-style:normal;font-variant:normal;font-weight:normal;font-stretch:normal;font-size:medium;line-height:normal;font-family:sans-serif;font-variant-ligatures:normal;font-variant-position:normal;font-variant-caps:normal;font-variant-numeric:normal;font-variant-alternates:normal;font-variant-east-asian:normal;font-feature-settings:normal;font-variation-settings:normal;text-indent:0;text-align:start;text-decoration:none;text-decoration-line:none;text-decoration-style:solid;text-decoration-color:#000000;letter-spacing:normal;word-spacing:normal;text-transform:none;writing-mode:lr-tb;direction:ltr;text-orientation:mixed;dominant-baseline:auto;baseline-shift:baseline;text-anchor:start;white-space:normal;shape-padding:0;shape-margin:0;inline-size:0;clip-rule:nonzero;display:inline;overflow:visible;visibility:visible;isolation:auto;mix-blend-mode:normal;color-interpolation:sRGB;color-interpolation-filters:linearRGB;solid-color:#000000;solid-opacity:1;vector-effect:none;fill:#000000;fill-opacity:1;fill-rule:nonzero;stroke:none;stroke-width:1;stroke-linecap:butt;stroke-linejoin:miter;stroke-miterlimit:4;stroke-dasharray:none;stroke-dashoffset:0;stroke-opacity:1;color-rendering:auto;image-rendering:auto;shape-rendering:auto;text-rendering:auto;enable-background:accumulate;stop-color:#000000;stop-opacity:1" />
    <path
       inkscape:original-d="m 29.837891,55.628906 v 0.5 48.455074 H 78.792969 V 55.628906 Z m 49.634765,0 V 85.765625 H 249.67383 V 55.628906 h -0.5 z m -48.634765,1 H 77.792969 V 103.58398 H 30.837891 Z m 49.634765,0 H 248.67383 V 84.765625 H 80.472656 Z m 97.400394,4.904297 v 2.470703 h 1.6914 v 12.410156 c -0.0293,1.099381 -0.13936,2.193706 -0.33007,3.275391 l -0.10352,0.587891 h 2.80273 l 0.0859,-0.392578 c 0.0282,-0.127689 0.033,-0.198108 0.0566,-0.375 0.0223,-0.16642 0.05,-0.377711 0.0762,-0.587891 0.92544,0.959075 2.14671,1.613281 3.63477,1.613281 h 0.17969 l 0.0781,-0.06445 c 1.83513,-0.08393 3.24057,-0.920831 4.09961,-2.162109 0.90316,-1.305039 1.28125,-2.969725 1.28125,-4.572266 0,-1.915408 -0.5458,-3.466447 -1.51758,-4.537109 -0.97177,-1.070663 -2.35761,-1.632813 -3.90625,-1.632813 -1.69581,0 -2.7716,0.782783 -3.59961,1.736328 v -7.769531 z m 27.0332,0 v 2.46875 h 2.79687 v 4.986328 c -0.8861,-0.837223 -1.99098,-1.421875 -3.34179,-1.421875 -2.0126,0 -3.49628,0.897963 -4.4043,2.195313 -0.90802,1.29735 -1.2793,2.958397 -1.2793,4.570312 0,1.883053 0.51712,3.436552 1.47461,4.523438 0.9575,1.086885 2.34743,1.675781 3.94922,1.675781 1.65851,0 2.75049,-0.807543 3.60156,-1.763672 v 1.509766 h 4.78126 l 0.008,-2.47461 h -0.50196 -1.48437 V 61.533203 Z M 103.8418,62.5 v 2.623047 h 2.11328 v 12.527344 h -2.11328 v 2.623047 h 8.07812 c 2.75225,0 5.01843,-0.917159 6.58008,-2.507813 1.56165,-1.590654 2.4043,-3.834181 2.4043,-6.412109 0,-2.529889 -0.81378,-4.75705 -2.37305,-6.34375 C 116.97198,63.423066 114.68365,62.5 111.84375,62.5 Z m -23.078128,0.01172 v 2.65039 h 2.189453 v 12.447266 h -2.111328 v 2.648437 h 6.925781 V 77.609376 H 85.755859 V 69.29297 l 5.041016,10.128906 h 1.636719 l 4.912109,-10.03125 v 8.216797 h -1.960937 v 2.65039 h 6.941404 v -2.65039 h -2.08984 v -12.44336 h 2.18945 l 0.002,-2.65039 h -0.5 -4.164058 L 91.673828,75.109375 85.414062,62.511719 Z m 40.556638,0.002 v 2.65039 h 2.22071 v 12.445313 h -1.93555 v 2.648437 h 7.38672 v -2.648437 h -2.65625 v -9.652344 l 9.07226,12.31836 h 1.96289 V 65.164062 h 2.08594 l 0.0156,-2.65039 h -0.50196 -6.92578 v 2.65039 h 2.52539 v 9.384766 l -8.88672,-12.035156 z m 57.55274,0.01953 h 2.52929 v 8.136719 l 0.89649,0.208984 c -0.52652,0.731691 -0.87188,1.56952 -0.89649,2.40625 l -0.002,0.0078 v 1.736328 c 0,2.211758 1.82984,3.999759 4.04102,3.953125 1.40425,-0.0021 2.48643,-0.649768 3.14453,-1.607422 0.65915,-0.9592 0.93359,-2.19427 0.93359,-3.455078 -0.002,-1.519658 -0.41177,-2.725879 -1.13476,-3.554688 -0.723,-0.828809 -1.75012,-1.25 -2.84766,-1.25 -1.08818,0 -1.97599,0.480339 -2.66602,1.123047 0.65,-0.935353 1.51794,-1.671875 3.13086,-1.671875 1.31236,0 2.38909,0.45085 3.16407,1.304688 0.77497,0.853837 1.25976,2.138642 1.25976,3.865234 0,1.441459 -0.35543,2.922945 -1.10351,4.003906 -0.74809,1.080962 -1.84568,1.791016 -3.5293,1.791016 h -0.0234 c -1.62333,-0.0056 -2.91315,-0.688185 -3.5625,-1.896484 l -0.94141,0.236328 c 0,-0.05138 -5.4e-4,0.01086 -0.006,0.06445 -0.005,0.05359 -0.0137,0.126915 -0.0234,0.212891 -0.0195,0.171951 -0.0448,0.392256 -0.0723,0.613281 -0.023,0.185207 -0.0458,0.358986 -0.0664,0.515625 h -0.82032 c 0.14139,-0.940687 0.2617,-1.885821 0.28711,-2.837891 v -0.0059 -13.429688 h -1.6914 z m 27.0332,0 h 3.59961 v 16.269531 h 1.98242 v 0.47461 h -2.78516 v -1.824219 l -0.9375,-0.242187 c -0.0374,0.06756 -0.1088,0.109467 -0.14843,0.175781 0.63279,-0.788109 1.04102,-1.738432 1.08203,-2.671875 v -0.0098 -1.035156 l 0.0293,0.01367 -0.0274,-0.837891 c -0.0155,-0.473725 -0.14097,-0.91498 -0.3125,-1.330078 l 0.31445,0.564453 V 63.001964 H 205.9062 Z M 104.8418,63.5 h 7.00195 c 2.6261,0 4.62038,0.830934 5.97461,2.208984 1.35423,1.37805 2.08594,3.32742 2.08594,5.644532 0,2.362071 -0.75809,4.328544 -2.11719,5.71289 -1.3591,1.384346 -3.33443,2.207032 -5.86719,2.207032 h -7.07812 v -0.623047 h 2.11328 V 64.123047 h -2.11328 z m -23.078128,0.01172 h 3.029297 l 6.52539,13.126953 h 0.726563 l 6.345703,-13.125 h 3.037105 l -0.002,0.65039 h -2.189452 v 14.44336 h 2.089842 v 0.65039 h -4.941404 v -0.65039 h 1.960937 V 66.947266 h -0.916015 l -5.621094,11.474609 h -0.392578 l -5.75,-11.552734 h -0.910157 v 11.740234 h 2.011719 v 0.648437 h -4.925781 v -0.648437 h 2.111328 V 64.162109 h -2.189453 z m 40.556638,0.002 h 2.85938 l 9.53906,12.917969 h 0.85156 V 64.164062 h -2.52539 v -0.65039 h 5.42188 l -0.004,0.65039 h -2.0918 v 15.111329 h -0.45898 l -9.72266,-13.203125 h -0.85351 v 12.537109 h 2.65625 v 0.648437 h -5.38672 v -0.648437 h 1.93555 V 64.164062 h -2.22071 z m -14.46679,0.623047 V 78.66411 h 3.97851 c 2.22898,0 4.02667,-0.696428 5.24414,-1.978515 1.11524,-1.174425 1.65984,-2.848657 1.75391,-4.785156 h 0.0781 v -0.501953 c -0.007,-2.122021 -0.62345,-3.948369 -1.83984,-5.242188 -1.21639,-1.293819 -3.01487,-2.019531 -5.24805,-2.019531 z m 1,1 h 2.96679 c 2.02083,0 3.50917,0.628444 4.51953,1.703125 1.00809,1.072257 1.55778,2.624858 1.56641,4.550781 v 0.0098 c 0,1.987051 -0.54866,3.538243 -1.55469,4.597656 -1.00602,1.059413 -2.49451,1.666015 -4.51953,1.666015 h -2.97851 z M 52.650391,65.57622 c -0.73118,-0.07009 -1.589846,-0.02602 -2.884766,0.195312 l -0.01367,0.002 -0.01367,0.0039 c -2.773704,0.628789 -5.312878,2.026685 -7.332031,4.029297 l -0.0059,0.0059 -7.169922,7.609375 h 5.71875 l -3.503907,3.708984 h 6.027344 l -3.503906,3.710938 H 45.24801 L 43.84375,88.521484 44.066406,88.75 c 6.030596,6.172971 12.513672,7.4375 12.513672,7.4375 l 0.59375,0.115234 v -0.605468 c 0,-0.798643 0.09416,-2.86945 0.244141,-4.847657 0.07499,-0.989103 0.164952,-1.960433 0.261719,-2.74414 0.09677,-0.783707 0.227505,-1.423176 0.283203,-1.560547 l 0.0098,-0.02148 0.0059,-0.02148 c 0.148657,-0.491371 0.379965,-0.953021 0.679687,-1.375 0.728886,-0.888794 1.830463,-1.393448 2.982422,-1.357422 h 0.0078 0.0078 c 1.242115,0 2.475658,0.227613 3.636719,0.669922 l -0.01563,-0.0059 c 0.880187,0.368727 1.878061,0.312787 2.710937,-0.146485 l 0.0078,-0.0039 0.0059,-0.0039 c 0.51628,-0.305491 1.022647,-0.626594 1.517578,-0.951172 l 0.01953,-0.01367 0.01758,-0.01367 c 0.06079,-0.0484 0.140877,-0.0756 0.224609,-0.07227 l -0.03516,-0.002 c 0.754601,0.08384 1.48065,-0.335097 1.783203,-1.03125 l -0.0078,0.01758 c 0.145836,-0.300787 0.33184,-0.60652 0.515625,-0.955079 0.34847,-0.653672 0.379718,-1.400058 0.466797,-2.128906 l 0.291016,0.291016 -0.06445,-1.296875 c -0.0371,-0.745002 -0.120998,-1.473227 -0.169922,-2.175781 v -0.002 c -0.03467,-0.46229 -0.213035,-0.902626 -0.507813,-1.259765 l -0.002,-0.002 C 71.724742,74.286189 71.30097,73.980617 70.822304,73.796716 l -0.0039,-0.002 c -0.795491,-0.309251 -1.609062,-0.659198 -2.433593,-0.97461 l -0.0098,-0.0039 -0.0078,-0.002 c -1.12288,-0.385015 -2.211439,-0.863242 -3.25586,-1.433594 -0.581036,-0.335942 -0.968714,-0.926736 -1.046875,-1.59375 v -0.002 c -0.124589,-1.09128 -0.765257,-2.058996 -1.71875,-2.603515 l -0.0059,-0.0039 -0.0059,-0.002 C 61.316562,66.628889 60.12891,66.487075 59.011719,66.78125 l 0.01172,-0.002 C 58.370734,66.935803 57.690244,66.926092 57.041016,66.75 L 55.941406,66.414062 55.638672,66.324219 54.765625,66.0625 C 53.98519,65.829861 53.38157,65.646267 52.650391,65.576172 Z m -0.09766,0.976562 c 0.626571,0.06065 1.136217,0.23339 1.925782,0.46875 h 0.002 l 0.871093,0.259766 0.300782,0.08984 1.11914,0.341797 0.0078,0.002 c 0.810771,0.219908 1.661266,0.232603 2.476562,0.03711 l 0.0059,-0.002 0.0039,-0.002 c 0.871513,-0.229484 1.798007,-0.116939 2.591797,0.308594 0.672534,0.388198 1.125385,1.07354 1.21289,1.84375 0.114193,0.981338 0.685878,1.853638 1.542969,2.347656 l 0.0059,0.0039 0.0039,0.002 c 1.097239,0.599797 2.241555,1.101819 3.419922,1.50586 0.795169,0.304664 1.601985,0.652406 2.416015,0.96875 h 0.002 c 0.318795,0.121939 0.601598,0.32722 0.818359,0.591796 h 0.002 c 0.164229,0.198504 0.261987,0.442375 0.28125,0.699219 0.04687,0.672319 0.117425,1.330899 0.15625,1.976563 l 0.0098,0.177734 c 0.0518,0.908854 -0.145587,1.812458 -0.574219,2.615234 v 0.002 l -0.002,0.002 c -0.164215,0.311441 -0.357086,0.625161 -0.53125,0.984375 l -0.0039,0.0098 -0.0039,0.0098 c -0.129447,0.297848 -0.43046,0.471702 -0.755859,0.435547 l -0.01758,-0.002 h -0.01953 c -0.318267,-0.01267 -0.633506,0.08551 -0.886718,0.287109 l 0.03711,-0.02539 c -0.482679,0.316542 -0.971683,0.627722 -1.464844,0.919921 -5.99e-4,3.31e-4 -0.0014,-3.3e-4 -0.002,0 -0.566753,0.311816 -1.240665,0.348664 -1.839844,0.09766 l -0.0078,-0.002 -0.0078,-0.0039 C 64.376023,83.019177 63.025209,82.772469 61.664062,82.771484 60.200354,82.728278 58.798442,83.36775 57.875,84.5 l -0.0098,0.01172 -0.0098,0.01367 c -0.36283,0.506023 -0.638852,1.065958 -0.822266,1.662109 -0.16371,0.412029 -0.246859,0.994383 -0.345703,1.794922 -0.09992,0.809261 -0.189865,1.791744 -0.265625,2.791016 -0.130304,1.718691 -0.190523,3.220049 -0.212891,4.234374 C 55.413539,94.830595 50.344071,93.579469 45.015625,88.25 l 1.681641,-4.408203 h -4.408204 l 3.501954,-3.710938 h -6.025391 l 3.503906,-3.708984 h -5.722656 l 5.564453,-5.90625 0.002,-0.002 c 1.88314,-1.866989 4.248071,-3.169285 6.832031,-3.757813 1.239897,-0.211252 1.983675,-0.263506 2.607422,-0.203125 z m 166.496099,0.990235 c -1.97927,0 -3.55861,0.748097 -4.60547,1.958984 -1.04686,1.210887 -1.56445,2.853648 -1.56445,4.626953 0,1.829262 0.55668,3.437529 1.61132,4.587891 1.05465,1.150362 2.59877,1.818359 4.45508,1.818359 h 0.13281 l 0.0723,-0.04102 c 1.79007,-0.05023 3.31507,-0.694963 4.36523,-1.820313 1.09193,-1.170098 1.68394,-2.803791 1.67969,-4.65039 -3.9e-4,-1.723431 -0.51399,-3.340884 -1.55469,-4.53711 -1.04109,-1.196689 -2.61266,-1.943359 -4.59179,-1.943359 z m -46.82227,0.02539 c -1.75547,0 -3.23342,0.716473 -4.23242,1.914063 -0.999,1.197589 -1.52734,2.850321 -1.52734,4.724609 0,1.953073 0.57519,3.55013 1.625,4.650391 1.0498,1.100261 2.55375,1.675781 4.28711,1.675781 h 0.0801 l 0.0664,-0.02344 c 2.93504,-0.05924 4.83693,-1.791149 5.18359,-3.96875 l 0.0723,-0.464844 -2.45508,-0.544922 -0.11914,0.470703 c -0.15913,0.627688 -0.44464,1.104187 -0.86719,1.435547 -0.42255,0.33136 -1.00145,0.533203 -1.81836,0.533203 -1.03433,0 -1.75157,-0.31141 -2.26171,-0.884765 -0.41027,-0.461093 -0.58156,-1.269912 -0.70313,-2.134766 h 7.78711 l 0.0879,-0.390625 c 0.10763,-0.478949 0.16473,-0.966423 0.16797,-1.458985 v -0.0039 -0.0039 c -0.0129,-1.458521 -0.47927,-2.83849 -1.39453,-3.861328 -0.91527,-1.022838 -2.28307,-1.664063 -3.97852,-1.664063 z m 59.82227,0 c -1.91702,0 -3.42757,0.82454 -4.40821,2.070313 -0.98063,1.245773 -1.45507,2.888479 -1.45507,4.570312 0,1.934585 0.53889,3.524698 1.54492,4.63086 1.00603,1.106162 2.46562,1.693359 4.16406,1.693359 h 0.35938 l 0.0234,-0.07031 c 1.48735,-0.0893 2.67457,-0.589399 3.47071,-1.384766 0.87064,-0.869808 1.32845,-1.997451 1.50586,-3.078125 l 0.0781,-0.46875 -2.51953,-0.552734 -0.0918,0.513672 c -0.15506,0.875128 -0.45147,1.495398 -0.86132,1.892578 -0.40986,0.397179 -0.94742,0.611328 -1.74024,0.611328 -1.01481,0 -1.71162,-0.337567 -2.21094,-0.972656 -0.49931,-0.63509 -0.79687,-1.62048 -0.79687,-2.925782 0,-1.171372 0.24084,-2.198166 0.71094,-2.890625 0.47009,-0.692459 1.13368,-1.095703 2.2207,-1.095703 h 0.008 0.01 c 0.70519,-0.02454 1.38638,0.1864 2.0039,0.527344 l 0.45508,2.105469 2.46485,-0.296875 -0.55469,-3.46875 -0.16016,-0.121094 c -1.251,-0.944721 -2.62963,-1.289063 -4.2207,-1.289063 z m 11.08203,0.0039 c -1.11608,0 -2.26793,0.233334 -3.18555,0.83789 -0.91762,0.604557 -1.56836,1.6288 -1.56836,2.990235 0,1.249398 0.56209,2.143182 1.34571,2.667968 0.78361,0.524786 1.74077,0.741421 2.65429,0.919922 0.91353,0.178502 1.79432,0.319898 2.37305,0.566407 0.28937,0.123254 0.49429,0.266422 0.62109,0.423828 0.12681,0.157405 0.19727,0.333031 0.19727,0.630859 0,0.46802 -0.22258,0.761803 -0.68945,1.021484 -0.46688,0.259682 -1.16878,0.41211 -1.9043,0.41211 h -0.002 -0.002 c -0.70175,0.0056 -1.38114,-0.187434 -2.02929,-0.451172 l 0.082,-1.585938 -2.39649,-0.257812 -0.47265,3.396484 0.26367,0.173828 c 1.10977,0.730383 2.91019,1.214844 4.63476,1.214844 h 0.0918 l 0.0488,-0.01953 c 1.40461,-0.02179 2.67649,-0.354898 3.625,-1.027344 0.9796,-0.694488 1.60455,-1.770687 1.58984,-3.054687 -0.001,-1.268599 -0.54838,-2.178366 -1.32226,-2.720703 -0.77477,-0.542955 -1.7259,-0.769884 -2.63086,-0.949219 -0.90496,-0.179335 -1.77678,-0.313019 -2.34961,-0.544922 -0.28642,-0.115952 -0.48811,-0.250765 -0.60938,-0.394531 -0.12126,-0.143767 -0.1875,-0.295662 -0.1875,-0.570313 0,-0.442649 0.14328,-0.663563 0.46094,-0.863281 0.31766,-0.199718 0.85088,-0.328125 1.51367,-0.328125 h 0.004 0.004 c 0.66648,-0.0121 1.30972,0.178331 1.91015,0.458984 l 0.29102,2.027344 2.46875,-0.296875 -0.36328,-3.425781 -0.22266,-0.126953 c -1.29471,-0.734375 -2.75505,-1.121816 -4.24219,-1.125 z m -87.89844,0.228515 -3.08789,7.863281 -1.5918,-5.390624 h 1.76368 v -2.470704 h -6.41016 v 2.466797 h 1.6582 l 3.25,10.003907 h 2.05664 l 3.16016,-8.072266 3.21875,8.070312 h 2.09961 l 3.12109,-10.003906 h 1.70508 l 0.006,-2.464844 h -0.50195 -5.65625 v 2.466797 h 1.68554 l -1.37109,5.355469 -3.21875,-7.824219 z m 63.81641,0.742188 c 1.73387,0 2.98373,0.617798 3.83789,1.599609 0.85415,0.981811 1.30859,2.356992 1.30859,3.882813 0.004,1.633401 -0.51158,3.003895 -1.41015,3.966797 -0.89858,0.962901 -2.1863,1.539062 -3.83204,1.539062 h -0.0293 c -1.60975,-0.0055 -2.84172,-0.557042 -3.69727,-1.490234 -0.85985,-0.937888 -1.34765,-2.284371 -1.34765,-3.91211 0,-1.578695 0.46042,-2.978043 1.32031,-3.972656 0.85988,-0.994613 2.11587,-1.613281 3.84961,-1.613281 z m -14.6875,0.02344 c 1.54464,0 2.74718,0.653096 3.40429,1.832032 l 0.37305,0.669921 c -0.68384,-1.173177 -1.92614,-1.982221 -3.37305,-1.953125 -1.41458,0.002 -2.51854,0.636879 -3.20117,1.59375 -0.68372,0.958399 -0.97851,2.203772 -0.97851,3.494141 0,1.493671 0.39951,2.692014 1.11718,3.521484 0.71768,0.829471 1.74541,1.259766 2.86133,1.259766 1.143,0 2.11095,-0.565539 2.82032,-1.324219 -0.69656,1.022874 -1.6522,1.871094 -3.28321,1.871094 -1.36421,0 -2.43621,-0.469823 -3.19922,-1.335938 -0.763,-0.866114 -1.22461,-2.162334 -1.22461,-3.863281 0,-1.455084 0.35114,-2.926694 1.09961,-3.996093 0.74848,-1.0694 1.85659,-1.769532 3.58399,-1.769532 z m -32.13477,0.002 c 1.44956,0 2.50539,0.51737 3.23438,1.332032 0.7282,0.813785 1.12676,1.947382 1.13867,3.197265 10e-6,0.0013 -1e-5,0.0026 0,0.0039 -0.002,0.285561 -0.0555,0.567388 -0.0996,0.84961 h -8.13672 l 0.0215,0.521484 c 0.0562,1.353257 0.4183,2.4787 1.1289,3.277344 0.7106,0.798644 1.75915,1.220703 3.00781,1.220703 0.9881,0 1.81435,-0.258954 2.43555,-0.746094 0.48373,-0.37934 0.72409,-0.959265 0.94922,-1.539062 l 0.66211,0.146484 c -0.44087,1.527625 -1.77333,2.699219 -4.18359,2.699219 h -0.0176 c -1.51048,-0.0028 -2.71147,-0.483539 -3.55274,-1.365234 -0.84369,-0.884239 -1.34765,-2.200057 -1.34765,-3.958985 0,-1.685711 0.47737,-3.101574 1.29687,-4.083984 0.8195,-0.982411 1.97236,-1.554688 3.46289,-1.554688 z m 59.82227,0 c 1.38821,0 2.44194,0.28331 3.46484,1.007813 l 0.31836,2.003906 -0.52734,0.0625 -0.36914,-1.699219 -0.18164,-0.113281 c -0.81768,-0.500367 -1.76324,-0.748504 -2.72071,-0.716797 -1.35565,0.0032 -2.40591,0.603428 -3.03711,1.533203 -0.6329,0.932291 -0.88476,2.147544 -0.88476,3.451172 0,1.454698 0.32308,2.669559 1.00976,3.542969 0.68669,0.87341 1.74286,1.355469 2.99805,1.355469 0.98618,0 1.8286,-0.302508 2.4375,-0.892578 0.48846,-0.473355 0.71832,-1.20208 0.92188,-1.955078 l 0.57812,0.126953 c -0.19408,0.75588 -0.44696,1.525632 -1.01562,2.09375 -0.68736,0.686692 -1.67156,1.162109 -3.14649,1.162109 h -0.0117 c -1.46721,-0.0029 -2.60954,-0.482783 -3.41211,-1.365234 -0.80497,-0.885089 -1.28515,-2.206617 -1.28515,-3.957032 0,-1.492167 0.42887,-2.920444 1.24023,-3.951172 0.81136,-1.030727 1.98406,-1.689453 3.62305,-1.689453 z m 11.08203,0.0039 c 1.23538,0.0026 2.43903,0.330895 3.53125,0.90625 l 0.20117,1.896484 -0.51953,0.0625 -0.23437,-1.630859 -0.22461,-0.119141 c -0.80294,-0.426834 -1.70072,-0.641537 -2.61133,-0.625 -0.77679,0.0012 -1.47947,0.129147 -2.03516,0.478516 -0.55834,0.351032 -0.92969,0.976586 -0.92969,1.710937 0,0.472599 0.15486,0.898274 0.42188,1.214844 0.26702,0.316569 0.62079,0.524217 1,0.677734 0.75842,0.307035 1.66121,0.425241 2.53125,0.597657 0.87004,0.172415 1.69352,0.397126 2.25,0.787109 0.55648,0.389983 0.89648,0.894609 0.89648,1.90625 v 0.002 0.0039 c 0.0116,0.970103 -0.40783,1.68962 -1.16797,2.228516 -0.76013,0.538895 -1.8806,0.861328 -3.17968,0.861328 h -0.0215 c -1.40355,-0.0027 -2.90255,-0.436842 -3.79687,-0.9375 l 0.24219,-1.748047 0.49218,0.05273 -0.0723,1.382812 0.30078,0.144531 c 0.86559,0.413792 1.8146,0.624789 2.77344,0.617188 0.86307,-4.92e-4 1.70715,-0.15913 2.38671,-0.53711 0.68063,-0.378568 1.20313,-1.049504 1.20313,-1.896484 0,-0.488422 -0.1514,-0.926909 -0.41797,-1.257813 -0.26657,-0.330903 -0.62479,-0.552816 -1.00977,-0.716796 -0.76995,-0.32796 -1.68754,-0.45408 -2.57226,-0.626954 -0.88472,-0.172873 -1.72399,-0.391098 -2.28906,-0.769531 -0.56508,-0.378432 -0.90235,-0.857289 -0.90235,-1.83789 0,-1.063566 0.43127,-1.703057 1.11914,-2.15625 0.68788,-0.453194 1.66285,-0.671875 2.63477,-0.671875 z m -87.2168,0.228515 h 0.53516 l 3.58594,8.716797 h 0.84961 l 2.11328,-8.248047 h -1.97461 v -0.466797 h 4.15429 v 0.464844 h -1.4414 l -3.12305,10.003906 h -0.68555 l -3.49609,-8.765625 h -0.81055 l -3.43164,8.767579 h -0.64843 l -3.25,-10.003907 h -1.38477 v -0.466797 h 4.41016 v 0.470704 h -2.10157 l 2.43555,8.246093 h 0.83984 z m 16.26563,0.259766 c -1.18496,0 -2.12249,0.486601 -2.73242,1.238281 -0.60994,0.75168 -0.91668,1.730101 -1.03907,2.759766 l -0.0664,0.560547 h 7.30273 l 0.0469,-0.447266 c 0.10404,-0.961795 -0.10605,-1.970074 -0.68946,-2.765625 -0.5834,-0.795551 -1.5619,-1.345703 -2.82226,-1.345703 z m 46.82617,0.02734 c -1.33083,0 -2.4358,0.546381 -3.16016,1.447265 -0.72435,0.900885 -1.08007,2.123747 -1.08008,3.486328 0,1.336732 0.34068,2.56249 1.05665,3.476563 0.71596,0.914073 1.82405,1.484375 3.18359,1.484375 1.3548,0 2.47415,-0.553538 3.20508,-1.464844 0.73092,-0.911306 1.08594,-2.146874 1.08594,-3.523437 v -0.002 c 0,-1.401878 -0.37186,-2.623341 -1.11329,-3.507813 -0.74142,-0.884472 -1.8556,-1.396484 -3.17773,-1.396484 z m -46.82617,0.972656 c 0.98464,0 1.60628,0.379301 2.01562,0.9375 0.32117,0.437953 0.37214,1.039545 0.39453,1.621094 h -4.98242 c 0.14294,-0.633825 0.28577,-1.281009 0.61719,-1.689453 0.44107,-0.543571 1.02603,-0.869141 1.95508,-0.869141 z m 46.82617,0.02734 c 1.07487,0 1.85583,0.377784 2.41016,1.039062 0.55432,0.661278 0.88086,1.640112 0.88086,2.865235 v 0.002 c 0,1.203436 -0.31562,2.210743 -0.86719,2.898437 -0.55158,0.687694 -1.32863,1.089844 -2.42383,1.089844 -1.09347,0 -1.8557,-0.411136 -2.39648,-1.101563 -0.54079,-0.690427 -0.84375,-1.694106 -0.84376,-2.859375 10e-6,-1.187418 0.31374,-2.180759 0.85938,-2.859375 0.54564,-0.678615 1.31169,-1.074218 2.38086,-1.074218 z m -14.23438,0.02539 h 0.006 0.004 c 1.56991,-0.03413 2.86429,1.192488 2.91797,2.759766 v 1.798828 c -0.0321,0.730178 -0.3807,1.589992 -0.94727,2.236328 -0.56656,0.646336 -1.32184,1.076172 -2.1875,1.076172 -0.86907,0 -1.57939,-0.306033 -2.10547,-0.914063 -0.52607,-0.608029 -0.87304,-1.550858 -0.87304,-2.867187 0,-1.134631 0.27194,-2.183711 0.79297,-2.914063 0.52103,-0.730351 1.25741,-1.175781 2.39257,-1.175781 z m -19.23437,0.002 c 0.85045,0 1.56299,0.299763 2.09375,0.908204 0.53076,0.60844 0.88726,1.555142 0.88867,2.896484 0,1.112192 -0.25647,2.159122 -0.75781,2.888672 -0.50134,0.72955 -1.20774,1.175781 -2.32617,1.175781 h -0.006 -0.006 c -1.66596,0.03778 -3.02344,-1.288961 -3.02344,-2.955078 v -1.714844 c 0.0212,-0.71923 0.33968,-1.542927 0.88867,-2.162109 0.54899,-0.619182 1.30362,-1.03711 2.24805,-1.03711 z M 79.472656,86.453125 v 0.5 l -0.002,17.630855 H 140.39062 V 86.453125 Z m 1,1 H 139.39062 V 103.58398 H 80.470703 Z m 42.406254,1.175781 -0.10352,0.363282 -3.41992,12.068362 h 3.14844 l 3.52343,-12.431644 z m 4.35156,0 -0.10156,0.363282 -3.42188,12.068362 h 3.15039 l 3.52539,-12.429691 z m -3.5957,1 h 1.07031 l -2.95703,10.431644 h -1.07032 z m 4.35156,0 1.07422,0.002 -2.95899,10.429694 h -1.07226 z m -39.033205,2.78711 c -0.66436,-0.02553 -1.260418,0.222664 -1.785156,0.591796 v -0.447265 h -4.140625 v 2.630859 h 0.996094 v 3.240235 h -0.996094 v 2.628909 h 5.572265 v -2.628909 h -1.43164 v -2.103516 c 0,-0.455139 0.09878,-0.790909 0.242187,-0.982422 0.143407,-0.191513 0.317775,-0.296875 0.705078,-0.296875 0.323487,0 0.441578,0.05896 0.554688,0.210938 0.11311,0.151981 0.222656,0.494165 0.222656,1.085937 v 4.724607 h 4.140625 v -2.630857 h -0.996094 v -2.111328 c 0,-0.455139 0.100791,-0.792836 0.244141,-0.984375 0.14335,-0.191539 0.31644,-0.296875 0.703125,-0.296875 0.324103,0 0.441731,0.05907 0.554687,0.210937 0.112957,0.151865 0.222657,0.494038 0.222657,1.085938 v 4.71484 h 4.142578 V 98.427734 H 96.90625 l -0.002,-2.919922 c 0,-1.004605 -0.363802,-1.8128 -0.947266,-2.335937 -0.581394,-0.521281 -1.347132,-0.754204 -2.121093,-0.755859 -1.021873,-0.03451 -1.872271,0.543229 -2.449219,1.349609 -0.581302,-0.823206 -1.453237,-1.346845 -2.433594,-1.349609 z m 44.447265,0.0078 c -1.1815,-0.02542 -2.35209,0.220558 -3.42383,0.720703 l -0.23828,0.111328 -0.42187,2.50586 2.49804,0.265625 c -0.48835,0.07248 -1.00329,0.05621 -1.42968,0.27539 -0.77987,0.400886 -1.375,1.192922 -1.375,2.275391 0,0.912658 0.39063,1.625757 0.94531,2.052737 0.55468,0.42698 1.23362,0.58984 1.86328,0.58984 h 0.002 c 0.91895,-0.003 1.69423,-0.48538 2.29102,-1.15039 0.36652,0.67942 0.96912,1.20167 1.78906,1.14453 0.54613,-0.004 1.08358,-0.13382 1.56445,-0.38867 l 0.27344,-0.14648 -0.0508,-2.089848 -0.625,0.18164 c -0.0653,0.01902 -0.12978,0.0302 -0.18555,0.03125 h 0.01 c -0.095,0 -0.0565,-0.01191 -0.0195,0.02734 0.037,0.03926 0.006,0.03872 0.006,-0.109375 v -3.255859 c 0,-0.986773 -0.41693,-1.796974 -1.07032,-2.306641 -0.65227,-0.508795 -1.50654,-0.733601 -2.40234,-0.734375 z m -44.476562,0.988281 0.0098,0.002 h 0.0098 c 0.92052,10e-7 1.67302,0.385099 1.96875,1.271485 l 0.31836,0.951172 c -0.05213,0.237261 -0.19336,0.432639 -0.19336,0.691406 v 3.111328 h 0.996094 v 0.630862 h -2.140625 v -3.724612 c 0,-0.703226 -0.105282,-1.260826 -0.419922,-1.683594 -0.31464,-0.422768 -0.835908,-0.613281 -1.357422,-0.613281 -0.447372,0 -0.756399,0.261945 -1.072265,0.496094 l 0.0625,-0.111328 c 0.365026,-0.658809 1.066658,-1.053472 1.818359,-1.021485 z m 4.884766,0.002 h 0.0098 0.0098 c 0.576229,0 1.094151,0.173091 1.460937,0.501954 0.366787,0.328862 0.615235,0.816404 0.615235,1.591796 l 0.002,3.919922 h 0.998047 v 0.630851 h -2.142578 v -3.714835 c 0,-0.703098 -0.105379,-1.258755 -0.419922,-1.681641 -0.314543,-0.422885 -0.835525,-0.615234 -1.357422,-0.615234 -0.399144,0 -0.658079,0.254081 -0.957031,0.443359 0.363043,-0.655436 1.014346,-1.104707 1.78125,-1.076172 z m 39.578126,0.0078 h 0.006 0.004 c 0.72652,0 1.36241,0.189105 1.79102,0.523437 0.42861,0.334333 0.68555,0.796307 0.68555,1.519532 v 3.255859 c 0,0.283901 0.0581,0.572667 0.26757,0.794922 0.16122,0.171029 0.37439,0.194207 0.57422,0.220703 l 0.006,0.27344 c -0.27333,0.10556 -0.55016,0.21093 -0.84375,0.21093 h -0.0195 l -0.0195,0.002 c -0.59885,0.0471 -1.09709,-0.405241 -1.10937,-1.005861 L 134.04297,99.0625 c 0.37986,-0.384041 0.65715,-0.921797 0.68555,-1.623047 l 0.0176,-0.443359 -0.43554,-0.07031 c -0.38029,-0.06196 -0.76628,-0.09698 -1.14844,-0.105469 h -0.006 -0.006 c -0.42165,0 -0.85589,0.04361 -1.24805,0.269532 -0.38419,0.221335 -0.65842,0.688745 -0.66992,1.220703 -0.0659,0.783865 0.60405,1.438439 1.38477,1.373047 l -0.0176,0.01758 c 0.0112,0 0.02,-0.01347 0.0312,-0.01367 0.0121,-0.0012 0.0191,0.01323 0.0312,0.01172 l 0.4375,-0.05469 v -0.15039 c 0.13207,-0.03732 0.25217,-0.09181 0.37695,-0.15625 -0.41089,0.51518 -0.98073,0.880823 -1.6582,0.882813 -0.45034,0 -0.92359,-0.12659 -1.25391,-0.38086 -0.33031,-0.25427 -0.55468,-0.611376 -0.55468,-1.261719 0,-0.760531 0.2944,-1.108401 0.83203,-1.384766 0.53763,-0.276364 1.3454,-0.392578 2.1582,-0.392578 h 0.002 c 0.39259,-0.0019 0.78221,0.01896 1.16797,0.06445 l 0.5586,0.06641 v -0.796875 c 0,-0.391932 0.02,-0.877152 -0.20704,-1.351563 -0.225,-0.47005 -0.78141,-0.827388 -1.5039,-0.833984 -0.47347,-0.0289 -0.94627,0.05765 -1.37696,0.259765 l -0.20507,0.0957 -0.19141,0.658203 -0.76562,-0.08203 0.14648,-0.876953 c 0.87652,-0.372581 1.81,-0.603524 2.76172,-0.582031 z m -49.359376,0.138672 h 2.140625 V 96.125 l 0.115234,-0.207031 c -0.01728,0.14707 -0.115234,0.256423 -0.115234,0.410156 v 3.103516 h 1.43164 v 0.628909 h -3.572265 v -0.628909 h 0.996094 V 94.191406 H 84.027344 Z M 132.9668,94.945334 H 132.9824 133 c 0.48166,0 0.53473,0.09319 0.61914,0.269532 0.0574,0.119803 0.0605,0.385653 0.0742,0.625 -0.23119,-0.01382 -0.46166,-0.04011 -0.69336,-0.03906 h -0.004 c -0.3472,1.13e-4 -0.66395,0.153294 -1.01171,0.195313 l 0.26757,-0.917969 c 0.23137,-0.08007 0.46936,-0.149012 0.71485,-0.132813 z m 0.17968,2.875 c 0.1395,0.0032 0.27671,0.02806 0.41602,0.03906 -0.18727,0.556332 -0.54063,0.841797 -0.96289,0.841797 h -0.0684 c -0.18919,0.01776 -0.33562,-0.119638 -0.31445,-0.310547 l 0.002,-0.02734 v -0.02734 c 0,-0.269055 0.0485,-0.303029 0.18359,-0.38086 0.13442,-0.07744 0.41301,-0.13419 0.74414,-0.134766 z"
       id="path840"
       d="m 29.837891,55.628906 v 0.5 48.455074 H 78.792969 V 55.628906 Z m 49.634765,0 V 85.765625 H 249.67383 V 55.628906 h -0.5 z m -48.634765,1 H 77.792969 V 103.58398 H 30.837891 Z m 49.634765,0 H 248.67383 V 84.765625 H 80.472656 Z m 97.400394,4.904297 v 2.470703 h 1.6914 v 12.410156 c -0.0293,1.099381 -0.13936,2.193706 -0.33007,3.275391 l -0.10352,0.587891 h 2.80273 l 0.0859,-0.392578 c 0.0282,-0.127689 0.033,-0.198108 0.0566,-0.375 0.0223,-0.16642 0.05,-0.377711 0.0762,-0.587891 0.92544,0.959075 2.14671,1.613281 3.63477,1.613281 h 0.17969 l 0.0781,-0.06445 c 1.83513,-0.08393 3.24057,-0.920831 4.09961,-2.162109 0.90316,-1.305039 1.28125,-2.969725 1.28125,-4.572266 0,-1.915408 -0.5458,-3.466447 -1.51758,-4.537109 -0.97177,-1.070663 -2.35761,-1.632813 -3.90625,-1.632813 -1.69581,0 -2.7716,0.782783 -3.59961,1.736328 v -7.769531 z m 27.0332,0 v 2.46875 h 2.79687 v 4.986328 c -0.8861,-0.837223 -1.99098,-1.421875 -3.34179,-1.421875 -2.0126,0 -3.49628,0.897963 -4.4043,2.195313 -0.90802,1.29735 -1.2793,2.958397 -1.2793,4.570312 0,1.883053 0.51712,3.436552 1.47461,4.523438 0.9575,1.086885 2.34743,1.675781 3.94922,1.675781 1.65851,0 2.75049,-0.807543 3.60156,-1.763672 v 1.509766 h 4.78126 l 0.008,-2.47461 h -0.50196 -1.48437 V 61.533203 Z M 103.8418,62.5 v 2.623047 h 2.11328 v 12.527344 h -2.11328 v 2.623047 h 8.07812 c 2.75225,0 5.01843,-0.917159 6.58008,-2.507813 1.56165,-1.590654 2.4043,-3.834181 2.4043,-6.412109 0,-2.529889 -0.81378,-4.75705 -2.37305,-6.34375 C 116.97198,63.423066 114.68365,62.5 111.84375,62.5 Z m -23.078128,0.01172 v 2.65039 h 2.189453 v 12.447266 h -2.111328 v 2.648437 h 6.925781 V 77.609376 H 85.755859 V 69.29297 l 5.041016,10.128906 h 1.636719 l 4.912109,-10.03125 v 8.216797 h -1.960937 v 2.65039 h 6.941404 v -2.65039 h -2.08984 v -12.44336 h 2.18945 l 0.002,-2.65039 h -0.5 -4.164058 L 91.673828,75.109375 85.414062,62.511719 Z m 40.556638,0.002 v 2.65039 h 2.22071 v 12.445313 h -1.93555 v 2.648437 h 7.38672 v -2.648437 h -2.65625 v -9.652344 l 9.07226,12.31836 h 1.96289 V 65.164062 h 2.08594 l 0.0156,-2.65039 h -0.50196 -6.92578 v 2.65039 h 2.52539 v 9.384766 l -8.88672,-12.035156 z m 57.55274,0.01953 h 2.52929 v 8.136719 l 0.89649,0.208984 c -0.52652,0.731691 -0.87188,1.56952 -0.89649,2.40625 l -0.002,0.0078 v 1.736328 c 0,2.211758 1.82984,3.999759 4.04102,3.953125 1.40425,-0.0021 2.48643,-0.649768 3.14453,-1.607422 0.65915,-0.9592 0.93359,-2.19427 0.93359,-3.455078 -0.002,-1.519658 -0.41177,-2.725879 -1.13476,-3.554688 -0.723,-0.828809 -1.75012,-1.25 -2.84766,-1.25 -1.08818,0 -1.97599,0.480339 -2.66602,1.123047 0.65,-0.935353 1.51794,-1.671875 3.13086,-1.671875 1.31236,0 2.38909,0.45085 3.16407,1.304688 0.77497,0.853837 1.25976,2.138642 1.25976,3.865234 0,1.441459 -0.35543,2.922945 -1.10351,4.003906 -0.74809,1.080962 -1.84568,1.791016 -3.5293,1.791016 h -0.0234 c -1.62333,-0.0056 -2.91315,-0.688185 -3.5625,-1.896484 l -0.94141,0.236328 c 0,-0.05138 -5.4e-4,0.01086 -0.006,0.06445 -0.005,0.05359 -0.0137,0.126915 -0.0234,0.212891 -0.0195,0.171951 -0.0448,0.392256 -0.0723,0.613281 -0.023,0.185207 -0.0458,0.358986 -0.0664,0.515625 h -0.82032 c 0.14139,-0.940687 0.2617,-1.885821 0.28711,-2.837891 v -0.0059 -13.429688 h -1.6914 z m 27.0332,0 h 3.59961 v 16.269531 h 1.98242 v 0.47461 h -2.78516 v -1.824219 l -0.9375,-0.242187 c -0.0374,0.06756 -0.1088,0.109467 -0.14843,0.175781 0.63279,-0.788109 1.04102,-1.738432 1.08203,-2.671875 v -0.0098 -1.035156 l 0.0293,0.01367 -0.0274,-0.837891 c -0.0155,-0.473725 -0.14097,-0.91498 -0.3125,-1.330078 l 0.31445,0.564453 V 63.001964 H 205.9062 Z M 104.8418,63.5 h 7.00195 c 2.6261,0 4.62038,0.830934 5.97461,2.208984 1.35423,1.37805 2.08594,3.32742 2.08594,5.644532 0,2.362071 -0.75809,4.328544 -2.11719,5.71289 -1.3591,1.384346 -3.33443,2.207032 -5.86719,2.207032 h -7.07812 v -0.623047 h 2.11328 V 64.123047 h -2.11328 z m -23.078128,0.01172 h 3.029297 l 6.52539,13.126953 h 0.726563 l 6.345703,-13.125 h 3.037105 l -0.002,0.65039 h -2.189452 v 14.44336 h 2.089842 v 0.65039 h -4.941404 v -0.65039 h 1.960937 V 66.947266 h -0.916015 l -5.621094,11.474609 h -0.392578 l -5.75,-11.552734 h -0.910157 v 11.740234 h 2.011719 v 0.648437 h -4.925781 v -0.648437 h 2.111328 V 64.162109 h -2.189453 z m 40.556638,0.002 h 2.85938 l 9.53906,12.917969 h 0.85156 V 64.164062 h -2.52539 v -0.65039 h 5.42188 l -0.004,0.65039 h -2.0918 v 15.111329 h -0.45898 l -9.72266,-13.203125 h -0.85351 v 12.537109 h 2.65625 v 0.648437 h -5.38672 v -0.648437 h 1.93555 V 64.164062 h -2.22071 z m -14.46679,0.623047 V 78.66411 h 3.97851 c 2.22898,0 4.02667,-0.696428 5.24414,-1.978515 1.11524,-1.174425 1.65984,-2.848657 1.75391,-4.785156 h 0.0781 v -0.501953 c -0.007,-2.122021 -0.62345,-3.948369 -1.83984,-5.242188 -1.21639,-1.293819 -3.01487,-2.019531 -5.24805,-2.019531 z m 1,1 h 2.96679 c 2.02083,0 3.50917,0.628444 4.51953,1.703125 1.00809,1.072257 1.55778,2.624858 1.56641,4.550781 v 0.0098 c 0,1.987051 -0.54866,3.538243 -1.55469,4.597656 -1.00602,1.059413 -2.49451,1.666015 -4.51953,1.666015 h -2.97851 z M 52.650391,65.57622 c -0.73118,-0.07009 -1.589846,-0.02602 -2.884766,0.195312 l -0.01367,0.002 -0.01367,0.0039 c -2.773704,0.628789 -5.312878,2.026685 -7.332031,4.029297 l -0.0059,0.0059 -7.169922,7.609375 h 5.71875 l -3.503907,3.708984 h 6.027344 l -3.503906,3.710938 H 45.24801 L 43.84375,88.521484 44.066406,88.75 c 6.030596,6.172971 12.513672,7.4375 12.513672,7.4375 l 0.59375,0.115234 v -0.605468 c 0,-0.798643 0.09416,-2.86945 0.244141,-4.847657 0.07499,-0.989103 0.164952,-1.960433 0.261719,-2.74414 0.09677,-0.783707 0.227505,-1.423176 0.283203,-1.560547 l 0.0098,-0.02148 0.0059,-0.02148 c 0.148657,-0.491371 0.379965,-0.953021 0.679687,-1.375 0.728886,-0.888794 1.830463,-1.393448 2.982422,-1.357422 h 0.0078 0.0078 c 1.242115,0 2.475658,0.227613 3.636719,0.669922 l -0.01563,-0.0059 c 0.880187,0.368727 1.878061,0.312787 2.710937,-0.146485 l 0.0078,-0.0039 0.0059,-0.0039 c 0.51628,-0.305491 1.022647,-0.626594 1.517578,-0.951172 l 0.01953,-0.01367 0.01758,-0.01367 c 0.06079,-0.0484 0.140877,-0.0756 0.224609,-0.07227 l -0.03516,-0.002 c 0.754601,0.08384 1.48065,-0.335097 1.783203,-1.03125 l -0.0078,0.01758 c 0.145836,-0.300787 0.33184,-0.60652 0.515625,-0.955079 0.34847,-0.653672 0.379718,-1.400058 0.466797,-2.128906 l 0.291016,0.291016 -0.06445,-1.296875 c -0.0371,-0.745002 -0.120998,-1.473227 -0.169922,-2.175781 v -0.002 c -0.03467,-0.46229 -0.213035,-0.902626 -0.507813,-1.259765 l -0.002,-0.002 C 71.724742,74.286189 71.30097,73.980617 70.822304,73.796716 l -0.0039,-0.002 c -0.795491,-0.309251 -1.609062,-0.659198 -2.433593,-0.97461 l -0.0098,-0.0039 -0.0078,-0.002 c -1.12288,-0.385015 -2.211439,-0.863242 -3.25586,-1.433594 -0.581036,-0.335942 -0.968714,-0.926736 -1.046875,-1.59375 v -0.002 c -0.124589,-1.09128 -0.765257,-2.058996 -1.71875,-2.603515 l -0.0059,-0.0039 -0.0059,-0.002 C 61.316562,66.628889 60.12891,66.487075 59.011719,66.78125 l 0.01172,-0.002 C 58.370734,66.935803 57.690244,66.926092 57.041016,66.75 L 55.941406,66.414062 55.638672,66.324219 54.765625,66.0625 C 53.98519,65.829861 53.38157,65.646267 52.650391,65.576172 Z m -0.09766,0.976562 c 0.626571,0.06065 1.136217,0.23339 1.925782,0.46875 h 0.002 l 0.871093,0.259766 0.300782,0.08984 1.11914,0.341797 0.0078,0.002 c 0.810771,0.219908 1.661266,0.232603 2.476562,0.03711 l 0.0059,-0.002 0.0039,-0.002 c 0.871513,-0.229484 1.798007,-0.116939 2.591797,0.308594 0.672534,0.388198 1.125385,1.07354 1.21289,1.84375 0.114193,0.981338 0.685878,1.853638 1.542969,2.347656 l 0.0059,0.0039 0.0039,0.002 c 1.097239,0.599797 2.241555,1.101819 3.419922,1.50586 0.795169,0.304664 1.601985,0.652406 2.416015,0.96875 h 0.002 c 0.318795,0.121939 0.601598,0.32722 0.818359,0.591796 h 0.002 c 0.164229,0.198504 0.261987,0.442375 0.28125,0.699219 0.04687,0.672319 0.117425,1.330899 0.15625,1.976563 l 0.0098,0.177734 c 0.0518,0.908854 -0.145587,1.812458 -0.574219,2.615234 v 0.002 l -0.002,0.002 c -0.164215,0.311441 -0.357086,0.625161 -0.53125,0.984375 l -0.0039,0.0098 -0.0039,0.0098 c -0.129447,0.297848 -0.43046,0.471702 -0.755859,0.435547 l -0.01758,-0.002 h -0.01953 c -0.318267,-0.01267 -0.633506,0.08551 -0.886718,0.287109 l 0.03711,-0.02539 c -0.482679,0.316542 -0.971683,0.627722 -1.464844,0.919921 -5.99e-4,3.31e-4 -0.0014,-3.3e-4 -0.002,0 -0.566753,0.311816 -1.240665,0.348664 -1.839844,0.09766 l -0.0078,-0.002 -0.0078,-0.0039 C 64.376023,83.019177 63.025209,82.772469 61.664062,82.771484 60.200354,82.728278 58.798442,83.36775 57.875,84.5 l -0.0098,0.01172 -0.0098,0.01367 c -0.36283,0.506023 -0.638852,1.065958 -0.822266,1.662109 -0.16371,0.412029 -0.246859,0.994383 -0.345703,1.794922 -0.09992,0.809261 -0.189865,1.791744 -0.265625,2.791016 -0.130304,1.718691 -0.190523,3.220049 -0.212891,4.234374 C 55.413539,94.830595 50.344071,93.579469 45.015625,88.25 l 1.681641,-4.408203 h -4.408204 l 3.501954,-3.710938 h -6.025391 l 3.503906,-3.708984 h -5.722656 l 5.564453,-5.90625 0.002,-0.002 c 1.88314,-1.866989 4.248071,-3.169285 6.832031,-3.757813 1.239897,-0.211252 1.983675,-0.263506 2.607422,-0.203125 z m 166.496099,0.990235 c -1.97927,0 -3.55861,0.748097 -4.60547,1.958984 -1.04686,1.210887 -1.56445,2.853648 -1.56445,4.626953 0,1.829262 0.55668,3.437529 1.61132,4.587891 1.05465,1.150362 2.59877,1.818359 4.45508,1.818359 h 0.13281 l 0.0723,-0.04102 c 1.79007,-0.05023 3.31507,-0.694963 4.36523,-1.820313 1.09193,-1.170098 1.68394,-2.803791 1.67969,-4.65039 -3.9e-4,-1.723431 -0.51399,-3.340884 -1.55469,-4.53711 -1.04109,-1.196689 -2.61266,-1.943359 -4.59179,-1.943359 z m -46.82227,0.02539 c -1.75547,0 -3.23342,0.716473 -4.23242,1.914063 -0.999,1.197589 -1.52734,2.850321 -1.52734,4.724609 0,1.953073 0.57519,3.55013 1.625,4.650391 1.0498,1.100261 2.55375,1.675781 4.28711,1.675781 h 0.0801 l 0.0664,-0.02344 c 2.93504,-0.05924 4.83693,-1.791149 5.18359,-3.96875 l 0.0723,-0.464844 -2.45508,-0.544922 -0.11914,0.470703 c -0.15913,0.627688 -0.44464,1.104187 -0.86719,1.435547 -0.42255,0.33136 -1.00145,0.533203 -1.81836,0.533203 -1.03433,0 -1.75157,-0.31141 -2.26171,-0.884765 -0.41027,-0.461093 -0.58156,-1.269912 -0.70313,-2.134766 h 7.78711 l 0.0879,-0.390625 c 0.10763,-0.478949 0.16473,-0.966423 0.16797,-1.458985 v -0.0039 -0.0039 c -0.0129,-1.458521 -0.47927,-2.83849 -1.39453,-3.861328 -0.91527,-1.022838 -2.28307,-1.664063 -3.97852,-1.664063 z m 59.82227,0 c -1.91702,0 -3.42757,0.82454 -4.40821,2.070313 -0.98063,1.245773 -1.45507,2.888479 -1.45507,4.570312 0,1.934585 0.53889,3.524698 1.54492,4.63086 1.00603,1.106162 2.46562,1.693359 4.16406,1.693359 h 0.35938 l 0.0234,-0.07031 c 1.48735,-0.0893 2.67457,-0.589399 3.47071,-1.384766 0.87064,-0.869808 1.32845,-1.997451 1.50586,-3.078125 l 0.0781,-0.46875 -2.51953,-0.552734 -0.0918,0.513672 c -0.15506,0.875128 -0.45147,1.495398 -0.86132,1.892578 -0.40986,0.397179 -0.94742,0.611328 -1.74024,0.611328 -1.01481,0 -1.71162,-0.337567 -2.21094,-0.972656 -0.49931,-0.63509 -0.79687,-1.62048 -0.79687,-2.925782 0,-1.171372 0.24084,-2.198166 0.71094,-2.890625 0.47009,-0.692459 1.13368,-1.095703 2.2207,-1.095703 h 0.008 0.01 c 0.70519,-0.02454 1.38638,0.1864 2.0039,0.527344 l 0.45508,2.105469 2.46485,-0.296875 -0.55469,-3.46875 -0.16016,-0.121094 c -1.251,-0.944721 -2.62963,-1.289063 -4.2207,-1.289063 z m 11.08203,0.0039 c -1.11608,0 -2.26793,0.233334 -3.18555,0.83789 -0.91762,0.604557 -1.56836,1.6288 -1.56836,2.990235 0,1.249398 0.56209,2.143182 1.34571,2.667968 0.78361,0.524786 1.74077,0.741421 2.65429,0.919922 0.91353,0.178502 1.79432,0.319898 2.37305,0.566407 0.28937,0.123254 0.49429,0.266422 0.62109,0.423828 0.12681,0.157405 0.19727,0.333031 0.19727,0.630859 0,0.46802 -0.22258,0.761803 -0.68945,1.021484 -0.46688,0.259682 -1.16878,0.41211 -1.9043,0.41211 h -0.002 -0.002 c -0.70175,0.0056 -1.38114,-0.187434 -2.02929,-0.451172 l 0.082,-1.585938 -2.39649,-0.257812 -0.47265,3.396484 0.26367,0.173828 c 1.10977,0.730383 2.91019,1.214844 4.63476,1.214844 h 0.0918 l 0.0488,-0.01953 c 1.40461,-0.02179 2.67649,-0.354898 3.625,-1.027344 0.9796,-0.694488 1.60455,-1.770687 1.58984,-3.054687 -0.001,-1.268599 -0.54838,-2.178366 -1.32226,-2.720703 -0.77477,-0.542955 -1.7259,-0.769884 -2.63086,-0.949219 -0.90496,-0.179335 -1.77678,-0.313019 -2.34961,-0.544922 -0.28642,-0.115952 -0.48811,-0.250765 -0.60938,-0.394531 -0.12126,-0.143767 -0.1875,-0.295662 -0.1875,-0.570313 0,-0.442649 0.14328,-0.663563 0.46094,-0.863281 0.31766,-0.199718 0.85088,-0.328125 1.51367,-0.328125 h 0.004 0.004 c 0.66648,-0.0121 1.30972,0.178331 1.91015,0.458984 l 0.29102,2.027344 2.46875,-0.296875 -0.36328,-3.425781 -0.22266,-0.126953 c -1.29471,-0.734375 -2.75505,-1.121816 -4.24219,-1.125 z m -87.89844,0.228515 -3.08789,7.863281 -1.5918,-5.390624 h 1.76368 v -2.470704 h -6.41016 v 2.466797 h 1.6582 l 3.25,10.003907 h 2.05664 l 3.16016,-8.072266 3.21875,8.070312 h 2.09961 l 3.12109,-10.003906 h 1.70508 l 0.006,-2.464844 h -0.50195 -5.65625 v 2.466797 h 1.68554 l -1.37109,5.355469 -3.21875,-7.824219 z m 63.81641,0.742188 c 1.73387,0 2.98373,0.617798 3.83789,1.599609 0.85415,0.981811 1.30859,2.356992 1.30859,3.882813 0.004,1.633401 -0.51158,3.003895 -1.41015,3.966797 -0.89858,0.962901 -2.1863,1.539062 -3.83204,1.539062 h -0.0293 c -1.60975,-0.0055 -2.84172,-0.557042 -3.69727,-1.490234 -0.85985,-0.937888 -1.34765,-2.284371 -1.34765,-3.91211 0,-1.578695 0.46042,-2.978043 1.32031,-3.972656 0.85988,-0.994613 2.11587,-1.613281 3.84961,-1.613281 z m -14.6875,0.02344 c 1.54464,0 2.74718,0.653096 3.40429,1.832032 l 0.37305,0.669921 c -0.68384,-1.173177 -1.92614,-1.982221 -3.37305,-1.953125 -1.41458,0.002 -2.51854,0.636879 -3.20117,1.59375 -0.68372,0.958399 -0.97851,2.203772 -0.97851,3.494141 0,1.493671 0.39951,2.692014 1.11718,3.521484 0.71768,0.829471 1.74541,1.259766 2.86133,1.259766 1.143,0 2.11095,-0.565539 2.82032,-1.324219 -0.69656,1.022874 -1.6522,1.871094 -3.28321,1.871094 -1.36421,0 -2.43621,-0.469823 -3.19922,-1.335938 -0.763,-0.866114 -1.22461,-2.162334 -1.22461,-3.863281 0,-1.455084 0.35114,-2.926694 1.09961,-3.996093 0.74848,-1.0694 1.85659,-1.769532 3.58399,-1.769532 z m -32.13477,0.002 c 1.44956,0 2.50539,0.51737 3.23438,1.332032 0.7282,0.813785 1.12676,1.947382 1.13867,3.197265 10e-6,0.0013 -1e-5,0.0026 0,0.0039 -0.002,0.285561 -0.0555,0.567388 -0.0996,0.84961 h -8.13672 l 0.0215,0.521484 c 0.0562,1.353257 0.4183,2.4787 1.1289,3.277344 0.7106,0.798644 1.75915,1.220703 3.00781,1.220703 0.9881,0 1.81435,-0.258954 2.43555,-0.746094 0.48373,-0.37934 0.72409,-0.959265 0.94922,-1.539062 l 0.66211,0.146484 c -0.44087,1.527625 -1.77333,2.699219 -4.18359,2.699219 h -0.0176 c -1.51048,-0.0028 -2.71147,-0.483539 -3.55274,-1.365234 -0.84369,-0.884239 -1.34765,-2.200057 -1.34765,-3.958985 0,-1.685711 0.47737,-3.101574 1.29687,-4.083984 0.8195,-0.982411 1.97236,-1.554688 3.46289,-1.554688 z m 59.82227,0 c 1.38821,0 2.44194,0.28331 3.46484,1.007813 l 0.31836,2.003906 -0.52734,0.0625 -0.36914,-1.699219 -0.18164,-0.113281 c -0.81768,-0.500367 -1.76324,-0.748504 -2.72071,-0.716797 -1.35565,0.0032 -2.40591,0.603428 -3.03711,1.533203 -0.6329,0.932291 -0.88476,2.147544 -0.88476,3.451172 0,1.454698 0.32308,2.669559 1.00976,3.542969 0.68669,0.87341 1.74286,1.355469 2.99805,1.355469 0.98618,0 1.8286,-0.302508 2.4375,-0.892578 0.48846,-0.473355 0.71832,-1.20208 0.92188,-1.955078 l 0.57812,0.126953 c -0.19408,0.75588 -0.44696,1.525632 -1.01562,2.09375 -0.68736,0.686692 -1.67156,1.162109 -3.14649,1.162109 h -0.0117 c -1.46721,-0.0029 -2.60954,-0.482783 -3.41211,-1.365234 -0.80497,-0.885089 -1.28515,-2.206617 -1.28515,-3.957032 0,-1.492167 0.42887,-2.920444 1.24023,-3.951172 0.81136,-1.030727 1.98406,-1.689453 3.62305,-1.689453 z m 11.08203,0.0039 c 1.23538,0.0026 2.43903,0.330895 3.53125,0.90625 l 0.20117,1.896484 -0.51953,0.0625 -0.23437,-1.630859 -0.22461,-0.119141 c -0.80294,-0.426834 -1.70072,-0.641537 -2.61133,-0.625 -0.77679,0.0012 -1.47947,0.129147 -2.03516,0.478516 -0.55834,0.351032 -0.92969,0.976586 -0.92969,1.710937 0,0.472599 0.15486,0.898274 0.42188,1.214844 0.26702,0.316569 0.62079,0.524217 1,0.677734 0.75842,0.307035 1.66121,0.425241 2.53125,0.597657 0.87004,0.172415 1.69352,0.397126 2.25,0.787109 0.55648,0.389983 0.89648,0.894609 0.89648,1.90625 v 0.002 0.0039 c 0.0116,0.970103 -0.40783,1.68962 -1.16797,2.228516 -0.76013,0.538895 -1.8806,0.861328 -3.17968,0.861328 h -0.0215 c -1.40355,-0.0027 -2.90255,-0.436842 -3.79687,-0.9375 l 0.24219,-1.748047 0.49218,0.05273 -0.0723,1.382812 0.30078,0.144531 c 0.86559,0.413792 1.8146,0.624789 2.77344,0.617188 0.86307,-4.92e-4 1.70715,-0.15913 2.38671,-0.53711 0.68063,-0.378568 1.20313,-1.049504 1.20313,-1.896484 0,-0.488422 -0.1514,-0.926909 -0.41797,-1.257813 -0.26657,-0.330903 -0.62479,-0.552816 -1.00977,-0.716796 -0.76995,-0.32796 -1.68754,-0.45408 -2.57226,-0.626954 -0.88472,-0.172873 -1.72399,-0.391098 -2.28906,-0.769531 -0.56508,-0.378432 -0.90235,-0.857289 -0.90235,-1.83789 0,-1.063566 0.43127,-1.703057 1.11914,-2.15625 0.68788,-0.453194 1.66285,-0.671875 2.63477,-0.671875 z m -87.2168,0.228515 h 0.53516 l 3.58594,8.716797 h 0.84961 l 2.11328,-8.248047 h -1.97461 v -0.466797 h 4.15429 v 0.464844 h -1.4414 l -3.12305,10.003906 h -0.68555 l -3.49609,-8.765625 h -0.81055 l -3.43164,8.767579 h -0.64843 l -3.25,-10.003907 h -1.38477 v -0.466797 h 4.41016 v 0.470704 h -2.10157 l 2.43555,8.246093 h 0.83984 z m 16.26563,0.259766 c -1.18496,0 -2.12249,0.486601 -2.73242,1.238281 -0.60994,0.75168 -0.91668,1.730101 -1.03907,2.759766 l -0.0664,0.560547 h 7.30273 l 0.0469,-0.447266 c 0.10404,-0.961795 -0.10605,-1.970074 -0.68946,-2.765625 -0.5834,-0.795551 -1.5619,-1.345703 -2.82226,-1.345703 z m 46.82617,0.02734 c -1.33083,0 -2.4358,0.546381 -3.16016,1.447265 -0.72435,0.900885 -1.08007,2.123747 -1.08008,3.486328 0,1.336732 0.34068,2.56249 1.05665,3.476563 0.71596,0.914073 1.82405,1.484375 3.18359,1.484375 1.3548,0 2.47415,-0.553538 3.20508,-1.464844 0.73092,-0.911306 1.08594,-2.146874 1.08594,-3.523437 v -0.002 c 0,-1.401878 -0.37186,-2.623341 -1.11329,-3.507813 -0.74142,-0.884472 -1.8556,-1.396484 -3.17773,-1.396484 z m -46.82617,0.972656 c 0.98464,0 1.60628,0.379301 2.01562,0.9375 0.32117,0.437953 0.37214,1.039545 0.39453,1.621094 h -4.98242 c 0.14294,-0.633825 0.28577,-1.281009 0.61719,-1.689453 0.44107,-0.543571 1.02603,-0.869141 1.95508,-0.869141 z m 46.82617,0.02734 c 1.07487,0 1.85583,0.377784 2.41016,1.039062 0.55432,0.661278 0.88086,1.640112 0.88086,2.865235 v 0.002 c 0,1.203436 -0.31562,2.210743 -0.86719,2.898437 -0.55158,0.687694 -1.32863,1.089844 -2.42383,1.089844 -1.09347,0 -1.8557,-0.411136 -2.39648,-1.101563 -0.54079,-0.690427 -0.84375,-1.694106 -0.84376,-2.859375 10e-6,-1.187418 0.31374,-2.180759 0.85938,-2.859375 0.54564,-0.678615 1.31169,-1.074218 2.38086,-1.074218 z m -14.23438,0.02539 h 0.006 0.004 c 1.56991,-0.03413 2.86429,1.192488 2.91797,2.759766 v 1.798828 c -0.0321,0.730178 -0.3807,1.589992 -0.94727,2.236328 -0.56656,0.646336 -1.32184,1.076172 -2.1875,1.076172 -0.86907,0 -1.57939,-0.306033 -2.10547,-0.914063 -0.52607,-0.608029 -0.87304,-1.550858 -0.87304,-2.867187 0,-1.134631 0.27194,-2.183711 0.79297,-2.914063 0.52103,-0.730351 1.25741,-1.175781 2.39257,-1.175781 z m -19.23437,0.002 c 0.85045,0 1.56299,0.299763 2.09375,0.908204 0.53076,0.60844 0.88726,1.555142 0.88867,2.896484 0,1.112192 -0.25647,2.159122 -0.75781,2.888672 -0.50134,0.72955 -1.20774,1.175781 -2.32617,1.175781 h -0.006 -0.006 c -1.66596,0.03778 -3.02344,-1.288961 -3.02344,-2.955078 v -1.714844 c 0.0212,-0.71923 0.33968,-1.542927 0.88867,-2.162109 0.54899,-0.619182 1.30362,-1.03711 2.24805,-1.03711 z M 79.472656,86.453125 v 0.5 l -0.002,17.630855 H 140.39062 V 86.453125 Z m 1,1 H 139.39062 V 103.58398 H 80.470703 Z m 42.406254,1.175781 -0.10352,0.363282 -3.41992,12.068362 h 3.14844 l 3.52343,-12.431644 z m 4.35156,0 -0.10156,0.363282 -3.42188,12.068362 h 3.15039 l 3.52539,-12.429691 z m -3.5957,1 h 1.07031 l -2.95703,10.431644 h -1.07032 z m 4.35156,0 1.07422,0.002 -2.95899,10.429694 h -1.07226 z m -39.033205,2.78711 c -0.66436,-0.02553 -1.260418,0.222664 -1.785156,0.591796 v -0.447265 h -4.140625 v 2.630859 h 0.996094 v 3.240235 h -0.996094 v 2.628909 h 5.572265 v -2.628909 h -1.43164 v -2.103516 c 0,-0.455139 0.09878,-0.790909 0.242187,-0.982422 0.143407,-0.191513 0.317775,-0.296875 0.705078,-0.296875 0.323487,0 0.441578,0.05896 0.554688,0.210938 0.11311,0.151981 0.222656,0.494165 0.222656,1.085937 v 4.724607 h 4.140625 v -2.630857 h -0.996094 v -2.111328 c 0,-0.455139 0.100791,-0.792836 0.244141,-0.984375 0.14335,-0.191539 0.31644,-0.296875 0.703125,-0.296875 0.324103,0 0.441731,0.05907 0.554687,0.210937 0.112957,0.151865 0.222657,0.494038 0.222657,1.085938 v 4.71484 h 4.142578 V 98.427734 H 96.90625 l -0.002,-2.919922 c 0,-1.004605 -0.363802,-1.8128 -0.947266,-2.335937 -0.581394,-0.521281 -1.347132,-0.754204 -2.121093,-0.755859 -1.021873,-0.03451 -1.872271,0.543229 -2.449219,1.349609 -0.581302,-0.823206 -1.453237,-1.346845 -2.433594,-1.349609 z m 44.447265,0.0078 c -1.1815,-0.02542 -2.35209,0.220558 -3.42383,0.720703 l -0.23828,0.111328 -0.42187,2.50586 2.49804,0.265625 c -0.48835,0.07248 -1.00329,0.05621 -1.42968,0.27539 -0.77987,0.400886 -1.375,1.192922 -1.375,2.275391 0,0.912658 0.39063,1.625757 0.94531,2.052737 0.55468,0.42698 1.23362,0.58984 1.86328,0.58984 h 0.002 c 0.91895,-0.003 1.69423,-0.48538 2.29102,-1.15039 0.36652,0.67942 0.96912,1.20167 1.78906,1.14453 0.54613,-0.004 1.08358,-0.13382 1.56445,-0.38867 l 0.27344,-0.14648 -0.0508,-2.089848 -0.625,0.18164 c -0.0653,0.01902 -0.12978,0.0302 -0.18555,0.03125 h 0.01 c -0.095,0 -0.0565,-0.01191 -0.0195,0.02734 0.037,0.03926 0.006,0.03872 0.006,-0.109375 v -3.255859 c 0,-0.986773 -0.41693,-1.796974 -1.07032,-2.306641 -0.65227,-0.508795 -1.50654,-0.733601 -2.40234,-0.734375 z m -44.476562,0.988281 0.0098,0.002 h 0.0098 c 0.92052,10e-7 1.67302,0.385099 1.96875,1.271485 l 0.31836,0.951172 c -0.05213,0.237261 -0.19336,0.432639 -0.19336,0.691406 v 3.111328 h 0.996094 v 0.630862 h -2.140625 v -3.724612 c 0,-0.703226 -0.105282,-1.260826 -0.419922,-1.683594 -0.31464,-0.422768 -0.835908,-0.613281 -1.357422,-0.613281 -0.447372,0 -0.756399,0.261945 -1.072265,0.496094 l 0.0625,-0.111328 c 0.365026,-0.658809 1.066658,-1.053472 1.818359,-1.021485 z m 4.884766,0.002 h 0.0098 0.0098 c 0.576229,0 1.094151,0.173091 1.460937,0.501954 0.366787,0.328862 0.615235,0.816404 0.615235,1.591796 l 0.002,3.919922 h 0.998047 v 0.630851 h -2.142578 v -3.714835 c 0,-0.703098 -0.105379,-1.258755 -0.419922,-1.681641 -0.314543,-0.422885 -0.835525,-0.615234 -1.357422,-0.615234 -0.399144,0 -0.658079,0.254081 -0.957031,0.443359 0.363043,-0.655436 1.014346,-1.104707 1.78125,-1.076172 z m 39.578126,0.0078 h 0.006 0.004 c 0.72652,0 1.36241,0.189105 1.79102,0.523437 0.42861,0.334333 0.68555,0.796307 0.68555,1.519532 v 3.255859 c 0,0.283901 0.0581,0.572667 0.26757,0.794922 0.16122,0.171029 0.37439,0.194207 0.57422,0.220703 l 0.006,0.27344 c -0.27333,0.10556 -0.55016,0.21093 -0.84375,0.21093 h -0.0195 l -0.0195,0.002 c -0.59885,0.0471 -1.09709,-0.405241 -1.10937,-1.005861 L 134.04297,99.0625 c 0.37986,-0.384041 0.65715,-0.921797 0.68555,-1.623047 l 0.0176,-0.443359 -0.43554,-0.07031 c -0.38029,-0.06196 -0.76628,-0.09698 -1.14844,-0.105469 h -0.006 -0.006 c -0.42165,0 -0.85589,0.04361 -1.24805,0.269532 -0.38419,0.221335 -0.65842,0.688745 -0.66992,1.220703 -0.0659,0.783865 0.60405,1.438439 1.38477,1.373047 l -0.0176,0.01758 c 0.0112,0 0.02,-0.01347 0.0312,-0.01367 0.0121,-0.0012 0.0191,0.01323 0.0312,0.01172 l 0.4375,-0.05469 v -0.15039 c 0.13207,-0.03732 0.25217,-0.09181 0.37695,-0.15625 -0.41089,0.51518 -0.98073,0.880823 -1.6582,0.882813 -0.45034,0 -0.92359,-0.12659 -1.25391,-0.38086 -0.33031,-0.25427 -0.55468,-0.611376 -0.55468,-1.261719 0,-0.760531 0.2944,-1.108401 0.83203,-1.384766 0.53763,-0.276364 1.3454,-0.392578 2.1582,-0.392578 h 0.002 c 0.39259,-0.0019 0.78221,0.01896 1.16797,0.06445 l 0.5586,0.06641 v -0.796875 c 0,-0.391932 0.02,-0.877152 -0.20704,-1.351563 -0.225,-0.47005 -0.78141,-0.827388 -1.5039,-0.833984 -0.47347,-0.0289 -0.94627,0.05765 -1.37696,0.259765 l -0.20507,0.0957 -0.19141,0.658203 -0.76562,-0.08203 0.14648,-0.876953 c 0.87652,-0.372581 1.81,-0.603524 2.76172,-0.582031 z m -49.359376,0.138672 h 2.140625 V 96.125 l 0.115234,-0.207031 c -0.01728,0.14707 -0.115234,0.256423 -0.115234,0.410156 v 3.103516 h 1.43164 v 0.628909 h -3.572265 v -0.628909 h 0.996094 V 94.191406 H 84.027344 Z M 132.9668,94.945334 H 132.9824 133 c 0.48166,0 0.53473,0.09319 0.61914,0.269532 0.0574,0.119803 0.0605,0.385653 0.0742,0.625 -0.23119,-0.01382 -0.46166,-0.04011 -0.69336,-0.03906 h -0.004 c -0.3472,1.13e-4 -0.66395,0.153294 -1.01171,0.195313 l 0.26757,-0.917969 c 0.23137,-0.08007 0.46936,-0.149012 0.71485,-0.132813 z m 0.17968,2.875 c 0.1395,0.0032 0.27671,0.02806 0.41602,0.03906 -0.18727,0.556332 -0.54063,0.841797 -0.96289,0.841797 h -0.0684 c -0.18919,0.01776 -0.33562,-0.119638 -0.31445,-0.310547 l 0.002,-0.02734 v -0.02734 c 0,-0.269055 0.0485,-0.303029 0.18359,-0.38086 0.13442,-0.07744 0.41301,-0.13419 0.74414,-0.134766 z"
       style="color:#000000;font-style:normal;font-variant:normal;font-weight:normal;font-stretch:normal;font-size:medium;line-height:normal;font-family:sans-serif;font-variant-ligatures:normal;font-variant-position:normal;font-variant-caps:normal;font-variant-numeric:normal;font-variant-alternates:normal;font-variant-east-asian:normal;font-feature-settings:normal;font-variation-settings:normal;text-indent:0;text-align:start;text-decoration:none;text-decoration-line:none;text-decoration-style:solid;text-decoration-color:#000000;letter-spacing:normal;word-spacing:normal;text-transform:none;writing-mode:lr-tb;direction:ltr;text-orientation:mixed;dominant-baseline:auto;baseline-shift:baseline;text-anchor:start;white-space:normal;shape-padding:0;shape-margin:0;inline-size:0;clip-rule:nonzero;display:inline;overflow:visible;visibility:visible;isolation:auto;mix-blend-mode:normal;color-interpolation:sRGB;color-interpolation-filters:linearRGB;solid-color:#000000;solid-opacity:1;vector-effect:none;fill-opacity:1;fill-rule:nonzero;stroke:none;stroke-width:1;stroke-linecap:butt;stroke-linejoin:miter;stroke-miterlimit:4;stroke-dasharray:none;stroke-dashoffset:0;stroke-opacity:1;color-rendering:auto;image-rendering:auto;shape-rendering:auto;text-rendering:auto;enable-background:accumulate;stop-color:#000000;stop-opacity:1" />
  </g>
</svg>
