<?xml version="1.0" encoding="UTF-8" standalone="no"?>
<svg
   xmlns:dc="http://purl.org/dc/elements/1.1/"
   xmlns:cc="http://creativecommons.org/ns#"
   xmlns:rdf="http://www.w3.org/1999/02/22-rdf-syntax-ns#"
   xmlns:svg="http://www.w3.org/2000/svg"
   xmlns="http://www.w3.org/2000/svg"
   xmlns:sodipodi="http://sodipodi.sourceforge.net/DTD/sodipodi-0.dtd"
   xmlns:inkscape="http://www.inkscape.org/namespaces/inkscape"
   height="240"
   width="240"
   sodipodi:docname="01_mega_logo.svg"
   inkscape:version="1.0 (4035a4fb49, 2020-05-01)"
   xml:space="preserve"
   enable-background="new 0 0 1190.6 841.9"
   viewBox="0 0 240 239.99999"
   y="0px"
   x="0px"
   id="Layer_1"
   version="1.1"><metadata
     id="metadata19"><rdf:RDF><cc:Work
         rdf:about=""><dc:format>image/svg+xml</dc:format><dc:type
           rdf:resource="http://purl.org/dc/dcmitype/StillImage" /><dc:title></dc:title></cc:Work></rdf:RDF></metadata><defs
     id="defs17" /><sodipodi:namedview
     inkscape:pagecheckerboard="true"
     inkscape:document-rotation="0"
     inkscape:current-layer="Layer_1"
     inkscape:window-maximized="1"
     inkscape:window-y="28"
     inkscape:window-x="45"
     inkscape:cy="180.74999"
     inkscape:cx="491.77096"
     inkscape:zoom="0.28031832"
     fit-margin-bottom="0"
     fit-margin-right="0"
     fit-margin-left="0"
     fit-margin-top="0"
     showgrid="false"
     id="namedview15"
     inkscape:window-height="740"
     inkscape:window-width="1321"
     inkscape:pageshadow="2"
     inkscape:pageopacity="0"
     guidetolerance="10"
     gridtolerance="10"
     objecttolerance="10"
     borderopacity="1"
     bordercolor="#666666"
     pagecolor="#ffffff" /><path
     style="fill:#d9272e;stroke-width:0.553403"
     inkscape:connector-curvature="0"
     id="path3"
     d="M 120,20 C 64.770338,20 20,64.770338 20,120 20,175.22966 64.770338,220 120,220 175.22966,220 220,175.22966 220,120 220,64.770338 175.22966,20 120,20 Z m 51.90924,135.36248 c 0,1.71555 -1.38351,3.09906 -3.09906,3.09906 h -13.06032 c -1.71555,0 -3.09906,-1.38351 -3.09906,-3.09906 v -40.23243 c 0,-0.33204 -0.38738,-0.49806 -0.66408,-0.2767 l -27.67017,27.67017 c -2.37964,2.37963 -6.3088,2.37963 -8.68844,0 L 87.957941,114.85335 c -0.221361,-0.22136 -0.664084,-0.0553 -0.664084,0.2767 v 40.23243 c 0,1.71555 -1.383508,3.09906 -3.099059,3.09906 H 71.134477 c -1.715551,0 -3.099059,-1.38351 -3.099059,-3.09906 V 84.637521 c 0,-1.715551 1.383508,-3.099059 3.099059,-3.099059 h 8.965136 c 1.60487,0 3.20974,0.664084 4.371887,1.826231 l 34.42169,34.421697 c 0.60875,0.60874 1.54953,0.60874 2.15828,0 l 34.42169,-34.421697 c 1.16215,-1.162147 2.71168,-1.826231 4.37189,-1.826231 h 8.96513 c 1.71555,0 3.09906,1.383508 3.09906,3.099059 z" /></svg>
