<?xml version="1.0" encoding="UTF-8" standalone="no"?>
<svg
   xmlns:dc="http://purl.org/dc/elements/1.1/"
   xmlns:cc="http://creativecommons.org/ns#"
   xmlns:rdf="http://www.w3.org/1999/02/22-rdf-syntax-ns#"
   xmlns:svg="http://www.w3.org/2000/svg"
   xmlns="http://www.w3.org/2000/svg"
   xmlns:sodipodi="http://sodipodi.sourceforge.net/DTD/sodipodi-0.dtd"
   xmlns:inkscape="http://www.inkscape.org/namespaces/inkscape"
   inkscape:version="1.0 (4035a4fb49, 2020-05-01)"
   height="240"
   width="240"
   sodipodi:docname="facebook.svg"
   xml:space="preserve"
   viewBox="0 0 240.00001 240.00001"
   y="0px"
   x="0px"
   id="Capa_1"
   version="1.1"><metadata
   id="metadata41"><rdf:RDF><cc:Work
       rdf:about=""><dc:format>image/svg+xml</dc:format><dc:type
         rdf:resource="http://purl.org/dc/dcmitype/StillImage" /><dc:title></dc:title></cc:Work></rdf:RDF></metadata><defs
   id="defs39" /><sodipodi:namedview
   inkscape:pagecheckerboard="true"
   inkscape:current-layer="Capa_1"
   inkscape:window-maximized="0"
   inkscape:window-y="28"
   inkscape:window-x="45"
   inkscape:cy="256.02499"
   inkscape:cx="256.02499"
   inkscape:zoom="1.1248902"
   showgrid="false"
   id="namedview37"
   inkscape:window-height="740"
   inkscape:window-width="1321"
   inkscape:pageshadow="2"
   inkscape:pageopacity="0"
   guidetolerance="10"
   gridtolerance="10"
   objecttolerance="10"
   borderopacity="1"
   bordercolor="#666666"
   pagecolor="#ffffff" />
















<g
   transform="matrix(0.39058702,0,0,0.39058702,19.999958,19.999917)"
   id="g901"><path
     style="fill:#2196f3"
     d="M 256.025,0.05 C 117.67,-2.678 3.184,107.038 0.025,245.383 0.386,315.806 31.569,382.54 85.358,427.996 v 73.387 c 0,5.891 4.776,10.667 10.667,10.667 1.999,0 3.958,-0.562 5.653,-1.621 l 59.456,-37.141 c 30.292,11.586 62.459,17.494 94.891,17.429 138.355,2.728 252.841,-106.988 256,-245.333 C 508.866,107.038 394.38,-2.678 256.025,0.05 Z"
     id="path2" /><path
     style="fill:#fafafa"
     d="m 424.558,174.983 c -3.174,-4.254 -8.993,-5.527 -13.653,-2.987 l -110.933,60.48 -69.013,-59.179 c -4.232,-3.628 -10.544,-3.387 -14.485,0.555 l -128,128 c -4.153,4.178 -4.133,10.932 0.046,15.085 3.341,3.321 8.464,4.057 12.605,1.811 l 110.933,-60.48 69.077,59.2 c 4.232,3.628 10.544,3.387 14.485,-0.555 l 128,-128 c 3.73,-3.765 4.13,-9.698 0.938,-13.93 z"
     id="path4" /><g
     id="g6">
</g><g
     id="g8">
</g><g
     id="g10">
</g><g
     id="g12">
</g><g
     id="g14">
</g><g
     id="g16">
</g><g
     id="g18">
</g><g
     id="g20">
</g><g
     id="g22">
</g><g
     id="g24">
</g><g
     id="g26">
</g><g
     id="g28">
</g><g
     id="g30">
</g><g
     id="g32">
</g><g
     id="g34">
</g></g>
</svg>
