<?xml version="1.0" encoding="UTF-8" standalone="no"?>
<svg
   xmlns:dc="http://purl.org/dc/elements/1.1/"
   xmlns:cc="http://creativecommons.org/ns#"
   xmlns:rdf="http://www.w3.org/1999/02/22-rdf-syntax-ns#"
   xmlns:svg="http://www.w3.org/2000/svg"
   xmlns="http://www.w3.org/2000/svg"
   xmlns:sodipodi="http://sodipodi.sourceforge.net/DTD/sodipodi-0.dtd"
   xmlns:inkscape="http://www.inkscape.org/namespaces/inkscape"
   inkscape:version="1.0 (4035a4fb49, 2020-05-01)"
   height="240"
   width="240"
   sodipodi:docname="soundcloud.svg"
   xml:space="preserve"
   viewBox="0 0 240 240"
   y="0px"
   x="0px"
   id="Capa_1"
   version="1.1"><metadata
   id="metadata49"><rdf:RDF><cc:Work
       rdf:about=""><dc:format>image/svg+xml</dc:format><dc:type
         rdf:resource="http://purl.org/dc/dcmitype/StillImage" /><dc:title></dc:title></cc:Work></rdf:RDF></metadata><defs
   id="defs47" /><sodipodi:namedview
   inkscape:current-layer="Capa_1"
   inkscape:window-maximized="0"
   inkscape:window-y="28"
   inkscape:window-x="45"
   inkscape:cy="256"
   inkscape:cx="256"
   inkscape:zoom="1.125"
   inkscape:pagecheckerboard="true"
   showgrid="false"
   id="namedview45"
   inkscape:window-height="740"
   inkscape:window-width="1321"
   inkscape:pageshadow="2"
   inkscape:pageopacity="0"
   guidetolerance="10"
   gridtolerance="10"
   objecttolerance="10"
   borderopacity="1"
   bordercolor="#666666"
   pagecolor="#ffffff" />
<g
   transform="matrix(0.390625,0,0,0.390625,20,20)"
   id="g12">
	<path
   id="path2"
   d="m 432,240 c -5.696,0 -11.296,0.608 -16.672,1.76 C 408.128,169.024 346.592,112 272,112 c -8.832,0 -16,7.168 -16,16 v 256 c 0,8.832 7.168,16 16,16 h 160 c 44.128,0 80,-35.872 80,-80 0,-44.096 -35.872,-80 -80,-80 z"
   style="fill:#ff9800" />
	<path
   id="path4"
   d="m 208,144 c -8.832,0 -16,7.168 -16,16 v 224 c 0,8.832 7.168,16 16,16 8.832,0 16,-7.168 16,-16 V 160 c 0,-8.832 -7.168,-16 -16,-16 z"
   style="fill:#ff9800" />
	<path
   id="path6"
   d="m 144,208 c -8.832,0 -16,7.168 -16,16 v 160 c 0,8.832 7.168,16 16,16 8.832,0 16,-7.168 16,-16 V 224 c 0,-8.832 -7.168,-16 -16,-16 z"
   style="fill:#ff9800" />
	<path
   id="path8"
   d="m 80,208 c -8.832,0 -16,7.168 -16,16 v 160 c 0,8.832 7.168,16 16,16 8.832,0 16,-7.168 16,-16 V 224 c 0,-8.832 -7.168,-16 -16,-16 z"
   style="fill:#ff9800" />
	<path
   id="path10"
   d="m 16,256 c -8.832,0 -16,7.168 -16,16 v 96 c 0,8.832 7.168,16 16,16 8.832,0 16,-7.168 16,-16 v -96 c 0,-8.832 -7.168,-16 -16,-16 z"
   style="fill:#ff9800" />
</g>
<g
   id="g14">
</g>
<g
   id="g16">
</g>
<g
   id="g18">
</g>
<g
   id="g20">
</g>
<g
   id="g22">
</g>
<g
   id="g24">
</g>
<g
   id="g26">
</g>
<g
   id="g28">
</g>
<g
   id="g30">
</g>
<g
   id="g32">
</g>
<g
   id="g34">
</g>
<g
   id="g36">
</g>
<g
   id="g38">
</g>
<g
   id="g40">
</g>
<g
   id="g42">
</g>
</svg>
