<?xml version="1.0" encoding="UTF-8" standalone="no"?>
<svg
   xmlns:dc="http://purl.org/dc/elements/1.1/"
   xmlns:cc="http://creativecommons.org/ns#"
   xmlns:rdf="http://www.w3.org/1999/02/22-rdf-syntax-ns#"
   xmlns:svg="http://www.w3.org/2000/svg"
   xmlns="http://www.w3.org/2000/svg"
   xmlns:sodipodi="http://sodipodi.sourceforge.net/DTD/sodipodi-0.dtd"
   xmlns:inkscape="http://www.inkscape.org/namespaces/inkscape"
   inkscape:version="1.0 (4035a4fb49, 2020-05-01)"
   sodipodi:docname="spotify-sketch.svg"
   id="svg12"
   version="1.1"
   width="240"
   viewBox="0 0 240 240"
   height="240"
   enable-background="new 0 0 24 24">
  <metadata
     id="metadata18">
    <rdf:RDF>
      <cc:Work
         rdf:about="">
        <dc:format>image/svg+xml</dc:format>
        <dc:type
           rdf:resource="http://purl.org/dc/dcmitype/StillImage" />
        <dc:title></dc:title>
      </cc:Work>
    </rdf:RDF>
  </metadata>
  <defs
     id="defs16" />
  <sodipodi:namedview
     inkscape:current-layer="svg12"
     inkscape:window-maximized="0"
     inkscape:window-y="28"
     inkscape:window-x="45"
     inkscape:cy="256"
     inkscape:cx="256"
     inkscape:zoom="1.125"
     inkscape:pagecheckerboard="true"
     showgrid="false"
     id="namedview14"
     inkscape:window-height="740"
     inkscape:window-width="1321"
     inkscape:pageshadow="2"
     inkscape:pageopacity="0"
     guidetolerance="10"
     gridtolerance="10"
     objecttolerance="10"
     borderopacity="1"
     bordercolor="#666666"
     pagecolor="#ffffff" />
  <g
     transform="matrix(8.3333333,0,0,8.3333333,20,20)"
     id="g848">
    <circle
       cx="12"
       cy="12"
       fill="#4caf50"
       r="12"
       id="circle2" />
    <g
       fill="#212121"
       id="g10">
      <path
         d="m 16.872,17.656 v 0.001 c -0.203,0 -0.329,-0.063 -0.518,-0.174 -3.019,-1.82 -6.532,-1.896 -10.002,-1.185 -0.189,0.049 -0.436,0.126 -0.576,0.126 -0.47,0 -0.765,-0.373 -0.765,-0.765 0,-0.499 0.295,-0.736 0.659,-0.813 3.963,-0.875 8.013,-0.798 11.467,1.268 0.295,0.189 0.47,0.358 0.47,0.798 0,0.438 -0.344,0.744 -0.735,0.744 z"
         id="path4" />
      <path
         d="m 18.175,14.483 h -0.001 c -0.252,0 -0.421,-0.111 -0.596,-0.203 -3.025,-1.79 -7.533,-2.512 -11.545,-1.423 -0.232,0.063 -0.358,0.126 -0.576,0.126 -0.518,0 -0.938,-0.421 -0.938,-0.938 0,-0.517 0.252,-0.861 0.75,-1.001 1.345,-0.378 2.719,-0.659 4.732,-0.659 3.14,0 6.174,0.779 8.565,2.202 0.392,0.232 0.547,0.533 0.547,0.953 -0.005,0.521 -0.411,0.943 -0.938,0.943 z"
         id="path6" />
      <path
         d="m 4.548,6.998 c 1.703,-0.499 3.61,-0.735 5.686,-0.735 3.532,0 7.234,0.735 9.939,2.313 0.378,0.218 0.624,0.518 0.624,1.093 0,0.658 -0.533,1.127 -1.122,1.127 l -0.001,-10e-4 c -0.252,0 -0.407,-0.063 -0.625,-0.189 C 15.605,8.55 9.444,8.057 5.458,9.17 5.283,9.218 5.065,9.295 4.833,9.295 4.194,9.295 3.706,8.796 3.706,8.153 3.706,7.496 4.113,7.124 4.548,6.998 Z"
         id="path8" />
    </g>
  </g>
</svg>
