<?xml version="1.0" encoding="UTF-8" standalone="no"?>
<svg
   xmlns:dc="http://purl.org/dc/elements/1.1/"
   xmlns:cc="http://creativecommons.org/ns#"
   xmlns:rdf="http://www.w3.org/1999/02/22-rdf-syntax-ns#"
   xmlns:svg="http://www.w3.org/2000/svg"
   xmlns="http://www.w3.org/2000/svg"
   xmlns:sodipodi="http://sodipodi.sourceforge.net/DTD/sodipodi-0.dtd"
   xmlns:inkscape="http://www.inkscape.org/namespaces/inkscape"
   inkscape:version="1.0 (4035a4fb49, 2020-05-01)"
   height="240"
   width="240"
   sodipodi:docname="twitch.svg"
   xml:space="preserve"
   viewBox="0 0 240 240"
   y="0px"
   x="0px"
   id="Capa_1"
   version="1.1"><metadata
   id="metadata45"><rdf:RDF><cc:Work
       rdf:about=""><dc:format>image/svg+xml</dc:format><dc:type
         rdf:resource="http://purl.org/dc/dcmitype/StillImage" /><dc:title></dc:title></cc:Work></rdf:RDF></metadata><defs
   id="defs43" /><sodipodi:namedview
   inkscape:current-layer="Capa_1"
   inkscape:window-maximized="0"
   inkscape:window-y="28"
   inkscape:window-x="45"
   inkscape:cy="256"
   inkscape:cx="256"
   inkscape:zoom="1.125"
   inkscape:pagecheckerboard="true"
   showgrid="false"
   id="namedview41"
   inkscape:window-height="740"
   inkscape:window-width="1321"
   inkscape:pageshadow="2"
   inkscape:pageopacity="0"
   guidetolerance="10"
   gridtolerance="10"
   objecttolerance="10"
   borderopacity="1"
   bordercolor="#666666"
   pagecolor="#ffffff" />
<g
   transform="matrix(0.390625,0,0,0.390625,20,20)"
   id="g8">
	<path
   id="path2"
   d="M 48,0 16,96 v 352 h 128 v 64 h 64 l 64,-64 h 96 L 496,311.68 V 0 Z m 416,288 -89.6,96 H 260.928 L 192,434.144 V 384 H 80 V 32 h 384 z"
   style="fill:#673ab7" />
	<rect
   id="rect4"
   height="128"
   width="32"
   style="fill:#673ab7"
   y="128"
   x="240" />
	<rect
   id="rect6"
   height="128"
   width="32"
   style="fill:#673ab7"
   y="128"
   x="336" />
</g>
<g
   transform="matrix(0.390625,0,0,0.390625,9.75,0)"
   id="g10">
</g>
<g
   transform="matrix(0.390625,0,0,0.390625,9.75,0)"
   id="g12">
</g>
<g
   transform="matrix(0.390625,0,0,0.390625,9.75,0)"
   id="g14">
</g>
<g
   transform="matrix(0.390625,0,0,0.390625,9.75,0)"
   id="g16">
</g>
<g
   transform="matrix(0.390625,0,0,0.390625,9.75,0)"
   id="g18">
</g>
<g
   transform="matrix(0.390625,0,0,0.390625,9.75,0)"
   id="g20">
</g>
<g
   transform="matrix(0.390625,0,0,0.390625,9.75,0)"
   id="g22">
</g>
<g
   transform="matrix(0.390625,0,0,0.390625,9.75,0)"
   id="g24">
</g>
<g
   transform="matrix(0.390625,0,0,0.390625,9.75,0)"
   id="g26">
</g>
<g
   transform="matrix(0.390625,0,0,0.390625,9.75,0)"
   id="g28">
</g>
<g
   transform="matrix(0.390625,0,0,0.390625,9.75,0)"
   id="g30">
</g>
<g
   transform="matrix(0.390625,0,0,0.390625,9.75,0)"
   id="g32">
</g>
<g
   transform="matrix(0.390625,0,0,0.390625,9.75,0)"
   id="g34">
</g>
<g
   transform="matrix(0.390625,0,0,0.390625,9.75,0)"
   id="g36">
</g>
<g
   transform="matrix(0.390625,0,0,0.390625,9.75,0)"
   id="g38">
</g>
</svg>
