<?xml version="1.0" encoding="UTF-8" standalone="no"?>
<svg
   xmlns:dc="http://purl.org/dc/elements/1.1/"
   xmlns:cc="http://creativecommons.org/ns#"
   xmlns:rdf="http://www.w3.org/1999/02/22-rdf-syntax-ns#"
   xmlns:svg="http://www.w3.org/2000/svg"
   xmlns="http://www.w3.org/2000/svg"
   xmlns:sodipodi="http://sodipodi.sourceforge.net/DTD/sodipodi-0.dtd"
   xmlns:inkscape="http://www.inkscape.org/namespaces/inkscape"
   inkscape:version="1.0 (4035a4fb49, 2020-05-01)"
   height="240"
   width="240"
   sodipodi:docname="twitter.svg"
   xml:space="preserve"
   viewBox="0 0 240 240"
   y="0px"
   x="0px"
   id="Capa_1"
   version="1.1"><metadata
   id="metadata39"><rdf:RDF><cc:Work
       rdf:about=""><dc:format>image/svg+xml</dc:format><dc:type
         rdf:resource="http://purl.org/dc/dcmitype/StillImage" /><dc:title></dc:title></cc:Work></rdf:RDF></metadata><defs
   id="defs37" /><sodipodi:namedview
   inkscape:current-layer="Capa_1"
   inkscape:window-maximized="0"
   inkscape:window-y="28"
   inkscape:window-x="45"
   inkscape:cy="256"
   inkscape:cx="256"
   inkscape:zoom="1.125"
   inkscape:pagecheckerboard="true"
   showgrid="false"
   id="namedview35"
   inkscape:window-height="740"
   inkscape:window-width="1321"
   inkscape:pageshadow="2"
   inkscape:pageopacity="0"
   guidetolerance="10"
   gridtolerance="10"
   objecttolerance="10"
   borderopacity="1"
   bordercolor="#666666"
   pagecolor="#ffffff" />
<path
   id="path2"
   d="m 220,57.9875 c -7.4375,3.2625 -15.3625,5.425 -23.625,6.475 8.5,-5.075 14.9875,-13.05 18.0375,-22.6625 -7.925,4.725 -16.675,8.0625 -26,9.925 -7.525,-8.0125 -18.25,-12.975 -29.95,-12.975 -22.7,0 -40.975,18.425 -40.975,41.0125 0,3.25 0.275,6.375 0.95,9.35 -34.0875,-1.6625 -64.25,-18 -84.5125,-42.8875 -3.5375,6.1375 -5.6125,13.1625 -5.6125,20.725 0,14.2 7.3125,26.7875 18.2125,34.075 C 39.9375,100.9 33.475,98.9875 28,95.975 c 0,0.125 0,0.2875 0,0.45 0,19.925 14.2125,36.475 32.85,40.2875 -3.3375,0.9125 -6.975,1.35 -10.75,1.35 -2.625,0 -5.275,-0.15 -7.7625,-0.7 C 47.65,153.6 62.725,165.5375 80.65,165.925 66.7,176.8375 48.9875,183.4125 29.8125,183.4125 c -3.3625,0 -6.5875,-0.15 -9.8125,-0.5625 18.1625,11.7125 39.6875,18.4 62.9,18.4 75.45,0 116.7,-62.5 116.7,-116.675 0,-1.8125 -0.0625,-3.5625 -0.15,-5.3 C 207.5875,73.5 214.425,66.2875 220,57.9875 Z"
   style="fill:#03a9f4;stroke-width:0.390625" />
<g
   id="g4">
</g>
<g
   id="g6">
</g>
<g
   id="g8">
</g>
<g
   id="g10">
</g>
<g
   id="g12">
</g>
<g
   id="g14">
</g>
<g
   id="g16">
</g>
<g
   id="g18">
</g>
<g
   id="g20">
</g>
<g
   id="g22">
</g>
<g
   id="g24">
</g>
<g
   id="g26">
</g>
<g
   id="g28">
</g>
<g
   id="g30">
</g>
<g
   id="g32">
</g>
</svg>
