<?xml version="1.0" encoding="UTF-8" standalone="no"?>
<svg
   xmlns:dc="http://purl.org/dc/elements/1.1/"
   xmlns:cc="http://creativecommons.org/ns#"
   xmlns:rdf="http://www.w3.org/1999/02/22-rdf-syntax-ns#"
   xmlns:svg="http://www.w3.org/2000/svg"
   xmlns="http://www.w3.org/2000/svg"
   xmlns:sodipodi="http://sodipodi.sourceforge.net/DTD/sodipodi-0.dtd"
   xmlns:inkscape="http://www.inkscape.org/namespaces/inkscape"
   inkscape:version="1.0 (4035a4fb49, 2020-05-01)"
   sodipodi:docname="wikipedia.svg"
   xml:space="preserve"
   width="240"
   viewBox="0 0 240.00001 240"
   version="1.1"
   id="Layer_1"
   height="240"
   enable-background="new 0 0 515.91 728.5"><metadata
     id="metadata8"><rdf:RDF><cc:Work
         rdf:about=""><dc:format>image/svg+xml</dc:format><dc:type
           rdf:resource="http://purl.org/dc/dcmitype/StillImage" /><dc:title></dc:title></cc:Work></rdf:RDF></metadata><sodipodi:namedview
     inkscape:pagecheckerboard="true"
     inkscape:current-layer="Layer_1"
     inkscape:window-maximized="0"
     inkscape:window-y="28"
     inkscape:window-x="45"
     inkscape:cy="203.74616"
     inkscape:cx="253.21257"
     inkscape:zoom="0.5625"
     showgrid="false"
     id="namedview6"
     inkscape:window-height="740"
     inkscape:window-width="1321"
     inkscape:pageshadow="2"
     inkscape:pageopacity="0"
     guidetolerance="10"
     gridtolerance="10"
     objecttolerance="10"
     borderopacity="1"
     bordercolor="#666666"
     pagecolor="#ffffff" /><defs
     id="defs7" /><g
     transform="matrix(0.390625,0,0,0.390625,19.999994,20)"
     id="g862"><g
       id="g856"><g
         id="g852"><rect
           height="512"
           id="rect2984"
           rx="64"
           ry="64"
           style="fill:#282828;fill-opacity:1;fill-rule:nonzero;stroke:none;stroke-width:1"
           width="512"
           x="1.5e-05"
           y="0" /></g></g><path
       d="m 455.71571,116.84709 c 0,0 -62.0615,0 -82.6924,0 l -5.9154,1.01776 v 7.94657 c 0,0.93332 2.8221,1.71554 3.6044,2.29775 0.7466,0.6311 2.7688,0.97332 3.5999,0.97332 l 7.4933,0.37333 c 8.4976,0.4 11.0843,2.24442 14.3953,5.35549 3.2489,3.22218 3.7822,8.68878 1.2489,16.37313 l -73.0835,190.79323 -2.7911,-0.8311 -46.4306,-104.43428 c 0.6756,-1.56887 1.08,-2.44886 1.08,-2.44886 l 38.0084,-78.12349 c 4.4222,-8.2399 8.7022,-15.60426 10.8755,-19.03532 3.96881,-6.25771 5.9021,-7.43991 16.72421,-7.98657 2.2089,0 3.0577,-1.08443 3.0577,-3.27996 v -7.90213 l -0.5555,-0.84888 c 0,0 -45.4394,-0.15555 -66.1281,0 l 0.013,0.81333 v 7.90657 c 0,0.96443 -0.5333,1.73331 0.2,2.31552 0.7822,0.63111 1.1111,0.95555 1.9511,0.95555 l 3.0978,0.39555 c 8.4576,0.39999 12.2398,2.82663 13.3909,4.35106 2.0222,2.7333 2.9644,5.64882 -1.9289,17.38201 l -29.2663,64.0881 -26.4485,-59.44816 c -8.671,-18.99532 -10.8177,-24.87525 2.2577,-25.97302 l 3.5111,-0.81332 c 2.5155,0 2.1244,-0.99554 2.1244,-2.88441 v -8.31101 l -0.2622,-0.67999 c 0,0 -48.4439,0 -70.5458,0.0133 l -0.3022,0.81333 v 8.33323 c 0,1.87109 1.8444,2.35108 5.2666,2.86663 12.2442,1.75998 12.0309,3.16885 24.1285,29.53742 1.8089,3.95106 7.1511,15.86647 7.1511,15.86647 l 27.573,59.51483 c 0,0 3.1288,7.64435 8.0221,19.51087 l -40.0706,87.83448 -2.2889,-0.64444 c 0,0 -62.1815,-144.08268 -80.1635,-192.29098 -1.8933,-4.96438 -2.7155,-8.67989 -2.7155,-10.96875 0,-4.89772 4.0178,-7.55102 12.0532,-7.90657 l 12.2265,-0.44 c 2.5022,0 6.5955,-1.04887 6.5955,-3.23107 v -7.90657 l -3.6844,-0.81777 c 0,0 -76.176805,-0.0933 -91.563305,0 l -2.5289,0.81777 v 8.3199 c 0,1.49331 1.9911,2.42219 5.4533,2.81774 9.4621,0.57333 15.8176,2.21775 18.7953,4.99105 2.9689,2.79108 6.1911,9.84433 10.3688,20.8353 22.608595,59.6615 70.674695,166.1313 94.069895,226.77945 6.7244,16.54647 15.2176,19.12421 25.4797,-0.51999 10.5732,-21.5464 31.9019,-69.37249 47.4617,-104.67428 14.5553,35.21735 34.37291,82.86121 43.93281,104.44762 7.6088,17.27534 16.2886,18.98199 25.093,0.51554 23.0353,-56.23931 90.31,-225.49057 90.31,-225.49057 2.9066,-8.30657 6.9688,-14.70649 12.2043,-19.35532 5.1955,-4.59106 12.9287,-7.18658 23.773,-7.69324 2.1956,0 3.0578,-1.10665 3.0578,-3.24885 v -7.94657 l -0.2845,-1.01776 z"
       id="Wikipedia"
       style="fill:#ffffff;fill-opacity:1" /></g></svg>
