<?xml version="1.0" encoding="UTF-8" standalone="no"?>
<svg
   xmlns:dc="http://purl.org/dc/elements/1.1/"
   xmlns:cc="http://creativecommons.org/ns#"
   xmlns:rdf="http://www.w3.org/1999/02/22-rdf-syntax-ns#"
   xmlns:svg="http://www.w3.org/2000/svg"
   xmlns="http://www.w3.org/2000/svg"
   xmlns:sodipodi="http://sodipodi.sourceforge.net/DTD/sodipodi-0.dtd"
   xmlns:inkscape="http://www.inkscape.org/namespaces/inkscape"
   inkscape:version="1.0 (4035a4fb49, 2020-05-01)"
   height="240"
   width="240"
   sodipodi:docname="yahoo.svg"
   xml:space="preserve"
   viewBox="0 0 240 240"
   y="0px"
   x="0px"
   id="Layer_1"
   version="1.1"><metadata
   id="metadata43"><rdf:RDF><cc:Work
       rdf:about=""><dc:format>image/svg+xml</dc:format><dc:type
         rdf:resource="http://purl.org/dc/dcmitype/StillImage" /><dc:title></dc:title></cc:Work></rdf:RDF></metadata><defs
   id="defs41" /><sodipodi:namedview
   inkscape:current-layer="Layer_1"
   inkscape:window-maximized="0"
   inkscape:window-y="28"
   inkscape:window-x="45"
   inkscape:cy="145.6595"
   inkscape:cx="145.6595"
   inkscape:zoom="1.977214"
   inkscape:pagecheckerboard="true"
   showgrid="false"
   id="namedview39"
   inkscape:window-height="740"
   inkscape:window-width="1321"
   inkscape:pageshadow="2"
   inkscape:pageopacity="0"
   guidetolerance="10"
   gridtolerance="10"
   objecttolerance="10"
   borderopacity="1"
   bordercolor="#666666"
   pagecolor="#ffffff" />
<g
   transform="matrix(0.68653263,0,0,0.68653263,20,20)"
   id="g6">
	<path
   id="path2"
   d="m 145.659,0 c 80.45,0 145.66,65.219 145.66,145.66 0,80.45 -65.21,145.659 -145.66,145.659 C 65.209,291.319 0,226.109 0,145.66 0,65.219 65.21,0 145.659,0 Z"
   style="fill:#720e9e" />
	<path
   id="path4"
   d="m 212.353,114.98 0.155,-0.027 4.825,-5.371 -0.237,-0.018 0.51,-0.801 h -67.595 l 2.604,9.249 h 18.444 l -31.044,28.722 c -6.336,-9.24 -21.184,-30.479 -31.544,-46.411 h 19.254 v -6.555 l 0.264,-1.884 -0.264,-0.036 V 91.083 H 54.631 v 9.24 H 77.49 c 8.876,7.328 47.358,54.049 48.76,58.51 0.564,4.179 1.366,28.841 -0.291,30.698 -1.994,2.868 -22.814,1.32 -26.483,1.593 l -0.137,9.058 c 6.7,0.2 26.801,-0.009 33.584,-0.009 13.364,0 36.77,-0.346 40.065,-0.082 l 0.41,-8.576 -26.901,-0.401 c -0.564,-3.887 -1.183,-28.422 -0.619,-31.098 2.54,-7.765 43.816,-39.902 48.059,-41.112 l 3.997,-0.901 h 12.472 c -0.001,-0.001 1.947,-3.023 1.947,-3.023 z m -10.087,64.099 11.689,0.892 13.628,-49.979 c -2.276,-0.082 -22.95,-1.93 -25.636,-2.431 z m -2.021,8.012 0.064,12.208 5.917,0.492 6.391,0.446 1.875,-11.944 -6.737,-0.31 c 0.001,0 -7.51,-0.892 -7.51,-0.892 z"
   style="fill:#ffffff" />
</g>
<g
   transform="scale(0.68653263)"
   id="g8">
</g>
<g
   transform="scale(0.68653263)"
   id="g10">
</g>
<g
   transform="scale(0.68653263)"
   id="g12">
</g>
<g
   transform="scale(0.68653263)"
   id="g14">
</g>
<g
   transform="scale(0.68653263)"
   id="g16">
</g>
<g
   transform="scale(0.68653263)"
   id="g18">
</g>
<g
   transform="scale(0.68653263)"
   id="g20">
</g>
<g
   transform="scale(0.68653263)"
   id="g22">
</g>
<g
   transform="scale(0.68653263)"
   id="g24">
</g>
<g
   transform="scale(0.68653263)"
   id="g26">
</g>
<g
   transform="scale(0.68653263)"
   id="g28">
</g>
<g
   transform="scale(0.68653263)"
   id="g30">
</g>
<g
   transform="scale(0.68653263)"
   id="g32">
</g>
<g
   transform="scale(0.68653263)"
   id="g34">
</g>
<g
   transform="scale(0.68653263)"
   id="g36">
</g>
</svg>
